<svg width="360" height="290" viewBox="0 0 360 290" fill="none" xmlns="http://www.w3.org/2000/svg">
<path d="M11.6045 133V136" stroke="#D1D5DB" stroke-width="2.921" stroke-linecap="round"/>
<path d="M4.86719 134.625L7.31862 137.149" stroke="#D1D5DB" stroke-width="2.921" stroke-linecap="round"/>
<path d="M2 141.343H5.46629" stroke="#D1D5DB" stroke-width="2.921" stroke-linecap="round"/>
<path d="M4.58691 148.18L7.03834 145.656" stroke="#D1D5DB" stroke-width="2.921" stroke-linecap="round"/>
<path d="M11.6045 149V146" stroke="#D1D5DB" stroke-width="2.921" stroke-linecap="round"/>
<path d="M16.6045 147L14.6045 145" stroke="#D1D5DB" stroke-width="2.921" stroke-linecap="round"/>
<path d="M20.6045 142H17.6045" stroke="#D1D5DB" stroke-width="2.921" stroke-linecap="round"/>
<path d="M18.6045 135L16.6045 137" stroke="#D1D5DB" stroke-width="2.921" stroke-linecap="round"/>
<path d="M172.604 2V4" stroke="#D1D5DB" stroke-width="2.921" stroke-linecap="round"/>
<path d="M166.604 8H168.604" stroke="#D1D5DB" stroke-width="2.921" stroke-linecap="round"/>
<path d="M172.604 14V12" stroke="#D1D5DB" stroke-width="2.921" stroke-linecap="round"/>
<path d="M177.604 8H175.604" stroke="#D1D5DB" stroke-width="2.921" stroke-linecap="round"/>
<path d="M56.6045 86V89" stroke="#D1D5DB" stroke-width="2.921" stroke-linecap="round"/>
<path d="M47.6045 95H50.6045" stroke="#D1D5DB" stroke-width="2.921" stroke-linecap="round"/>
<path d="M56.6045 103V100" stroke="#D1D5DB" stroke-width="2.921" stroke-linecap="round"/>
<path d="M64.6045 95H61.6045" stroke="#D1D5DB" stroke-width="2.921" stroke-linecap="round"/>
<path d="M271.859 195.039C274.249 195.039 276.187 196.978 276.187 199.368C276.187 201.76 274.249 203.697 271.859 203.697C269.469 203.697 267.531 201.76 267.531 199.368" stroke="#D1D5DB" stroke-width="2.921" stroke-linecap="round"/>
<path fill-rule="evenodd" clip-rule="evenodd" d="M345.001 208.326C347.571 207.524 351.51 204.381 352.421 201C353.248 203.989 356.715 207.524 359.842 207.792C356.322 209.038 352.955 212.741 352.421 215.651C352.058 212.685 347.402 208.758 345.001 208.326Z" fill="#D1D5DB"/>
<path fill-rule="evenodd" clip-rule="evenodd" d="M27.8777 193.706C29.163 193.305 31.1317 191.734 31.5876 190.043C32.0011 191.537 33.7338 193.305 35.2976 193.439C33.5377 194.061 31.8551 195.913 31.5876 197.368C31.406 195.885 29.0781 193.921 27.8777 193.706Z" fill="#D1D5DB"/>
<path fill-rule="evenodd" clip-rule="evenodd" d="M51.7302 54.5972C51.7302 56.4518 50.2275 57.954 48.3742 57.954C46.5201 57.954 45.0183 56.4518 45.0183 54.5972C45.0183 52.7434 46.5201 51.2404 48.3742 51.2404C50.2275 51.2404 51.7302 52.7434 51.7302 54.5972Z" fill="#D1D5DB"/>
<path fill-rule="evenodd" clip-rule="evenodd" d="M275.824 63.6107C275.824 66.7093 273.312 69.2212 270.215 69.2212C267.116 69.2212 264.605 66.7093 264.605 63.6107C264.605 60.512 267.116 58.0001 270.215 58.0001C273.312 58.0001 275.824 60.512 275.824 63.6107Z" fill="#D1D5DB"/>
<path fill-rule="evenodd" clip-rule="evenodd" d="M353.52 48.4097C353.52 50.868 351.528 52.8602 349.071 52.8602C346.613 52.8602 344.622 50.868 344.622 48.4097C344.622 45.9513 346.613 43.9591 349.071 43.9591C351.528 43.9591 353.52 45.9513 353.52 48.4097Z" fill="#D1D5DB"/>
<path fill-rule="evenodd" clip-rule="evenodd" d="M114.449 256.268C114.449 257.817 113.193 259.073 111.644 259.073C110.095 259.073 108.84 257.817 108.84 256.268C108.84 254.718 110.095 253.462 111.644 253.462C113.193 253.462 114.449 254.718 114.449 256.268Z" stroke="#D1D5DB" stroke-width="2.921" stroke-linecap="round"/>
<path fill-rule="evenodd" clip-rule="evenodd" d="M112.78 33.0317C112.78 34.8863 111.278 36.3885 109.424 36.3885C107.571 36.3885 106.068 34.8863 106.068 33.0317C106.068 31.178 107.571 29.6749 109.424 29.6749C111.278 29.6749 112.78 31.178 112.78 33.0317Z" stroke="#D1D5DB" stroke-width="2.921" stroke-linecap="round"/>
<path fill-rule="evenodd" clip-rule="evenodd" d="M198.384 287.336C196.239 288.152 193.839 287.075 193.023 284.931C192.208 282.785 193.284 280.384 195.429 279.569C197.573 278.753 199.973 279.829 200.789 281.975C201.606 284.12 200.528 286.52 198.384 287.336Z" stroke="#D1D5DB" stroke-width="2.921" stroke-linecap="round"/>
<path d="M177.498 96.9747C146.386 98.0832 121.864 124.286 122.978 155.526C124.086 186.638 150.289 211.159 181.529 210.045C212.769 208.932 237.158 182.608 236.05 151.494C234.943 120.38 208.611 95.8654 177.498 96.9747ZM178.53 125.938C182.013 125.814 185.454 126.727 188.417 128.561C191.379 130.396 193.731 133.069 195.172 136.241C196.614 139.414 197.081 142.943 196.514 146.381C195.947 149.819 194.371 153.012 191.988 155.553C189.604 158.095 186.519 159.871 183.124 160.657C179.729 161.443 176.177 161.203 172.919 159.967C169.66 158.732 166.843 156.556 164.823 153.717C162.802 150.877 161.671 147.502 161.572 144.019C161.229 134.406 168.917 126.281 178.53 125.938ZM181.114 198.41C170.783 198.793 160.64 195.573 152.422 189.301C160.201 180.16 169.89 174.875 180.262 174.506C190.633 174.136 200.796 178.586 209.084 187.281C201.334 194.123 191.446 198.057 181.114 198.41Z" fill="#9CA3AF" fill-opacity="0.7"/>
<path d="M71.3705 118.731C52.2303 119.413 37.1445 135.532 37.8294 154.751C38.5116 173.891 54.6312 188.977 73.8502 188.292C93.0692 187.607 108.073 171.413 107.392 152.271C106.711 133.13 90.5115 118.048 71.3705 118.731ZM72.0057 136.549C74.1481 136.473 76.2649 137.034 78.0877 138.163C79.9104 139.291 81.3569 140.936 82.2438 142.887C83.1307 144.839 83.4179 147.01 83.0691 149.125C82.7203 151.241 81.7511 153.205 80.2845 154.768C78.8179 156.332 76.92 157.425 74.8314 157.908C72.7429 158.392 70.5578 158.244 68.5533 157.484C66.5489 156.723 64.8153 155.385 63.5725 153.638C62.3298 151.892 61.6338 149.815 61.5729 147.672C61.3621 141.759 66.0914 136.76 72.0057 136.549ZM73.595 181.134C67.2395 181.37 60.9995 179.389 55.9438 175.53C60.7293 169.906 66.6903 166.655 73.0708 166.428C79.4514 166.2 85.7033 168.938 90.8024 174.287C86.0343 178.496 79.9513 180.917 73.595 181.134Z" fill="#9CA3AF" fill-opacity="0.7"/>
<path d="M288.371 118.731C269.23 119.413 254.144 135.532 254.829 154.751C255.512 173.891 271.631 188.977 290.85 188.292C310.069 187.607 325.073 171.413 324.392 152.271C323.711 133.13 307.512 118.048 288.371 118.731ZM289.006 136.549C291.148 136.473 293.265 137.034 295.088 138.163C296.91 139.291 298.357 140.936 299.244 142.887C300.131 144.839 300.418 147.01 300.069 149.125C299.72 151.241 298.751 153.205 297.285 154.768C295.818 156.332 293.92 157.425 291.831 157.908C289.743 158.392 287.558 158.244 285.553 157.484C283.549 156.723 281.815 155.385 280.573 153.638C279.33 151.892 278.634 149.815 278.573 147.672C278.362 141.759 283.091 136.76 289.006 136.549ZM290.595 181.134C284.239 181.37 278 179.389 272.944 175.53C277.729 169.906 283.69 166.655 290.071 166.428C296.451 166.2 302.703 168.938 307.802 174.287C303.034 178.496 296.951 180.917 290.595 181.134Z" fill="#9CA3AF" fill-opacity="0.7"/>
<path fill-rule="evenodd" clip-rule="evenodd" d="M244.329 225.618C235.851 234.094 222.727 235.05 213.198 228.506C211.98 227.654 210.821 226.698 209.741 225.618C209.184 225.063 208.66 224.491 208.166 223.888C207.177 222.685 206.311 221.402 205.602 220.076C204.352 217.836 203.503 215.46 203.039 213.003C201.542 205.3 203.78 197.009 209.741 191.051C215.715 185.075 224.008 182.852 231.713 184.334C234.168 184.812 236.546 185.662 238.786 186.897C240.114 187.622 241.38 188.488 242.585 189.476C243.186 189.968 243.759 190.495 244.313 191.051C245.396 192.132 246.366 193.289 247.202 194.508C253.749 204.033 252.791 217.157 244.329 225.618Z" fill="white" fill-opacity="0.1"/>
<path fill-rule="evenodd" clip-rule="evenodd" d="M241.957 223.948C233.137 232.77 218.843 232.768 210.022 223.948C201.212 215.138 201.212 200.843 210.033 192.023C218.843 183.213 233.137 183.213 241.947 192.023C250.767 200.843 250.767 215.138 241.957 223.948ZM246.483 187.491C235.162 176.17 216.816 176.17 205.495 187.491C194.176 198.811 194.166 217.168 205.485 228.489C215.789 238.79 231.939 239.719 243.298 231.261C244.407 230.434 245.476 229.507 246.495 228.489C247.513 227.47 248.44 226.402 249.265 225.292C257.723 213.931 256.786 197.793 246.483 187.491Z" fill="#D1D5DB"/>
<path fill-rule="evenodd" clip-rule="evenodd" d="M291.038 271.165L290.562 271.64C287.418 274.786 282.269 274.786 279.123 271.64L250.089 242.606L262.004 230.691L291.038 259.725C294.184 262.871 294.184 268.019 291.038 271.165Z" fill="#F92E4B"/>
<path fill-rule="evenodd" clip-rule="evenodd" d="M249.891 224.404L258.471 232.984L252.38 239.073L243.802 230.494C244.934 229.65 246.023 228.703 247.064 227.665C248.103 226.627 249.049 225.536 249.891 224.404Z" fill="#D1D5DB"/>
<path fill-rule="evenodd" clip-rule="evenodd" d="M290.603 259.368L278.764 271.206L276.633 269.073L288.47 257.235L290.603 259.368Z" fill="#EF545F"/>
<path fill-rule="evenodd" clip-rule="evenodd" d="M262.662 231.101L250.499 243.265L248.692 241.458L260.855 229.294L262.662 231.101Z" fill="url(#paint0_linear_657_2675)"/>
<path fill-rule="evenodd" clip-rule="evenodd" d="M236.118 188.988L206.288 218.816C205.165 216.803 204.401 214.666 203.986 212.458L229.76 186.684C231.966 187.115 234.105 187.877 236.118 188.988Z" fill="white" fill-opacity="0.5"/>
<path fill-rule="evenodd" clip-rule="evenodd" d="M245.897 196.078L213.648 226.5C212.494 225.74 211.394 224.884 210.369 223.917C209.842 223.419 209.342 222.909 208.875 222.369L241.517 191.574C242.089 192.016 242.632 192.487 243.158 192.984C244.183 193.951 245.105 194.987 245.897 196.078Z" fill="white" fill-opacity="0.5"/>
<defs>
<linearGradient id="paint0_linear_657_2675" x1="255.677" y1="222.309" x2="241.706" y2="236.279" gradientUnits="userSpaceOnUse">
<stop stop-color="#FF404E"/>
<stop offset="1" stop-color="#FF62A5"/>
</linearGradient>
</defs>
</svg>
