<svg width="378" height="250" viewBox="0 0 378 250" fill="none" xmlns="http://www.w3.org/2000/svg">
<path fill-rule="evenodd" clip-rule="evenodd" d="M157.719 92.0514C157.342 91.5432 156.746 91.2436 156.113 91.2436L32.1862 91.2436L1.89552 200.304L225.537 188.605C227.13 188.522 227.989 186.697 227.038 185.416L157.719 92.0514Z" fill="url(#paint0_linear_406_1442)" fill-opacity="0.5" style="mix-blend-mode:multiply"/>
<path fill-rule="evenodd" clip-rule="evenodd" d="M105.775 62.617C107.855 53.2911 116.13 46.6588 125.685 46.6588H276.616C286.171 46.6588 294.446 53.2911 296.526 62.617L307.654 112.497C310.156 123.715 302.908 134.701 291.528 136.309C271.119 139.192 237.76 142.903 201.268 142.903C164.742 142.903 131.264 139.185 110.793 136.3C99.4049 134.696 92.147 123.704 94.651 112.479L105.775 62.617Z" fill="#201E2E"/>
<mask id="mask0_406_1442" style="mask-type:alpha" maskUnits="userSpaceOnUse" x="94" y="46" width="215" height="97">
<path fill-rule="evenodd" clip-rule="evenodd" d="M105.775 62.617C107.855 53.2911 116.13 46.6588 125.685 46.6588H276.616C286.171 46.6588 294.446 53.2911 296.526 62.617L307.654 112.497C310.156 123.715 302.908 134.701 291.528 136.309C271.119 139.192 237.76 142.903 201.268 142.903C164.742 142.903 131.264 139.185 110.793 136.3C99.4049 134.696 92.147 123.704 94.651 112.479L105.775 62.617Z" fill="white"/>
</mask>
<g mask="url(#mask0_406_1442)">
<path fill-rule="evenodd" clip-rule="evenodd" d="M111.151 27.8067H291.149L285.484 67.603C283.845 79.1217 275.923 88.7666 264.61 91.4824C249.625 95.0794 226.744 99.2461 201.15 99.2461C175.557 99.2461 152.675 95.0794 137.691 91.4824C126.377 88.7666 118.456 79.1217 116.816 67.603L111.151 27.8067Z" fill="#6D6D6D"/>
</g>
<path fill-rule="evenodd" clip-rule="evenodd" d="M117.62 91.1204L164.829 93.5945C167.489 93.7339 169.561 95.5233 169.738 97.8361L172.04 139.206C172.132 141.829 170.024 144.212 167.344 144.53C167.064 144.563 166.784 144.572 166.506 144.558L110.625 141.629C107.969 141.49 105.736 139.218 105.638 136.555C105.628 136.276 105.642 136 105.681 135.728L112.295 94.8256C112.712 92.5439 114.96 90.981 117.62 91.1204Z" fill="#9598B3"/>
<path fill-rule="evenodd" clip-rule="evenodd" d="M117.62 81.5069L164.829 83.9811C167.489 84.1205 169.561 85.9099 169.738 88.2226L172.04 129.592C172.132 132.216 170.024 134.599 167.344 134.916C167.064 134.95 166.784 134.959 166.506 134.944L110.625 132.016C107.969 131.877 105.736 129.605 105.638 126.941C105.628 126.663 105.642 126.386 105.681 126.114L112.295 85.2122C112.712 82.9305 114.96 81.3675 117.62 81.5069Z" fill="#B5B7CE"/>
<path fill-rule="evenodd" clip-rule="evenodd" d="M116.941 69.4545L165.508 71.9998C168.244 72.1432 170.382 73.9361 170.571 76.2495L173.11 117.631C173.216 120.256 171.051 122.636 168.286 122.949C167.997 122.982 167.708 122.991 167.421 122.976L109.71 119.951C106.967 119.807 104.664 117.532 104.566 114.868C104.556 114.59 104.571 114.313 104.611 114.042L111.461 73.1517C111.891 70.8707 114.205 69.3111 116.941 69.4545Z" fill="#C2C2C2"/>
<path fill-rule="evenodd" clip-rule="evenodd" d="M116.33 58.6074L166.119 61.2167C168.924 61.3637 171.12 63.1596 171.322 65.4737L174.072 106.867C174.192 109.492 171.976 111.869 169.133 112.178C168.836 112.211 168.539 112.219 168.244 112.204L108.887 109.093C106.066 108.945 103.699 106.666 103.602 104.002C103.591 103.724 103.607 103.447 103.648 103.176L110.711 62.2972C111.153 60.0168 113.525 58.4604 116.33 58.6074Z" fill="#D8D8D8"/>
<path fill-rule="evenodd" clip-rule="evenodd" d="M244.496 116.529L285.57 113.657C287.884 113.495 289.881 115.038 290.3 117.315L297.052 158.136C297.433 160.731 295.886 163.335 293.608 163.953C293.37 164.017 293.129 164.058 292.887 164.075L244.268 167.475C241.957 167.637 239.766 165.633 239.375 162.999C239.334 162.723 239.315 162.447 239.317 162.173L240.322 120.81C240.42 118.497 242.182 116.691 244.496 116.529Z" fill="#9E9E9E"/>
<path fill-rule="evenodd" clip-rule="evenodd" d="M243.325 106.988L284.399 104.115C286.713 103.954 288.709 105.497 289.128 107.773L295.88 148.594C296.261 151.189 294.715 153.793 292.436 154.411C292.198 154.476 291.957 154.517 291.715 154.534L243.096 157.933C240.785 158.095 238.595 156.091 238.204 153.457C238.163 153.182 238.143 152.905 238.145 152.631L239.15 111.268C239.248 108.955 241.011 107.149 243.325 106.988Z" fill="#AFAFAF"/>
<path fill-rule="evenodd" clip-rule="evenodd" d="M241.27 95.1016L283.525 92.1468C285.905 91.9804 287.959 93.5194 288.389 95.7953L295.346 136.602C295.741 139.196 294.144 141.804 291.791 142.427C291.545 142.492 291.296 142.533 291.047 142.551L240.836 146.062C238.45 146.229 236.198 144.229 235.807 141.595C235.766 141.32 235.747 141.043 235.75 140.769L236.961 99.3915C237.07 97.0779 238.889 95.2681 241.27 95.1016Z" fill="#9598B3"/>
<path fill-rule="evenodd" clip-rule="evenodd" d="M239.42 84.4043L282.738 81.3752C285.179 81.2045 287.283 82.7399 287.724 85.0151L294.866 125.809C295.272 128.402 293.63 131.013 291.21 131.641C290.957 131.706 290.701 131.748 290.445 131.766L238.802 135.377C236.347 135.549 234.04 133.553 233.649 130.919C233.608 130.644 233.59 130.367 233.595 130.093L234.99 88.7027C235.109 86.3883 236.98 84.5749 239.42 84.4043Z" fill="#B5B7CE"/>
<path fill-rule="evenodd" clip-rule="evenodd" d="M181.974 106.723H229.249C231.912 106.723 234.075 108.402 234.372 110.702L238.837 151.894C239.065 154.509 237.085 157 234.426 157.457C234.148 157.505 233.869 157.529 233.591 157.529H177.632C174.973 157.529 172.624 155.377 172.387 152.722C172.362 152.445 172.362 152.168 172.386 151.894L176.851 110.702C177.148 108.402 179.311 106.723 181.974 106.723Z" fill="#9E9E9E"/>
<path fill-rule="evenodd" clip-rule="evenodd" d="M181.471 97.1229H228.745C231.409 97.1229 233.572 98.8014 233.869 101.102L238.333 142.294C238.562 144.909 236.582 147.4 233.923 147.857C233.645 147.905 233.366 147.929 233.088 147.929H177.129C174.469 147.929 172.121 145.777 171.884 143.122C171.859 142.844 171.859 142.567 171.883 142.294L176.347 101.102C176.644 98.8014 178.808 97.1229 181.471 97.1229Z" fill="#80839F"/>
<path fill-rule="evenodd" clip-rule="evenodd" d="M180.163 85.1226H228.796C231.536 85.1226 233.765 86.8011 234.075 89.1015L238.776 130.294C239.019 132.909 236.982 135.399 234.237 135.856C233.95 135.904 233.662 135.928 233.374 135.928L176.213 138.056C173.467 138.056 170.419 133.776 170.182 131.122C170.157 130.844 170.157 130.567 170.183 130.294L174.884 89.1015C175.194 86.8011 177.423 85.1226 180.163 85.1226Z" fill="#9598B3"/>
<path fill-rule="evenodd" clip-rule="evenodd" d="M178.985 74.3223H228.842C231.651 74.3223 233.938 76.0008 234.26 78.3012L239.174 119.493C239.431 122.108 237.342 124.599 234.519 125.056C234.224 125.104 233.928 125.128 233.633 125.128H174.194C171.369 125.128 168.887 122.976 168.65 120.321C168.625 120.044 168.626 119.767 168.653 119.493L173.566 78.3012C173.888 76.0008 176.176 74.3223 178.985 74.3223Z" fill="#D8D8D8"/>
<path fill-rule="evenodd" clip-rule="evenodd" d="M94.1902 118.098H94.0442L101.018 159.263C102.845 170.046 110.222 179.005 120.877 181.472C136.689 185.133 163.528 189.537 201.15 189.537C238.772 189.537 265.611 185.133 281.423 181.472C292.078 179.005 299.456 170.046 301.283 159.263L308.256 118.098L308.115 118.098C307.599 127.147 300.993 134.972 291.528 136.309C271.119 139.192 237.759 142.903 201.268 142.903C164.742 142.903 131.264 139.185 110.793 136.3C101.327 134.967 94.7141 127.146 94.1902 118.098Z" fill="#686B89"/>
<rect x="166.319" y="147.6" width="13.212" height="20.4286" rx="6.60598" fill="white"/>
<rect x="223.971" y="147.6" width="13.212" height="20.4286" rx="6.60598" fill="white"/>
<path fill-rule="evenodd" clip-rule="evenodd" d="M234.781 161.419V156.012H226.373V161.419C226.373 168.388 220.727 174.037 213.762 174.037H189.74C182.775 174.037 177.129 168.388 177.129 161.419V156.012H168.721V161.419C168.721 173.033 178.131 182.449 189.74 182.449H213.762C225.37 182.449 234.781 173.033 234.781 161.419Z" fill="url(#paint1_linear_406_1442)"/>
<ellipse cx="172.925" cy="156.613" rx="4.2038" ry="4.20588" fill="#443F60"/>
<ellipse cx="230.577" cy="156.613" rx="4.2038" ry="4.20588" fill="#443F60"/>
<path fill-rule="evenodd" clip-rule="evenodd" d="M96.0462 107.206C96.0462 107.206 87.3858 121.057 88.895 135.939C90.4042 150.821 110.405 134.666 123.189 137.995C106.586 129.33 104.213 115.265 104.213 115.265L96.0462 107.206Z" fill="url(#paint2_linear_406_1442)"/>
<g filter="url(#filter0_d_406_1442)">
<path fill-rule="evenodd" clip-rule="evenodd" d="M239.99 135.222C239.99 135.222 248.746 143.251 251.855 150.965C254.965 158.678 258.807 157.046 269.141 154.034C279.475 151.021 290.209 156.618 294.166 154.034C298.122 151.449 301.023 141.171 294.166 129.835C265.41 133.609 239.99 135.222 239.99 135.222Z" fill="url(#paint3_linear_406_1442)"/>
</g>
<g filter="url(#filter1_d_406_1442)">
<path fill-rule="evenodd" clip-rule="evenodd" d="M129.068 132.94C134.006 132.94 142.618 152.94 150.613 152.796C158.608 152.651 166.294 144.694 176.591 146.638C186.888 148.582 196.41 151.476 200.892 149.057C205.374 146.638 212.15 136.398 207.643 135.965C203.136 135.531 124.129 132.94 129.068 132.94Z" fill="url(#paint4_linear_406_1442)"/>
</g>
<path fill-rule="evenodd" clip-rule="evenodd" d="M104.995 67.2473C107.569 58.5973 115.522 52.6672 124.547 52.6672H277.679C286.739 52.6672 294.714 58.6433 297.258 67.3394L306.293 98.2209C310.101 111.238 301.771 124.57 288.313 126.26C267.362 128.892 235.495 131.978 201.268 131.978C166.726 131.978 134.508 128.432 113.502 125.446C100.222 123.558 92.1769 110.309 96.0034 97.454L104.995 67.2473Z" fill="#302C48"/>
<path fill-rule="evenodd" clip-rule="evenodd" d="M105.255 61.728C107.663 52.8346 115.733 46.6588 124.946 46.6588H277.354C286.568 46.6588 294.638 52.8346 297.046 61.728L306.294 95.8892C309.461 107.591 301.77 119.369 289.725 120.743C269.188 123.085 236.705 125.97 201.268 125.97C165.792 125.97 133.192 123.079 112.591 120.735C100.54 119.364 92.842 107.581 96.0114 95.8735L105.255 61.728Z" fill="url(#paint5_linear_406_1442)"/>
<path fill-rule="evenodd" clip-rule="evenodd" d="M151.268 46.7101L136.116 123.389L151.906 124.985L161.259 46.7101H151.268Z" fill="url(#paint6_linear_406_1442)"/>
<path d="M139.748 120.159L153.748 46.1588" stroke="#686B89" stroke-linecap="round" stroke-linejoin="round" stroke-dasharray="2 5"/>
<path d="M149.748 121.159L159.748 46.1588" stroke="#686B89" stroke-linecap="round" stroke-linejoin="round" stroke-dasharray="2 5"/>
<path fill-rule="evenodd" clip-rule="evenodd" d="M249.228 46.7101L264.38 123.389L248.591 124.985L239.238 46.7101H249.228Z" fill="url(#paint7_linear_406_1442)"/>
<path d="M260.748 120.159L246.748 46.1588" stroke="#686B89" stroke-linecap="round" stroke-linejoin="round" stroke-dasharray="2 5"/>
<path d="M250.748 121.159L240.748 46.1588" stroke="#686B89" stroke-linecap="round" stroke-linejoin="round" stroke-dasharray="2 5"/>
<g style="mix-blend-mode:multiply" opacity="0.256171">
<path fill-rule="evenodd" clip-rule="evenodd" d="M222.919 47.4038C197.194 46.9359 218.842 104.076 302.678 112.467C320.189 107.178 298.488 80.6192 298.488 80.6192C298.488 80.6192 248.644 47.8717 222.919 47.4038Z" fill="#686B89"/>
</g>
<ellipse cx="288.258" cy="74.8082" rx="78.8688" ry="30.1705" transform="rotate(25 288.258 74.8082)" fill="url(#paint8_linear_406_1442)"/>
<path fill-rule="evenodd" clip-rule="evenodd" d="M283.919 27.7803C289.177 19.2445 300.163 16.2634 309.015 20.9702L325.724 29.8541C335.407 35.003 338.733 47.2584 332.98 56.596L318.362 80.3246C318.362 80.3246 301.071 79.6607 288.596 73.0276C276.121 66.3945 268.034 53.5647 268.034 53.5647L283.919 27.7803Z" fill="url(#paint9_linear_406_1442)"/>
<mask id="mask1_406_1442" style="mask-type:alpha" maskUnits="userSpaceOnUse" x="268" y="18" width="68" height="63">
<path fill-rule="evenodd" clip-rule="evenodd" d="M283.919 27.7803C289.177 19.2445 300.163 16.2634 309.015 20.9702L325.724 29.8541C335.407 35.003 338.733 47.2584 332.98 56.596L318.362 80.3246C318.362 80.3246 301.071 79.6607 288.596 73.0276C276.121 66.3945 268.034 53.5647 268.034 53.5647L283.919 27.7803Z" fill="white"/>
</mask>
<g mask="url(#mask1_406_1442)">
<path fill-rule="evenodd" clip-rule="evenodd" d="M272.643 44.0987C272.643 44.0987 281.301 58.0576 295.162 65.1204C309.024 72.1833 327.886 72.2461 327.886 72.2461L316.53 87.7202L261.287 59.5728L272.643 44.0987Z" fill="#F92E4B"/>
</g>
<path fill-rule="evenodd" clip-rule="evenodd" d="M329.99 228.846C338.804 229.772 346.234 227.814 346.585 224.472C346.661 223.748 346.399 223.02 345.853 222.313C351.694 222.613 355.863 222.301 355.954 221.434C356.074 220.289 349.027 218.61 340.213 217.683C338.235 217.475 336.337 217.323 334.581 217.225C333.515 217.025 332.405 216.863 331.262 216.742C322.448 215.816 315.019 217.775 314.667 221.117C314.316 224.459 321.176 227.92 329.99 228.846Z" fill="url(#paint10_linear_406_1442)" fill-opacity="0.5" style="mix-blend-mode:multiply"/>
<ellipse cx="286.243" cy="233.191" rx="16.0467" ry="6.08511" transform="rotate(6 286.243 233.191)" fill="url(#paint11_linear_406_1442)" fill-opacity="0.5" style="mix-blend-mode:multiply"/>
<path d="M349.915 205.099L279.262 221.6" stroke="#302C48" stroke-width="4.4" stroke-linecap="square"/>
<path d="M312.525 214.583C319.224 213.27 327.556 209.789 332.645 210.446C337.734 211.103 351.755 220.097 355.239 220.586" stroke="#302C48" stroke-width="2.64" stroke-linecap="round" stroke-linejoin="round"/>
<path d="M283.154 235.505C287.441 230.194 291.587 222.172 295.908 219.404C300.228 216.636 316.75 214.513 319.733 212.649" stroke="#302C48" stroke-width="2.64" stroke-linecap="round" stroke-linejoin="round"/>
<path fill-rule="evenodd" clip-rule="evenodd" d="M310.056 212.515L320.241 210.149L322.175 213.789L309.647 216.407L310.056 212.515Z" fill="#302C48"/>
<ellipse opacity="0.9" cx="296.134" cy="221.552" rx="16.4677" ry="16.4045" transform="rotate(-21 296.134 221.552)" fill="url(#paint12_linear_406_1442)"/>
<ellipse opacity="0.9" rx="15.5775" ry="15.5178" transform="matrix(-1 0 0 1 335.491 213.276)" fill="url(#paint13_linear_406_1442)"/>
<path d="M293.123 205.112L333.171 197.758" stroke="#302C48" stroke-width="1.1"/>
<path d="M319.274 214.167C319.726 209.863 321.936 199.839 333.685 198.076C345.434 196.312 350.759 206.719 350.759 206.719" stroke="#302C48" stroke-width="1.76"/>
<path d="M278.51 221.965C278.812 217.648 280.738 207.557 293.086 205.432C305.434 203.306 311.49 213.546 311.49 213.546" stroke="#302C48" stroke-width="1.76"/>
<defs>
<filter id="filter0_d_406_1442" x="235.99" y="129.835" width="62.3011" height="33.7045" filterUnits="userSpaceOnUse" color-interpolation-filters="sRGB">
<feFlood flood-opacity="0" result="BackgroundImageFix"/>
<feColorMatrix in="SourceAlpha" type="matrix" values="0 0 0 0 0 0 0 0 0 0 0 0 0 0 0 0 0 0 127 0" result="hardAlpha"/>
<feOffset dx="-4" dy="7"/>
<feColorMatrix type="matrix" values="0 0 0 0 0.408213 0 0 0 0 0.421409 0 0 0 0 0.537707 0 0 0 0.25034 0"/>
<feBlend mode="normal" in2="BackgroundImageFix" result="effect1_dropShadow_406_1442"/>
<feBlend mode="normal" in="SourceGraphic" in2="effect1_dropShadow_406_1442" result="shape"/>
</filter>
<filter id="filter1_d_406_1442" x="124.845" y="132.94" width="84.2821" height="25.8565" filterUnits="userSpaceOnUse" color-interpolation-filters="sRGB">
<feFlood flood-opacity="0" result="BackgroundImageFix"/>
<feColorMatrix in="SourceAlpha" type="matrix" values="0 0 0 0 0 0 0 0 0 0 0 0 0 0 0 0 0 0 127 0" result="hardAlpha"/>
<feOffset dx="-4" dy="6"/>
<feColorMatrix type="matrix" values="0 0 0 0 0.408213 0 0 0 0 0.421409 0 0 0 0 0.537707 0 0 0 0.25034 0"/>
<feBlend mode="normal" in2="BackgroundImageFix" result="effect1_dropShadow_406_1442"/>
<feBlend mode="normal" in="SourceGraphic" in2="effect1_dropShadow_406_1442" result="shape"/>
</filter>
<linearGradient id="paint0_linear_406_1442" x1="40.2574" y1="133.257" x2="147.135" y2="90.2403" gradientUnits="userSpaceOnUse">
<stop stop-color="#AAABC9" stop-opacity="0.01"/>
<stop offset="1" stop-color="#0E154B"/>
</linearGradient>
<linearGradient id="paint1_linear_406_1442" x1="154.001" y1="134.9" x2="154.001" y2="182.449" gradientUnits="userSpaceOnUse">
<stop stop-color="#5E587E"/>
<stop offset="1" stop-color="#302C48"/>
</linearGradient>
<linearGradient id="paint2_linear_406_1442" x1="104.469" y1="117.725" x2="90.4224" y2="128.809" gradientUnits="userSpaceOnUse">
<stop stop-color="#E3E7F3"/>
<stop offset="1" stop-color="white"/>
</linearGradient>
<linearGradient id="paint3_linear_406_1442" x1="262.094" y1="137.318" x2="263.101" y2="149.529" gradientUnits="userSpaceOnUse">
<stop stop-color="#E3E7F3"/>
<stop offset="1" stop-color="white"/>
</linearGradient>
<linearGradient id="paint4_linear_406_1442" x1="125.952" y1="132.94" x2="125.952" y2="149.644" gradientUnits="userSpaceOnUse">
<stop stop-color="#E3E7F3"/>
<stop offset="1" stop-color="white"/>
</linearGradient>
<linearGradient id="paint5_linear_406_1442" x1="235.951" y1="53.8573" x2="203.76" y2="121.45" gradientUnits="userSpaceOnUse">
<stop stop-color="#5C6080"/>
<stop offset="1" stop-color="#686B89"/>
</linearGradient>
<linearGradient id="paint6_linear_406_1442" x1="161.259" y1="124.985" x2="161.259" y2="46.7101" gradientUnits="userSpaceOnUse">
<stop stop-color="#3B3955"/>
<stop offset="1" stop-color="#302C48"/>
</linearGradient>
<linearGradient id="paint7_linear_406_1442" x1="239.238" y1="124.985" x2="239.238" y2="46.7101" gradientUnits="userSpaceOnUse">
<stop stop-color="#3B3955"/>
<stop offset="1" stop-color="#302C48"/>
</linearGradient>
<linearGradient id="paint8_linear_406_1442" x1="292.485" y1="48.6011" x2="274.604" y2="108.509" gradientUnits="userSpaceOnUse">
<stop stop-color="#F8F9FA"/>
<stop offset="1" stop-color="#EFF1F3"/>
</linearGradient>
<linearGradient id="paint9_linear_406_1442" x1="306.507" y1="27.382" x2="275.491" y2="51.879" gradientUnits="userSpaceOnUse">
<stop stop-color="#F8F9FA"/>
<stop offset="1" stop-color="#DDE2E7"/>
</linearGradient>
<linearGradient id="paint10_linear_406_1442" x1="303.061" y1="225.626" x2="341.33" y2="229.649" gradientUnits="userSpaceOnUse">
<stop stop-color="#AAABC9" stop-opacity="0.01"/>
<stop offset="1" stop-color="#0E154B"/>
</linearGradient>
<linearGradient id="paint11_linear_406_1442" x1="261.55" y1="238.889" x2="291.602" y2="238.889" gradientUnits="userSpaceOnUse">
<stop stop-color="#AAABC9" stop-opacity="0.01"/>
<stop offset="1" stop-color="#0E154B"/>
</linearGradient>
<linearGradient id="paint12_linear_406_1442" x1="307.206" y1="237.957" x2="307.206" y2="215.896" gradientUnits="userSpaceOnUse">
<stop stop-color="#A1A5BE"/>
<stop offset="1" stop-color="#686B89"/>
</linearGradient>
<linearGradient id="paint13_linear_406_1442" x1="26.0517" y1="31.0356" x2="26.0517" y2="10.1676" gradientUnits="userSpaceOnUse">
<stop stop-color="#A1A5BE"/>
<stop offset="1" stop-color="#686B89"/>
</linearGradient>
</defs>
</svg>
