<svg width="852" height="705" viewBox="0 0 852 705" fill="none" xmlns="http://www.w3.org/2000/svg">
<g id="All Done">
<path id="Fill 1" fill-rule="evenodd" clip-rule="evenodd" d="M564.632 199.614C700.055 199.614 809.852 309.414 809.852 444.834C809.852 580.254 700.055 690.054 564.632 690.054C429.185 690.054 319.412 580.254 319.412 444.834C319.412 309.414 429.185 199.614 564.632 199.614ZM706.685 452.154C733.415 443.484 748.022 414.774 739.352 388.044C730.685 361.344 701.972 346.704 675.242 355.404C648.545 364.074 633.905 392.784 642.602 419.484C651.272 446.214 679.982 460.854 706.685 452.154ZM683.852 522.414C667.352 499.674 635.555 494.634 612.815 511.164C590.072 527.664 585.035 559.494 601.565 582.204C618.065 604.944 649.892 609.984 672.602 593.454C695.342 576.954 700.382 545.124 683.852 522.414ZM513.752 311.994C513.752 340.074 536.522 362.844 564.632 362.844C592.712 362.844 615.482 340.074 615.482 311.994C615.482 283.884 592.712 261.114 564.632 261.114C536.522 261.114 513.752 283.884 513.752 311.994ZM527.702 582.204C544.202 559.494 539.165 527.664 516.425 511.164C493.712 494.634 461.882 499.674 445.382 522.414C428.852 545.124 433.892 576.954 456.632 593.454C479.372 609.984 511.175 604.944 527.702 582.204ZM389.882 388.044C381.212 414.774 395.822 443.484 422.552 452.154C449.282 460.854 477.962 446.214 486.665 419.484C495.332 392.784 480.722 364.074 453.995 355.404C427.262 346.704 398.582 361.344 389.882 388.044Z" fill="#FEFEFE"/>
<path id="Fill 3" fill-rule="evenodd" clip-rule="evenodd" d="M715.842 444.831C715.842 528.345 648.141 596.046 564.624 596.046C481.11 596.046 413.406 528.345 413.406 444.831C413.406 361.317 481.11 293.613 564.624 293.613C648.141 293.613 715.842 361.317 715.842 444.831Z" fill="#E8E9EB"/>
<path id="Fill 5" fill-rule="evenodd" clip-rule="evenodd" d="M705.342 444.831C705.342 522.546 642.342 585.549 564.624 585.549C486.906 585.549 423.906 522.546 423.906 444.831C423.906 367.113 486.906 304.113 564.624 304.113C642.342 304.113 705.342 367.113 705.342 444.831Z" fill="#2C2C36"/>
<path id="Fill 7" fill-rule="evenodd" clip-rule="evenodd" d="M706.684 452.152C679.984 460.853 651.271 446.216 642.604 419.482C633.904 392.782 648.544 364.072 675.244 355.402C701.974 346.703 730.684 361.343 739.354 388.042C748.021 414.772 733.414 443.482 706.684 452.152ZM672.604 593.455C649.891 609.982 618.064 604.945 601.564 582.205C585.034 559.492 590.074 527.662 612.814 511.162C635.554 494.633 667.354 499.673 683.854 522.412C700.381 545.122 695.344 576.955 672.604 593.455ZM513.751 311.992C513.751 283.882 536.521 261.113 564.631 261.113C592.714 261.113 615.484 283.882 615.484 311.992C615.484 340.072 592.714 362.843 564.631 362.843C536.521 362.843 513.751 340.072 513.751 311.992ZM527.704 582.205C511.174 604.945 479.371 609.982 456.634 593.455C433.894 576.955 428.854 545.122 445.384 522.412C461.884 499.673 493.714 494.633 516.424 511.162C539.164 527.662 544.204 559.492 527.704 582.205ZM389.884 388.042C398.584 361.343 427.264 346.703 453.994 355.402C480.724 364.072 495.334 392.782 486.664 419.482C477.964 446.216 449.284 460.853 422.554 452.152C395.824 443.482 381.214 414.772 389.884 388.042ZM564.631 212.812C436.474 212.812 332.584 316.673 332.584 444.836C332.584 572.966 436.474 676.852 564.631 676.852C692.761 676.852 796.654 572.966 796.654 444.836C796.654 316.673 692.761 212.812 564.631 212.812Z" fill="#E8E9EB"/>
<path id="Fill 9" fill-rule="evenodd" clip-rule="evenodd" d="M707.276 311.794C706.199 311.47 705.395 310.822 704.87 309.85L677.237 260.686C676.922 260.23 676.511 259.519 676.01 258.55C675.506 257.587 674.762 255.88 673.775 253.435C672.788 250.987 671.981 248.539 671.357 246.088C670.733 243.637 670.376 240.793 670.286 237.55C670.193 234.307 670.565 231.295 671.399 228.514C674.138 219.373 678.917 213.022 685.736 209.452C692.558 205.882 700.619 205.492 709.925 208.282C712.499 209.053 714.992 210.289 717.404 211.984C719.816 213.679 721.949 215.632 723.797 217.84C725.648 220.045 727.205 222.064 728.468 223.891C729.731 225.718 730.886 227.605 731.933 229.546C733.877 228.499 735.878 227.56 737.939 226.732C739.997 225.901 742.409 225.07 745.169 224.245C747.929 223.42 750.782 222.964 753.728 222.874C756.677 222.784 759.437 223.126 762.011 223.897C771.317 226.687 777.836 231.448 781.568 238.18C785.297 244.912 785.795 252.847 783.056 261.985C780.302 271.165 772.742 279.085 760.379 285.745L710.354 311.494C709.382 312.019 708.356 312.118 707.276 311.794Z" fill="url(#paint0_linear_410_1613)"/>
<path id="Fill 11" fill-rule="evenodd" clip-rule="evenodd" d="M835.535 180.753C835.133 180.828 834.764 180.753 834.437 180.522L817.337 169.2C817.157 169.104 816.905 168.942 816.584 168.714C816.26 168.486 815.735 168.057 815.012 167.43C814.286 166.8 813.617 166.143 813.011 165.453C812.402 164.763 811.814 163.902 811.247 162.87C810.68 161.835 810.299 160.8 810.107 159.759C809.477 156.348 809.972 153.498 811.586 151.212C813.2 148.926 815.741 147.462 819.218 146.82C820.178 146.643 821.189 146.628 822.251 146.778C823.313 146.925 824.327 147.204 825.29 147.612C826.256 148.017 827.096 148.413 827.807 148.794C828.518 149.175 829.205 149.595 829.865 150.048C830.321 149.388 830.813 148.752 831.344 148.14C831.869 147.531 832.511 146.862 833.27 146.136C834.026 145.413 834.872 144.792 835.811 144.273C836.75 143.754 837.701 143.406 838.661 143.229C842.135 142.587 845.033 143.046 847.358 144.606C849.683 146.166 851.159 148.65 851.789 152.064C852.422 155.49 851.291 159.306 848.396 163.512L836.48 180.144C836.255 180.477 835.94 180.678 835.535 180.753Z" fill="url(#paint1_linear_410_1613)"/>
<path id="Fill 13" fill-rule="evenodd" clip-rule="evenodd" d="M605.677 444.83C605.677 467.504 587.296 485.882 564.622 485.882C541.951 485.882 523.573 467.504 523.573 444.83C523.573 422.156 541.951 403.778 564.622 403.778C587.296 403.778 605.677 422.156 605.677 444.83Z" fill="#AFB0B5"/>
<path id="Fill 15" fill-rule="evenodd" clip-rule="evenodd" d="M593.653 444.833C593.653 460.865 580.657 473.861 564.622 473.861C548.59 473.861 535.594 460.865 535.594 444.833C535.594 428.801 548.59 415.805 564.622 415.805C580.657 415.805 593.653 428.801 593.653 444.833Z" fill="#1A1A24"/>
<path id="Fill 17" fill-rule="evenodd" clip-rule="evenodd" d="M239.211 439.377C235.275 453.561 220.587 461.865 206.406 457.929C192.225 453.993 183.918 439.305 187.854 425.124C191.79 410.94 206.478 402.636 220.659 406.572C234.843 410.508 243.147 425.196 239.211 439.377Z" fill="#FBCF0A"/>
<path id="Fill 19" fill-rule="evenodd" clip-rule="evenodd" d="M201.978 429.041C198.042 443.222 183.354 451.529 169.173 447.593C154.992 443.657 146.685 428.969 150.621 414.788C154.557 400.604 169.245 392.3 183.426 396.236C197.61 400.172 205.914 414.86 201.978 429.041Z" fill="#FBE381"/>
<path id="Fill 21" fill-rule="evenodd" clip-rule="evenodd" d="M296.795 432.662C292.859 446.843 278.171 455.15 263.99 451.214C249.809 447.278 241.502 432.59 245.438 418.409C249.374 404.225 264.062 395.921 278.243 399.857C292.424 403.793 300.731 418.481 296.795 432.662Z" fill="#FBCF0A"/>
<path id="Fill 23" fill-rule="evenodd" clip-rule="evenodd" d="M259.562 422.329C255.626 436.513 240.938 444.817 226.757 440.881C212.576 436.945 204.269 422.257 208.205 408.076C212.141 393.892 226.829 385.588 241.01 389.524C255.191 393.46 263.498 408.148 259.562 422.329Z" fill="#FBE381"/>
<path id="Fill 25" fill-rule="evenodd" clip-rule="evenodd" d="M247.687 376.286C252.148 362.261 267.133 354.509 281.158 358.97C295.186 363.431 302.938 378.416 298.477 392.441C294.016 406.469 279.028 414.221 265.003 409.76C250.978 405.299 243.226 390.311 247.687 376.286Z" fill="#FBCF0A"/>
<path id="Fill 27" fill-rule="evenodd" clip-rule="evenodd" d="M180.042 376.286C184.503 362.261 199.488 354.509 213.516 358.97C227.541 363.431 235.293 378.416 230.832 392.441C226.371 406.469 211.386 414.221 197.358 409.76C183.333 405.299 175.581 390.311 180.042 376.286Z" fill="#FBCF0A"/>
<path id="Fill 29" fill-rule="evenodd" clip-rule="evenodd" d="M337.174 334.687C341.635 320.662 356.62 312.907 370.648 317.368C384.673 321.829 392.425 336.817 387.964 350.842C383.503 364.867 368.518 372.622 354.49 368.158C340.468 363.697 332.713 348.712 337.174 334.687Z" fill="#FBCF0A"/>
<path id="Fill 31" fill-rule="evenodd" clip-rule="evenodd" d="M284.508 387.997C288.969 373.972 303.957 366.217 317.982 370.681C332.007 375.139 339.759 390.127 335.298 404.152C330.837 418.177 315.852 425.932 301.827 421.471C287.802 417.007 280.047 402.022 284.508 387.997Z" fill="#FBE381"/>
<path id="Fill 33" fill-rule="evenodd" clip-rule="evenodd" d="M292.699 424.878C297.16 410.853 312.145 403.101 326.173 407.562C340.198 412.02 347.95 427.008 343.489 441.033C339.028 455.058 324.043 462.813 310.015 458.352C295.99 453.888 288.238 438.903 292.699 424.878Z" fill="#FBCF0A"/>
<path id="Fill 35" fill-rule="evenodd" clip-rule="evenodd" d="M329.522 436.591C333.983 422.566 348.968 414.814 362.993 419.275C377.021 423.736 384.773 438.721 380.312 452.749C375.851 466.774 360.866 474.529 346.838 470.065C332.813 465.604 325.061 450.619 329.522 436.591Z" fill="#FBE381"/>
<path id="Fill 37" fill-rule="evenodd" clip-rule="evenodd" d="M294.669 383.316C280.527 379.242 272.364 364.473 276.438 350.331C280.515 336.189 295.281 328.026 309.423 332.1C323.565 336.177 331.728 350.943 327.654 365.085C323.58 379.23 308.811 387.39 294.669 383.316Z" fill="#FBCF0A"/>
<path id="Fill 39" fill-rule="evenodd" clip-rule="evenodd" d="M344.689 438.653C330.547 434.579 322.384 419.81 326.461 405.668C330.535 391.526 345.304 383.363 359.446 387.44C373.588 391.514 381.751 406.28 377.674 420.425C373.6 434.567 358.831 442.727 344.689 438.653Z" fill="#FBCF0A"/>
<path id="Fill 41" fill-rule="evenodd" clip-rule="evenodd" d="M374.195 398.152C360.053 394.078 351.89 379.309 355.964 365.167C360.041 351.025 374.807 342.862 388.949 346.936C403.094 351.013 411.254 365.779 407.18 379.921C403.106 394.066 388.337 402.226 374.195 398.152Z" fill="#FBCF0A"/>
<path id="Fill 43" fill-rule="evenodd" clip-rule="evenodd" d="M383.501 440.809C369.359 436.735 361.196 421.966 365.273 407.824C369.347 393.682 384.116 385.519 398.258 389.596C412.4 393.67 420.563 408.436 416.486 422.581C412.412 436.723 397.643 444.883 383.501 440.809Z" fill="#FBE381"/>
<path id="Fill 45" fill-rule="evenodd" clip-rule="evenodd" d="M429.677 391.582C444.392 391.783 456.161 403.879 455.957 418.594C455.756 433.312 443.663 445.078 428.945 444.877C414.23 444.673 402.464 432.58 402.665 417.865C402.866 403.147 414.959 391.381 429.677 391.582Z" fill="#FBCF0A"/>
<path id="Fill 47" fill-rule="evenodd" clip-rule="evenodd" d="M409.452 352.886C424.167 353.087 435.936 365.183 435.732 379.898C435.531 394.616 423.438 406.382 408.72 406.181C394.005 405.977 382.239 393.884 382.44 379.169C382.641 364.451 394.737 352.685 409.452 352.886Z" fill="#FBE381"/>
<path id="Fill 49" fill-rule="evenodd" clip-rule="evenodd" d="M328.536 395.027C314.394 390.953 306.231 376.184 310.305 362.042C314.382 347.9 329.151 339.737 343.29 343.814C357.435 347.888 365.598 362.654 361.521 376.799C357.447 390.941 342.678 399.101 328.536 395.027Z" fill="#FBE381"/>
<path id="Fill 51" fill-rule="evenodd" clip-rule="evenodd" d="M230.618 395.027C216.476 390.953 208.313 376.184 212.387 362.042C216.464 347.9 231.233 339.737 245.372 343.814C259.517 347.888 267.677 362.654 263.603 376.799C259.529 390.941 244.76 399.101 230.618 395.027Z" fill="#FBE381"/>
<path id="Fill 53" fill-rule="evenodd" clip-rule="evenodd" d="M254.018 368.37C239.876 364.296 231.713 349.527 235.79 335.385C239.864 321.243 254.633 313.08 268.772 317.157C282.917 321.231 291.08 335.997 287.003 350.142C282.929 364.284 268.16 372.444 254.018 368.37Z" fill="#FBE381"/>
<path id="Fill 55" fill-rule="evenodd" clip-rule="evenodd" d="M431.637 464.911V464.938L427.977 481.459L384.867 676.309L383.376 683.032C381.996 689.224 376.479 693.67 370.119 693.67H213.174C207.039 693.67 201.666 689.563 200.088 683.623L198.12 676.336V676.309L146.142 484.243L140.907 464.911V464.881C141.387 446.704 155.823 432.097 173.58 432.097C185.541 432.097 195.951 438.736 201.693 448.588C201.72 448.645 201.75 448.702 201.777 448.756C207.462 438.823 217.932 432.097 229.947 432.097C241.935 432.097 252.405 438.823 258.117 448.756C258.117 448.756 258.117 448.726 258.144 448.726C263.829 438.823 274.269 432.097 286.287 432.097C298.107 432.097 308.46 438.625 314.202 448.336C314.286 448.474 314.373 448.615 314.454 448.756C320.139 438.823 330.609 432.097 342.627 432.097C354.642 432.097 365.109 438.823 370.794 448.756C370.851 448.672 370.908 448.588 370.962 448.504C376.647 438.712 387.06 432.097 398.964 432.097C416.721 432.097 431.157 446.728 431.637 464.911Z" fill="#F1F2F6"/>
<path id="Fill 57" fill-rule="evenodd" clip-rule="evenodd" d="M266.701 693.67H230.314L228.289 676.309L201.694 448.588C201.721 448.645 201.751 448.702 201.778 448.756C207.463 438.823 217.933 432.097 229.948 432.097C241.936 432.097 252.406 438.823 258.118 448.756C258.118 448.756 258.118 448.729 258.145 448.729L266.08 676.309L266.701 693.67Z" fill="url(#paint2_linear_410_1613)"/>
<path id="Fill 59" fill-rule="evenodd" clip-rule="evenodd" d="M370.964 448.507L343.751 676.312L341.669 693.673H302.045L302.918 676.312L314.204 448.336C314.288 448.477 314.372 448.618 314.456 448.759C320.141 438.823 330.611 432.1 342.626 432.1C354.644 432.1 365.111 438.823 370.796 448.759C370.853 448.675 370.907 448.588 370.964 448.507Z" fill="url(#paint3_linear_410_1613)"/>
<path id="Fill 61" fill-rule="evenodd" clip-rule="evenodd" d="M384.866 676.31L383.375 683.033C381.995 689.228 376.481 693.671 370.118 693.671H213.176C207.041 693.671 201.665 689.564 200.09 683.624L198.119 676.337V676.31H384.866Z" fill="#DCDCDC"/>
<path id="Fill 63" fill-rule="evenodd" clip-rule="evenodd" d="M237.997 676.31C237.997 691.853 225.397 704.45 209.854 704.45C194.311 704.45 181.714 691.853 181.714 676.31C181.714 660.767 194.311 648.167 209.854 648.167C225.397 648.167 237.997 660.767 237.997 676.31Z" fill="#FBCF0A"/>
<path id="Fill 65" fill-rule="evenodd" clip-rule="evenodd" d="M197.191 676.31C197.191 691.853 184.591 704.45 169.051 704.45C153.508 704.45 140.908 691.853 140.908 676.31C140.908 660.767 153.508 648.167 169.051 648.167C184.591 648.167 197.191 660.767 197.191 676.31Z" fill="#FBE381"/>
<path id="Fill 67" fill-rule="evenodd" clip-rule="evenodd" d="M532.546 241.741L469.783 366.634C467.812 370.558 463.012 372.146 459.091 370.174C455.17 368.203 453.553 363.391 455.527 359.47L518.365 234.424C520.372 230.617 525.133 229.102 529.006 231.049C530.968 232.033 532.351 233.737 532.987 235.663C533.188 236.266 533.326 236.935 533.35 237.577C533.473 238.96 533.218 240.409 532.546 241.741Z" fill="url(#paint4_linear_410_1613)"/>
<path id="Fill 69" fill-rule="evenodd" clip-rule="evenodd" d="M532.546 241.742L529.465 247.877L513.31 244.484L518.365 234.425L533.35 237.578C533.473 238.961 533.218 240.41 532.546 241.742Z" fill="#FEFEFE"/>
<path id="Fill 71" fill-rule="evenodd" clip-rule="evenodd" d="M525.257 256.251L520.199 266.31L504.05 262.917L509.102 252.858L525.257 256.251Z" fill="#FEFEFE"/>
<path id="Fill 73" fill-rule="evenodd" clip-rule="evenodd" d="M515.993 274.682L510.938 284.74L494.774 281.371L499.826 271.312L515.993 274.682Z" fill="#FEFEFE"/>
<path id="Fill 75" fill-rule="evenodd" clip-rule="evenodd" d="M506.718 293.139L501.663 303.198L485.514 299.805L490.566 289.746L506.718 293.139Z" fill="#FEFEFE"/>
<path id="Fill 77" fill-rule="evenodd" clip-rule="evenodd" d="M497.457 311.57L492.399 321.629L476.25 318.236L481.302 308.177L497.457 311.57Z" fill="#FEFEFE"/>
<path id="Fill 79" fill-rule="evenodd" clip-rule="evenodd" d="M488.194 330L483.139 340.059L466.975 336.69L472.03 326.631L488.194 330Z" fill="#FEFEFE"/>
<path id="Fill 81" fill-rule="evenodd" clip-rule="evenodd" d="M478.918 348.457L473.863 358.516L457.711 355.123L462.766 345.064L478.918 348.457Z" fill="#FEFEFE"/>
<path id="Fill 83" fill-rule="evenodd" clip-rule="evenodd" d="M538.4 696.991H410.702C403.079 696.991 396.785 691.027 396.377 683.416L378.815 356.479H572.99L552.716 683.533C552.248 691.096 545.978 696.991 538.4 696.991Z" fill="url(#paint5_linear_410_1613)"/>
<path id="Fill 85" fill-rule="evenodd" clip-rule="evenodd" d="M583.543 356.479H368.26C365.284 356.479 362.866 354.064 362.866 351.085C362.866 348.106 365.284 345.691 368.26 345.691H583.543C586.522 345.691 588.937 348.106 588.937 351.085C588.937 354.064 586.522 356.479 583.543 356.479Z" fill="#E8E9EB"/>
<path id="Fill 87" fill-rule="evenodd" clip-rule="evenodd" d="M568.066 345.692H383.74C380.761 345.692 378.346 343.277 378.346 340.298C378.346 337.319 380.761 334.904 383.74 334.904H568.066C571.042 334.904 573.46 337.319 573.46 340.298C573.46 343.277 571.042 345.692 568.066 345.692Z" fill="#FEFEFE"/>
<mask id="mask0_410_1613" style="mask-type:alpha" maskUnits="userSpaceOnUse" x="0" y="0" width="852" height="705">
<path id="Clip 90" fill-rule="evenodd" clip-rule="evenodd" d="M0.0406494 704.45H851.96V0.550781H0.0406494V704.45Z" fill="white"/>
</mask>
<g mask="url(#mask0_410_1613)">
<path id="Fill 89" fill-rule="evenodd" clip-rule="evenodd" d="M425.561 696.988H455.579V356.476H425.561V696.988Z" fill="white" fill-opacity="0.5"/>
<path id="Fill 91" fill-rule="evenodd" clip-rule="evenodd" d="M494.039 696.988H524.057V356.476H494.039V696.988Z" fill="white" fill-opacity="0.5"/>
<path id="Fill 92" fill-rule="evenodd" clip-rule="evenodd" d="M537.761 494.802C550.793 520.047 533.66 554.805 499.496 572.442C465.329 590.076 427.073 583.908 414.041 558.663C401.012 533.418 418.142 498.657 452.309 481.023C486.473 463.389 524.732 469.557 537.761 494.802Z" fill="url(#paint6_linear_410_1613)"/>
<path id="Fill 93" fill-rule="evenodd" clip-rule="evenodd" d="M530.331 498.639C541.794 520.851 526.722 551.436 496.659 566.952C466.599 582.468 432.939 577.041 421.473 554.829C410.01 532.617 425.082 502.035 455.142 486.516C485.202 471 518.865 476.43 530.331 498.639Z" fill="#FCFDFB"/>
<path id="Fill 94" fill-rule="evenodd" clip-rule="evenodd" d="M442.701 95.4185C429.186 88.8665 418.23 78.0095 411.558 64.5545L406.128 53.6045L401.832 62.8925C395.133 77.3705 383.541 89.0255 369.093 95.7935L359.388 100.347L369.405 105.381C381.45 111.435 391.416 120.945 398.028 132.696L406.128 147.087L412.35 135.318C418.548 123.6 428.049 113.955 439.674 107.58L452.868 100.347L442.701 95.4185Z" fill="#E8E9EB"/>
<path id="Fill 95" fill-rule="evenodd" clip-rule="evenodd" d="M478.819 13.5738C474.61 11.5338 471.196 8.14978 469.12 3.95878L467.428 0.550781L466.09 3.44278C464.005 7.95178 460.393 11.5818 455.893 13.6908L452.869 15.1098L455.989 16.6758C459.742 18.5628 462.847 21.5238 464.905 25.1838L467.428 29.6658L469.366 26.0028C471.295 22.3518 474.256 19.3458 477.877 17.3628L481.987 15.1098L478.819 13.5738Z" fill="#E8E9EB"/>
<path id="Fill 96" fill-rule="evenodd" clip-rule="evenodd" d="M370.778 48.9732C366.569 46.9332 363.155 43.5522 361.079 39.3612L359.387 35.9502L358.049 38.8422C355.964 43.3512 352.352 46.9812 347.852 49.0902L344.828 50.5092L347.951 52.0782C351.701 53.9622 354.806 56.9232 356.864 60.5832L359.387 65.0652L361.325 61.4022C363.257 57.7512 366.215 54.7452 369.836 52.7622L373.946 50.5092L370.778 48.9732Z" fill="#E8E9EB"/>
<path id="Stroke 97" d="M374.822 140.259C344.828 177.705 368.15 204.93 389.225 212.814" stroke="#E8E9EB"/>
<path id="Fill 98" fill-rule="evenodd" clip-rule="evenodd" d="M56.6406 356.861C49.8366 348.167 46.1136 337.457 46.0596 326.414L46.0146 317.429L40.1765 322.172C31.0716 329.564 19.6505 333.509 7.92355 333.308L0.0395508 333.173L5.02555 339.737C11.0226 347.63 14.5266 357.131 15.0936 367.028L15.7866 379.148L23.7006 373.391C31.5816 367.658 40.9715 364.361 50.7095 363.914L61.7586 363.404L56.6406 356.861Z" fill="url(#paint7_linear_410_1613)"/>
<path id="Fill 99" fill-rule="evenodd" clip-rule="evenodd" d="M106.951 314.506C104.83 311.797 103.672 308.461 103.654 305.023L103.642 302.224L101.824 303.7C98.9855 306.004 95.4305 307.231 91.7765 307.171L89.3225 307.129L90.8765 309.172C92.7425 311.632 93.8345 314.59 94.0115 317.671L94.2245 321.445L96.6905 319.654C99.1445 317.869 102.073 316.84 105.103 316.702L108.544 316.543L106.951 314.506Z" fill="url(#paint8_linear_410_1613)"/>
<path id="Fill 100" fill-rule="evenodd" clip-rule="evenodd" d="M24.1737 302.942C22.0527 300.233 20.8947 296.897 20.8767 293.459L20.8617 290.66L19.0467 292.136C16.2087 294.44 12.6537 295.67 8.99965 295.607L6.54565 295.565L8.09965 297.608C9.96565 300.068 11.0577 303.026 11.2347 306.107L11.4477 309.884L13.9137 308.09C16.3677 306.305 19.2957 305.279 22.3257 305.138L25.7667 304.979L24.1737 302.942Z" fill="url(#paint9_linear_410_1613)"/>
<path id="Fill 101" fill-rule="evenodd" clip-rule="evenodd" d="M167.155 375.012L164.284 375.885C161.218 365.79 152.542 355.788 142.186 350.406C135.97 347.172 126.202 344.1 114.811 347.823L113.875 344.973C123.673 341.775 133.924 342.726 143.569 347.742C154.606 353.481 163.864 364.185 167.155 375.012Z" fill="url(#paint10_linear_410_1613)"/>
<path id="Fill 102" fill-rule="evenodd" clip-rule="evenodd" d="M166.247 286.219L167.939 288.697C159.23 294.649 152.288 305.923 150.254 317.416C149.033 324.316 149.03 334.555 155.996 344.305L153.557 346.051C147.569 337.663 145.406 327.598 147.302 316.894C149.468 304.645 156.905 292.603 166.247 286.219Z" fill="url(#paint11_linear_410_1613)"/>
</g>
</g>
<defs>
<linearGradient id="paint0_linear_410_1613" x1="727.533" y1="153.679" x2="622.351" y2="267.82" gradientUnits="userSpaceOnUse">
<stop stop-color="#E46B80"/>
<stop offset="1" stop-color="#F92E4B"/>
</linearGradient>
<linearGradient id="paint1_linear_410_1613" x1="830.9" y1="124.032" x2="793.284" y2="165.908" gradientUnits="userSpaceOnUse">
<stop stop-color="#F92E4B"/>
<stop offset="1" stop-color="#FF62A5"/>
<stop offset="1" stop-color="#FF5E84"/>
</linearGradient>
<linearGradient id="paint2_linear_410_1613" x1="234.197" y1="301.31" x2="111.746" y2="331.742" gradientUnits="userSpaceOnUse">
<stop stop-color="#F92E4B"/>
<stop offset="1" stop-color="#FF62A5"/>
<stop offset="1" stop-color="#FF5E84"/>
</linearGradient>
<linearGradient id="paint3_linear_410_1613" x1="336.504" y1="301.313" x2="207.614" y2="335.273" gradientUnits="userSpaceOnUse">
<stop stop-color="#F92E4B"/>
<stop offset="1" stop-color="#FF62A5"/>
</linearGradient>
<linearGradient id="paint4_linear_410_1613" x1="494.032" y1="159.79" x2="374.096" y2="226.814" gradientUnits="userSpaceOnUse">
<stop stop-color="#B739F3"/>
<stop offset="1" stop-color="#6950FB"/>
</linearGradient>
<linearGradient id="paint5_linear_410_1613" x1="510.427" y1="114.153" x2="139.813" y2="284.819" gradientUnits="userSpaceOnUse">
<stop stop-color="#1162D7"/>
<stop offset="0.66199" stop-color="#78F3E3"/>
<stop offset="1" stop-color="#52E5BB"/>
</linearGradient>
<linearGradient id="paint6_linear_410_1613" x1="499.451" y1="391.604" x2="339.846" y2="544.675" gradientUnits="userSpaceOnUse">
<stop stop-color="#1162D7"/>
<stop offset="0.66199" stop-color="#78F3E3"/>
<stop offset="1" stop-color="#52E5BB"/>
</linearGradient>
<linearGradient id="paint7_linear_410_1613" x1="41.8729" y1="273.506" x2="-44.5498" y2="343.296" gradientUnits="userSpaceOnUse">
<stop stop-color="#1162D7"/>
<stop offset="0.66199" stop-color="#78F3E3"/>
<stop offset="1" stop-color="#52E5BB"/>
</linearGradient>
<linearGradient id="paint8_linear_410_1613" x1="102.351" y1="288.545" x2="75.4362" y2="310.28" gradientUnits="userSpaceOnUse">
<stop stop-color="#1162D7"/>
<stop offset="0.66199" stop-color="#78F3E3"/>
<stop offset="1" stop-color="#52E5BB"/>
</linearGradient>
<linearGradient id="paint9_linear_410_1613" x1="19.5737" y1="276.979" x2="-7.34401" y2="298.713" gradientUnits="userSpaceOnUse">
<stop stop-color="#1162D7"/>
<stop offset="0.66199" stop-color="#78F3E3"/>
<stop offset="1" stop-color="#52E5BB"/>
</linearGradient>
<linearGradient id="paint10_linear_410_1613" x1="149.989" y1="319.802" x2="104.746" y2="379.212" gradientUnits="userSpaceOnUse">
<stop stop-color="#1162D7"/>
<stop offset="0.66199" stop-color="#78F3E3"/>
<stop offset="1" stop-color="#52E5BB"/>
</linearGradient>
<linearGradient id="paint11_linear_410_1613" x1="161.075" y1="243.639" x2="115.553" y2="256.729" gradientUnits="userSpaceOnUse">
<stop stop-color="#1162D7"/>
<stop offset="0.66199" stop-color="#78F3E3"/>
<stop offset="1" stop-color="#52E5BB"/>
</linearGradient>
</defs>
</svg>
