<svg width="264" height="207" viewBox="0 0 264 207" fill="none" xmlns="http://www.w3.org/2000/svg">
<ellipse cx="122.021" cy="103.5" rx="102.969" ry="103.423" fill="#E5E7EB"/>
<circle cx="14.0618" cy="25.933" r="10.433" fill="#F2F4F7"/>
<circle cx="235.423" cy="162.922" r="7.71134" fill="#F2F4F7"/>
<ellipse cx="12.701" cy="178.345" rx="12.701" ry="13.1546" fill="#F2F4F7"/>
<circle cx="251.299" cy="59.954" r="12.701" fill="#F2F4F7"/>
<circle cx="226.804" cy="14.5927" r="9.07216" fill="#F2F4F7"/>
<mask id="mask0_413_1370" style="mask-type:alpha" maskUnits="userSpaceOnUse" x="19" y="0" width="206" height="207">
<ellipse cx="122.021" cy="103.5" rx="102.969" ry="103.423" fill="#F3F4F6"/>
</mask>
<g mask="url(#mask0_413_1370)">
<rect x="101.185" y="69.9687" width="111.064" height="141.765" rx="4.5" transform="rotate(7 101.185 69.9687)" fill="#B9CDEE" stroke="white" stroke-width="7"/>
<mask id="mask1_413_1370" style="mask-type:alpha" maskUnits="userSpaceOnUse" x="80" y="66" width="135" height="162">
<rect x="101.185" y="69.9687" width="111.064" height="141.765" rx="4.5" transform="rotate(7 101.185 69.9687)" fill="white" stroke="white" stroke-width="7"/>
</mask>
<g mask="url(#mask1_413_1370)">
<path fill-rule="evenodd" clip-rule="evenodd" d="M121.835 100.612L143.876 81.0284L151.26 102.473L121.835 100.612Z" fill="#ACFF8F"/>
<path fill-rule="evenodd" clip-rule="evenodd" d="M143.698 137.578L155.398 110.514L171.153 126.829L143.698 137.578Z" fill="#F92E4B"/>
<path fill-rule="evenodd" clip-rule="evenodd" d="M178.738 161.213L178.934 131.729L199.811 140.591L178.738 161.213Z" fill="#FFEE63"/>
<path d="M143.584 65.6777C143.584 65.6777 145.297 120.989 200.698 139.77" stroke="white" stroke-width="3"/>
</g>
<rect x="88.9049" y="172.53" width="110.88" height="36.566" transform="rotate(7 88.9049 172.53)" fill="white"/>
<rect x="90.8522" y="184.639" width="87.0928" height="6.35052" rx="3.17526" transform="rotate(7 90.8522 184.639)" fill="#E5E9F5"/>
<rect x="89.7589" y="196.521" width="50.8041" height="6.35052" rx="3.17526" transform="rotate(7 89.7589 196.521)" fill="#E5E9F5"/>
<rect x="31.1608" y="69.631" width="114.064" height="144.765" rx="6" transform="rotate(-7 31.1608 69.631)" fill="#C4EBFF" stroke="white" stroke-width="10"/>
<mask id="mask2_413_1370" style="mask-type:alpha" maskUnits="userSpaceOnUse" x="36" y="61" width="121" height="147">
<mask id="path-18-inside-1_413_1370" fill="white">
<rect x="36.7328" y="73.9844" width="104.064" height="134.765" rx="1" transform="rotate(-7 36.7328 73.9844)"/>
</mask>
<rect x="36.7328" y="73.9844" width="104.064" height="134.765" rx="1" transform="rotate(-7 36.7328 73.9844)" fill="white" stroke="white" stroke-width="20" mask="url(#path-18-inside-1_413_1370)"/>
</mask>
<g mask="url(#mask2_413_1370)">
<path fill-rule="evenodd" clip-rule="evenodd" d="M114.994 17.7769C122.698 16.831 130.02 19.215 135.432 23.7728C140.633 17.8514 148.015 13.7228 156.546 12.6752C174.687 10.4478 191.155 22.9937 193.329 40.6972C193.434 41.5519 193.503 42.4029 193.539 43.249C205.436 46.9428 214.626 57.1115 216.211 70.024C218.385 87.7275 205.441 103.885 187.3 106.112C176.719 107.411 166.706 103.684 159.767 96.8378C154.764 105.098 145.476 111.247 134.271 112.623C120.356 114.332 107.527 108.181 101.422 98.0223C100.435 98.2466 99.4263 98.4234 98.3987 98.5495C82.6623 100.482 68.4043 89.8227 66.5526 74.7419C64.7009 59.6612 75.9568 45.8695 91.6932 43.9373L91.8063 43.9236C91.4597 30.8972 101.394 19.4467 114.994 17.7769Z" fill="url(#paint0_linear_413_1370)"/>
<path fill-rule="evenodd" clip-rule="evenodd" d="M113.805 144.074C127.639 131.778 147.22 128.325 164.425 135.149L239.534 164.939L53.4151 197.756L113.805 144.074Z" fill="#86E074"/>
<path fill-rule="evenodd" clip-rule="evenodd" d="M45.0208 129.839C57.249 116.804 77.0476 114.373 92.0662 124.063L163.423 170.103L-13.0778 191.775L45.0208 129.839Z" fill="url(#paint1_linear_413_1370)"/>
</g>
<rect x="45.7288" y="173.424" width="110.88" height="36.566" transform="rotate(-7 45.7288 173.424)" fill="white"/>
<rect x="50.5466" y="184.701" width="87.0928" height="6.35052" rx="3.17526" transform="rotate(-7 50.5466 184.701)" fill="#E5E9F5"/>
<rect x="52.3611" y="196.494" width="50.8041" height="6.35052" rx="3.17526" transform="rotate(-7 52.3611 196.494)" fill="#E5E9F5"/>
</g>
<defs>
<linearGradient id="paint0_linear_413_1370" x1="90.9755" y1="55.4049" x2="98.5397" y2="117.011" gradientUnits="userSpaceOnUse">
<stop stop-color="white"/>
<stop offset="1" stop-color="white" stop-opacity="0.158486"/>
</linearGradient>
<linearGradient id="paint1_linear_413_1370" x1="66.1345" y1="107.331" x2="75.1724" y2="180.939" gradientUnits="userSpaceOnUse">
<stop stop-color="#98F786"/>
<stop offset="1" stop-color="#42AD2E"/>
</linearGradient>
</defs>
</svg>
