<svg width="30" height="31" viewBox="0 0 30 31" fill="none" xmlns="http://www.w3.org/2000/svg">
<path d="M22.1575 16.421L17.5 20.146H11.25V18.896H16.3312C16.4443 18.8959 16.5552 18.8652 16.6522 18.8071C16.7492 18.749 16.8286 18.6657 16.8819 18.566C16.9353 18.4663 16.9606 18.3541 16.9552 18.2411C16.9498 18.1282 16.9139 18.0189 16.8512 17.9247L15.7413 16.2597C15.5135 15.917 15.2046 15.6359 14.8419 15.4416C14.4791 15.2473 14.074 15.1457 13.6625 15.146H3.75C3.41848 15.146 3.10054 15.2777 2.86612 15.5121C2.6317 15.7465 2.5 16.0645 2.5 16.396V23.896C2.5 24.559 2.76339 25.1949 3.23223 25.6638C3.70107 26.1326 4.33696 26.396 5 26.396H17.0487C17.5833 26.3961 18.1116 26.282 18.5984 26.0612C19.0852 25.8405 19.5192 25.5182 19.8713 25.116L27.5 16.396L25.685 15.791C25.0912 15.5931 24.4573 15.547 23.8411 15.6571C23.2249 15.7671 22.6461 16.0297 22.1575 16.421Z" fill="#FECDD3"/>
<path d="M24.0725 9.3835C24.6363 8.80225 24.985 7.9985 24.985 7.111C24.985 6.2235 24.6363 5.41975 24.0725 4.8385C23.7874 4.54097 23.4451 4.30412 23.0662 4.14216C22.6873 3.9802 22.2796 3.89647 21.8675 3.896C21.8675 3.896 20.3125 3.89225 18.75 5.5035C17.1875 3.89225 15.6325 3.896 15.6325 3.896C15.2206 3.89652 14.813 3.98015 14.4341 4.14188C14.0552 4.30361 13.7129 4.54012 13.4275 4.83725C12.8638 5.41975 12.515 6.22225 12.515 7.10975C12.515 7.99725 12.8638 8.80225 13.4275 9.38225L18.75 15.146L24.0725 9.3835Z" fill="url(#paint0_linear_642_2235)"/>
<defs>
<linearGradient id="paint0_linear_642_2235" x1="13.75" y1="4.521" x2="23.125" y2="12.021" gradientUnits="userSpaceOnUse">
<stop stop-color="#F43F5E"/>
<stop offset="1" stop-color="#F92E4B"/>
</linearGradient>
</defs>
</svg>
