<svg width="190" height="190" viewBox="0 0 190 190" fill="none" xmlns="http://www.w3.org/2000/svg">
<path d="M95 190C147.467 190 190 147.467 190 95C190 42.5329 147.467 0 95 0C42.5329 0 0 42.5329 0 95C0 147.467 42.5329 190 95 190Z" fill="#EAECF0"/>
<rect opacity="0.800525" x="39.8859" y="50.8836" width="110.397" height="138.759" rx="4.20561" fill="white"/>
<rect x="47.421" y="61.7468" width="94.6262" height="61.4954" fill="#E5E7EB"/>
<rect x="47.7706" y="132.878" width="94.6262" height="9.46083" fill="#E5E7EB"/>
<rect x="47.7706" y="154.953" width="94.6262" height="9.46083" fill="#E5E7EB"/>
<path d="M95 116C108.255 116 119 105.255 119 92C119 78.7452 108.255 68 95 68C81.7452 68 71 78.7452 71 92C71 105.255 81.7452 116 95 116Z" fill="#F92E4B"/>
<path d="M103.556 103.208L95 94.6522L86.444 103.208L83.592 100.356L92.148 91.8002L83.592 83.2442L86.444 80.3922L95 88.9482L103.556 80.3922L106.408 83.2442L97.852 91.8002L106.408 100.356L103.556 103.208Z" fill="white"/>
</svg>
