<svg width="344" height="324" viewBox="0 0 344 324" fill="none" xmlns="http://www.w3.org/2000/svg">
<path fill-rule="evenodd" clip-rule="evenodd" d="M15.0001 6C15.0001 4.89543 15.8955 4 17.0001 4L233.569 4C234.191 4 234.777 4.28924 235.156 4.78262L342.944 145.28C343.212 145.629 343.357 146.057 343.357 146.497V323.889H111.5L15.5617 224.581C15.2014 224.208 15.0001 223.71 15.0001 223.192V6Z" fill="url(#paint0_linear_404_1939)"/>
<g filter="url(#filter0_d_404_1939)">
<rect x="12.0001" y="1" width="220" height="220" rx="4" fill="white"/>
</g>
<path opacity="0.487092" fill-rule="evenodd" clip-rule="evenodd" d="M27.0001 18C27.0001 16.8954 27.8955 16 29.0001 16H216C217.105 16 218 16.8954 218 18V206C218 207.105 217.105 208 216 208H29.0001C27.8955 208 27.0001 207.105 27.0001 206V18Z" fill="url(#paint1_linear_404_1939)"/>
<g clip-path="url(#clip0_404_1939)">
<path fill-rule="evenodd" clip-rule="evenodd" d="M26.0001 15H219V160.066L215.027 153.028L211.367 165.757L205.57 159.523L200.56 162.066L185.711 159.523L182.963 208L176.605 208.107L171.971 206.456L162.749 208L156.384 205.398L146.77 208L141.77 147.991L136.442 208L128.359 206.401L120.858 208.774L111.021 206L95.9379 208L91.4911 204.931L86.7461 208H76.2723V75C76.2723 75 72.2641 132.981 64.7115 147.991C61.4838 154.406 56.2838 156.147 52.8812 157.636C48.322 159.632 44.8767 160.066 33.5173 160.066C13.6802 160.066 6.83276 139.029 6.83276 139.029C6.83276 139.029 14.4778 133.698 19.2616 122.855C24.0455 112.012 26.0001 75 26.0001 75V15Z" fill="url(#paint2_linear_404_1939)"/>
<mask id="mask0_404_1939" style="mask-type:alpha" maskUnits="userSpaceOnUse" x="6" y="15" width="214" height="194">
<path fill-rule="evenodd" clip-rule="evenodd" d="M26.0001 15H219V160.066L215.027 153.028L211.367 165.757L205.57 159.523L200.56 162.066L185.711 159.523L182.963 208L176.605 208.107L171.971 206.456L162.749 208L156.384 205.398L146.77 208L141.77 147.991L136.442 208L128.359 206.401L120.858 208.774L111.021 206L95.9379 208L91.4911 204.931L86.7461 208H76.2723V75C76.2723 75 72.2641 132.981 64.7115 147.991C61.4838 154.406 56.2838 156.147 52.8812 157.636C48.322 159.632 44.8767 160.066 33.5173 160.066C13.6802 160.066 6.83276 139.029 6.83276 139.029C6.83276 139.029 14.4778 133.698 19.2616 122.855C24.0455 112.012 26.0001 75 26.0001 75V15Z" fill="white"/>
</mask>
<g mask="url(#mask0_404_1939)">
<path d="M78 27L42 27V62H78V27Z" fill="#D0D5DD"/>
<path d="M139 26L104 26V62H139V26Z" fill="#D0D5DD"/>
<path d="M201 26L165 26V62H201V26Z" fill="#D0D5DD"/>
<path d="M201 75H165V110H201V75Z" fill="#D0D5DD"/>
<path d="M201 123H165V158H201V123Z" fill="#D0D5DD"/>
<path d="M139 75H104V110H139V75Z" fill="#D0D5DD"/>
<path d="M139 123H104V158H139V123Z" fill="#D0D5DD"/>
<path d="M78 75H42V110H78V75Z" fill="#D0D5DD"/>
<path d="M78 123H42V158H78V123Z" fill="#D0D5DD"/>
<path d="M185 112.5C196.811 112.5 206.5 103.16 206.5 91.5C206.5 79.8396 196.811 70.5 185 70.5C173.189 70.5 163.5 79.8396 163.5 91.5C163.5 103.16 173.189 112.5 185 112.5Z" stroke="#F92E4B" stroke-width="5"/>
</g>
</g>
<path fill-rule="evenodd" clip-rule="evenodd" d="M0.936279 130.557H52.2633C52.2633 130.557 56.1459 150.019 64.8901 147.769C61.0952 155.489 53.1824 161.496 36.3533 161.496C19.5242 161.496 12.5553 155.072 8.39016 150.578C4.22498 146.085 0.936279 130.557 0.936279 130.557Z" fill="url(#paint3_linear_404_1939)"/>
<defs>
<filter id="filter0_d_404_1939" x="7.00006" y="0" width="250" height="250" filterUnits="userSpaceOnUse" color-interpolation-filters="sRGB">
<feFlood flood-opacity="0" result="BackgroundImageFix"/>
<feColorMatrix in="SourceAlpha" type="matrix" values="0 0 0 0 0 0 0 0 0 0 0 0 0 0 0 0 0 0 127 0" result="hardAlpha"/>
<feOffset dx="10" dy="14"/>
<feGaussianBlur stdDeviation="7.5"/>
<feColorMatrix type="matrix" values="0 0 0 0 0.230539 0 0 0 0 0.370572 0 0 0 0 0.482993 0 0 0 0.0403646 0"/>
<feBlend mode="normal" in2="BackgroundImageFix" result="effect1_dropShadow_404_1939"/>
<feBlend mode="normal" in="SourceGraphic" in2="effect1_dropShadow_404_1939" result="shape"/>
</filter>
<linearGradient id="paint0_linear_404_1939" x1="366.093" y1="124.51" x2="133.385" y2="-118.527" gradientUnits="userSpaceOnUse">
<stop stop-color="white" stop-opacity="0.01"/>
<stop offset="1" stop-color="#A4B0D5"/>
</linearGradient>
<linearGradient id="paint1_linear_404_1939" x1="105.046" y1="170.975" x2="85.3232" y2="114.775" gradientUnits="userSpaceOnUse">
<stop stop-color="#C4C8DE" stop-opacity="0.01"/>
<stop offset="1" stop-color="#6B798E"/>
</linearGradient>
<linearGradient id="paint2_linear_404_1939" x1="17.3855" y1="1.73302" x2="-6.93933" y2="176.888" gradientUnits="userSpaceOnUse">
<stop stop-color="#F6F8FA"/>
<stop offset="1" stop-color="#E9EDF3"/>
</linearGradient>
<linearGradient id="paint3_linear_404_1939" x1="-14.3682" y1="131.664" x2="-13.2943" y2="173.072" gradientUnits="userSpaceOnUse">
<stop stop-color="#DFE2EA"/>
<stop offset="1" stop-color="#CBD0DE"/>
</linearGradient>
<clipPath id="clip0_404_1939">
<rect width="213" height="194" fill="white" transform="translate(6.00006 15)"/>
</clipPath>
</defs>
</svg>
