<svg width="264" height="231" viewBox="0 0 264 231" fill="none" xmlns="http://www.w3.org/2000/svg">
<path fill-rule="evenodd" clip-rule="evenodd" d="M238.532 126.608C238.532 183.929 192.063 230.398 134.742 230.398C77.4211 230.398 30.9531 183.929 30.9531 126.608C30.9531 69.2874 77.4211 22.8184 134.742 22.8184C192.063 22.8184 238.532 69.2874 238.532 126.608Z" stroke="#D1D5DB" stroke-dasharray="5.02 5.02"/>
<path fill-rule="evenodd" clip-rule="evenodd" d="M211.817 126.608C211.817 169.175 177.309 203.683 134.742 203.683C92.174 203.683 57.668 169.175 57.668 126.608C57.668 84.0412 92.174 49.5332 134.742 49.5332C177.309 49.5332 211.817 84.0412 211.817 126.608Z" stroke="#D1D5DB" stroke-dasharray="5.05 5.05"/>
<path d="M11.3448 140.582L9.41779 140.523" stroke="#D1D5DB" stroke-linecap="round"/>
<path d="M9.96208 136.929L8.58008 138.22" stroke="#D1D5DB" stroke-linecap="round"/>
<path d="M6.36103 135.261L6.33203 137.145" stroke="#D1D5DB" stroke-linecap="round"/>
<path d="M2.64844 136.554L3.99044 137.928" stroke="#D1D5DB" stroke-linecap="round"/>
<path d="M1 140.053L2.926 140.112" stroke="#D1D5DB" stroke-linecap="round"/>
<path d="M2.38281 143.706L3.76581 142.415" stroke="#D1D5DB" stroke-linecap="round"/>
<path d="M5.98438 145.375L6.01337 143.491" stroke="#D1D5DB" stroke-linecap="round"/>
<path d="M9.69747 144.081L8.35547 142.707" stroke="#D1D5DB" stroke-linecap="round"/>
<path d="M262.648 113.723L261.801 114.64" stroke="#D1D5DB" stroke-linecap="round"/>
<path d="M258.672 114.52L259.311 115.109" stroke="#D1D5DB" stroke-linecap="round"/>
<path d="M258.027 118.583L258.874 117.666" stroke="#D1D5DB" stroke-linecap="round"/>
<path d="M262.001 117.786L261.363 117.197" stroke="#D1D5DB" stroke-linecap="round"/>
<path d="M185.07 5.94678L183.021 5.89178" stroke="#D1D5DB" stroke-linecap="round"/>
<path d="M179.769 1L179.738 2.751" stroke="#D1D5DB" stroke-linecap="round"/>
<path d="M174.067 5.4541L176.116 5.5081" stroke="#D1D5DB" stroke-linecap="round"/>
<path d="M179.367 10.4004L179.398 8.64941" stroke="#D1D5DB" stroke-linecap="round"/>
<path fill-rule="evenodd" clip-rule="evenodd" d="M33.3361 195.006C31.8621 195.447 29.4071 197.613 28.5671 200.181C28.4261 197.795 26.9111 194.796 25.2441 194.364C27.2781 193.645 29.4811 191.002 30.0671 188.775C29.9611 191.109 32.0801 194.498 33.3361 195.006Z" fill="#D1D5DB"/>
<path fill-rule="evenodd" clip-rule="evenodd" d="M67.8587 15.3254C66.7217 15.5264 64.7067 16.9264 63.8587 18.7664C63.9597 16.9774 63.0907 14.6124 61.8867 14.1464C63.4637 13.7864 65.3337 12.0084 65.9627 10.4004C65.6817 12.1304 66.9667 14.8384 67.8587 15.3254Z" fill="#D1D5DB"/>
<path fill-rule="evenodd" clip-rule="evenodd" d="M218.559 28.317C217.04 28.284 215.836 27.027 215.87 25.509C215.903 23.991 217.16 22.787 218.677 22.82C220.196 22.853 221.4 24.11 221.367 25.628C221.333 27.146 220.077 28.35 218.559 28.317Z" fill="#D1D5DB"/>
<path fill-rule="evenodd" clip-rule="evenodd" d="M218.566 208.469C217.245 208.441 216.197 207.346 216.225 206.025C216.253 204.703 217.348 203.655 218.67 203.683C219.992 203.712 221.04 204.806 221.011 206.128C220.982 207.449 219.888 208.498 218.566 208.469Z" fill="#D1D5DB"/>
<path fill-rule="evenodd" clip-rule="evenodd" d="M19.8223 64.8033C19.0043 64.7853 18.3553 64.1083 18.3733 63.2893C18.3903 62.4713 19.0683 61.8233 19.8863 61.8403C20.7043 61.8583 21.3533 62.5353 21.3363 63.3533C21.3183 64.1723 20.6403 64.8213 19.8223 64.8033Z" stroke="#D1D5DB" stroke-linecap="round"/>
<path fill-rule="evenodd" clip-rule="evenodd" d="M158.87 137.58C158.87 137.58 156.722 123.22 150.084 123.22C144.437 123.22 142.509 133.74 136.918 125.335C130.666 115.928 126.094 103.961 112.129 137.58H158.87ZM149.967 104.194C146.278 104.194 143.29 107.185 143.29 110.871C143.29 114.56 146.278 117.548 149.967 117.548C153.655 117.548 156.644 114.56 156.644 110.871C156.644 107.185 153.655 104.194 149.967 104.194ZM104.45 93.0651H166.549C168.453 93.0651 169.999 94.6083 169.999 96.5098V147.49C169.999 149.392 168.453 150.935 166.549 150.935H104.45C102.546 150.935 101 149.392 101 147.49V96.5098C101 94.6083 102.546 93.0651 104.45 93.0651Z" fill="url(#paint0_linear_657_2577)"/>
<defs>
<linearGradient id="paint0_linear_657_2577" x1="135.499" y1="64.1303" x2="192.485" y2="132.075" gradientUnits="userSpaceOnUse">
<stop stop-color="#F92E4B"/>
<stop offset="1" stop-color="#FF6D6D"/>
</linearGradient>
</defs>
</svg>
