<svg width="220" height="160" viewBox="0 0 220 160" fill="none" xmlns="http://www.w3.org/2000/svg">
<circle cx="110" cy="80" r="80" fill="#EAECF0"/>
<circle cx="18" cy="12" r="8" fill="#F2F4F7"/>
<circle cx="198" cy="142" r="6" fill="#F2F4F7"/>
<circle cx="13" cy="126" r="10" fill="#F2F4F7"/>
<circle cx="210" cy="46" r="10" fill="#F2F4F7"/>
<circle cx="191" cy="11" r="7" fill="#F2F4F7"/>
<ellipse cx="110.5" cy="151.111" rx="87.7778" ry="8.88889" fill="#F5F5F5"/>
<path d="M180.523 74.9924H72.6521C69.6332 74.9924 67.1859 77.4397 67.1859 80.4586V146.053C67.1859 149.072 69.6332 151.519 72.6521 151.519H180.523C183.542 151.519 185.989 149.072 185.989 146.053V80.4586C185.989 77.4397 183.542 74.9924 180.523 74.9924Z" fill="#D0D5DD"/>
<path d="M138.125 82.3496V146.053C138.125 147.504 137.549 148.896 136.522 149.923C135.496 150.949 134.104 151.525 132.653 151.525H39.8004C38.3491 151.525 36.9572 150.949 35.9309 149.923C34.9047 148.896 34.3281 147.504 34.3281 146.053V77.4489C34.3271 76.6777 34.4891 75.9151 34.8035 75.2109C35.1178 74.5068 35.5774 73.877 36.1522 73.3629L77.1396 36.9175C78.1254 36.0424 79.3941 35.5525 80.7122 35.538C82.0304 35.5235 83.3095 35.9853 84.3144 36.8385L137.888 82.3496H138.125Z" fill="#E0E2EE"/>
<path d="M138.125 82.3496V74.9924L85.1289 29.8157H127.083C128.413 29.8218 129.7 30.2832 130.731 31.123L190.872 80.2215C191.054 80.3823 191.185 80.5943 191.246 80.8299C191.306 81.0656 191.295 81.3141 191.213 81.5433C191.132 81.7726 190.983 81.9719 190.786 82.1157C190.59 82.2594 190.355 82.3409 190.112 82.3496H138.125Z" fill="#D0D5DD"/>
<path d="M99.704 104.306H71.1683C70.0637 104.306 69.1683 105.201 69.1683 106.306V151.519H101.704V106.306C101.704 105.201 100.809 104.306 99.704 104.306Z" fill="#B1B9C6"/>
<path d="M185.995 82.3495H138.149V93.4522H185.995V82.3495Z" fill="#263238" fill-opacity="0.2"/>
<path d="M87.695 32.0046L85.2264 29.8157L85.1777 29.8644L85.123 29.8157L81.6512 32.9045L26.8554 80.2033C26.6739 80.3595 26.5443 80.5673 26.4838 80.799C26.4232 81.0306 26.4346 81.2753 26.5165 81.5003C26.5983 81.7253 26.7467 81.9201 26.9419 82.0588C27.1371 82.1975 27.3699 82.2735 27.6093 82.2767L33.2519 82.3496L85.2264 37.5985L137.888 82.3496H138.125L146.638 82.2402L87.695 32.0046Z" fill="#D0D5DD"/>
<path d="M84.9649 87.901C90.724 87.901 95.3926 83.2324 95.3926 77.4733C95.3926 71.7142 90.724 67.0455 84.9649 67.0455C79.2058 67.0455 74.5372 71.7142 74.5372 77.4733C74.5372 83.2324 79.2058 87.901 84.9649 87.901Z" fill="#B1B9C6"/>
<path d="M58.7105 104.306H43.0711C41.9665 104.306 41.0711 105.201 41.0711 106.306V131.844C41.0711 132.948 41.9665 133.844 43.0711 133.844H58.7105C59.8151 133.844 60.7105 132.948 60.7105 131.844V106.306C60.7105 105.201 59.8151 104.306 58.7105 104.306Z" fill="#B1B9C6"/>
<path d="M126.098 114.198H110.459C109.354 114.198 108.459 115.094 108.459 116.198V131.838C108.459 132.942 109.354 133.838 110.459 133.838H126.098C127.203 133.838 128.098 132.942 128.098 131.838V116.198C128.098 115.094 127.203 114.198 126.098 114.198Z" fill="#B1B9C6"/>
<path d="M126.098 104.379H110.459C109.354 104.379 108.459 105.274 108.459 106.379V108.106C108.459 109.211 109.354 110.106 110.459 110.106H126.098C127.203 110.106 128.098 109.211 128.098 108.106V106.379C128.098 105.274 127.203 104.379 126.098 104.379Z" fill="#B1B9C6"/>
<path d="M171.876 12.2019C168.01 8.33362 163.42 5.26495 158.368 3.17129C153.316 1.07762 147.901 0 142.432 0C136.963 0 131.548 1.07762 126.496 3.17129C121.444 5.26495 116.854 8.33362 112.988 12.2019C109.261 15.8427 106.301 20.1935 104.283 24.9974C102.265 29.8014 101.231 34.9609 101.241 40.1714C101.241 50.739 105.321 61.6288 112.988 71.0533L136.756 101.868C137.426 102.736 138.286 103.439 139.27 103.923C140.254 104.407 141.335 104.658 142.432 104.658C143.528 104.658 144.61 104.407 145.594 103.923C146.578 103.439 147.438 102.736 148.108 101.868L171.876 71.0533C179.543 61.6288 183.617 50.739 183.617 40.1714C183.628 34.9613 182.595 29.8019 180.578 24.9979C178.561 20.194 175.602 15.843 171.876 12.2019Z" fill="#F92E4B"/>
<path d="M142.429 58.2907C151.966 58.2907 159.697 50.5595 159.697 41.0226C159.697 31.4857 151.966 23.7545 142.429 23.7545C132.892 23.7545 125.161 31.4857 125.161 41.0226C125.161 50.5595 132.892 58.2907 142.429 58.2907Z" fill="white"/>
</svg>
