<svg width="129" height="271" viewBox="0 0 129 271" fill="none" xmlns="http://www.w3.org/2000/svg">
<g filter="url(#filter0_dd_661_2567)">
<path d="M5 6C5 3.24 7.239 1 10 1H118.499C121.26 1 123.499 3.24 123.499 6V165.704C123.499 168.466 121.26 170.704 118.499 170.704H10C7.239 170.704 5 168.466 5 165.704V6Z" fill="white"/>
<path fill-rule="evenodd" clip-rule="evenodd" d="M116.12 11.136H12.3792V119.858H116.12V11.136ZM11.3792 10.136V120.858H117.12V10.136H11.3792Z" fill="#9CA3AF"/>
<path d="M11.3792 10.136H117.12V82.451H11.3792V10.136Z" fill="#9CA3AF"/>
<path d="M11.3792 82.451H117.12L82.2592 19.769L54.5521 66.136L38.2321 44.842L11.3792 82.451Z" fill="#E9EFFF"/>
<path d="M55.7242 30.785C55.7242 34.431 52.7692 37.386 49.1242 37.386C45.4792 37.386 42.5242 34.431 42.5242 30.785C42.5242 27.14 45.4792 24.185 49.1242 24.185C52.7692 24.185 55.7242 27.14 55.7242 30.785Z" fill="#E9EFFF"/>
<path d="M18.7371 89.031H109.762V92.217H18.7371V89.031Z" fill="#9CA3AF"/>
<path d="M18.7371 98.797H72.9901V101.982H18.7371V98.797Z" fill="#9CA3AF"/>
<path d="M18.7371 108.563H97.6891V111.748H18.7371V108.563Z" fill="#9CA3AF"/>
<path d="M32.2942 136.88H52.0522V140.149H32.2942V136.88Z" fill="#9CA3AF"/>
<path d="M32.2942 145.253H58.2122V148.522H32.2942V145.253Z" fill="#9CA3AF"/>
<path d="M28.1071 142.701C28.1071 147.32 24.3631 151.065 19.7431 151.065C15.1241 151.065 11.3792 147.32 11.3792 142.701C11.3792 138.082 15.1241 134.337 19.7431 134.337C24.3631 134.337 28.1071 138.082 28.1071 142.701Z" fill="#F92E4B"/>
<path d="M91.2009 136.88H110.959V140.149H91.2009V136.88Z" fill="#9CA3AF"/>
<path d="M91.2009 145.253H117.12V148.522H91.2009V145.253Z" fill="#9CA3AF"/>
<path d="M87.0151 142.701C87.0151 147.32 83.2701 151.065 78.6501 151.065C74.0311 151.065 70.2861 147.32 70.2861 142.701C70.2861 138.082 74.0311 134.337 78.6501 134.337C83.2701 134.337 87.0151 138.082 87.0151 142.701Z" fill="#9CA3AF"/>
</g>
<g filter="url(#filter1_dd_661_2567)">
<path d="M5 207.704C5 204.943 7.239 202.704 10 202.704H118.499C121.26 202.704 123.499 204.943 123.499 207.704V256.387C123.499 259.148 121.26 261.387 118.499 261.387H10C7.239 261.387 5 259.148 5 256.387V207.704Z" fill="white"/>
<path d="M35.187 236.079H53.157V239.052H35.187V236.079Z" fill="#9CA3AF"/>
<path d="M35.187 243.695H58.759V246.668H35.187V243.695Z" fill="#9CA3AF"/>
<path d="M31.3791 241.373C31.3791 245.575 27.9731 248.98 23.7711 248.98C19.5701 248.98 16.1641 245.575 16.1641 241.373C16.1641 237.172 19.5701 233.766 23.7711 233.766C27.9731 233.766 31.3791 237.172 31.3791 241.373Z" fill="#F92E4B"/>
<path d="M88.762 236.079H106.732V239.052H88.762V236.079Z" fill="#9CA3AF"/>
<path d="M88.762 243.695H112.334V246.668H88.762V243.695Z" fill="#9CA3AF"/>
<path d="M84.954 241.373C84.954 245.575 81.548 248.98 77.347 248.98C73.145 248.98 69.739 245.575 69.739 241.373C69.739 237.172 73.145 233.766 77.347 233.766C81.548 233.766 84.954 237.172 84.954 241.373Z" fill="#9CA3AF"/>
<path fill-rule="evenodd" clip-rule="evenodd" d="M112.502 208.395H15.9971C13.2361 208.395 10.9971 210.633 10.9971 213.395V250.012C10.9971 252.773 13.2361 255.012 15.9971 255.012H112.502C115.263 255.012 117.502 252.773 117.502 250.012V213.395C117.502 210.633 115.263 208.395 112.502 208.395ZM15.9971 207.395C12.6841 207.395 9.99707 210.081 9.99707 213.395V250.012C9.99707 253.326 12.6841 256.012 15.9971 256.012H112.502C115.815 256.012 118.502 253.326 118.502 250.012V213.395C118.502 210.081 115.815 207.395 112.502 207.395H15.9971Z" fill="#9CA3AF"/>
<path d="M17.8362 214.287H110.662V217.477H17.8362V214.287Z" fill="#9CA3AF"/>
<path d="M17.8362 223.899H66.7862V227.089H17.8362V223.899Z" fill="#9CA3AF"/>
</g>
<defs>
<filter id="filter0_dd_661_2567" x="0" y="0" width="128.499" height="179.704" filterUnits="userSpaceOnUse" color-interpolation-filters="sRGB">
<feFlood flood-opacity="0" result="BackgroundImageFix"/>
<feColorMatrix in="SourceAlpha" type="matrix" values="0 0 0 0 0 0 0 0 0 0 0 0 0 0 0 0 0 0 127 0" result="hardAlpha"/>
<feMorphology radius="1" operator="erode" in="SourceAlpha" result="effect1_dropShadow_661_2567"/>
<feOffset dy="2"/>
<feGaussianBlur stdDeviation="2"/>
<feColorMatrix type="matrix" values="0 0 0 0 0 0 0 0 0 0 0 0 0 0 0 0 0 0 0.06 0"/>
<feBlend mode="normal" in2="BackgroundImageFix" result="effect1_dropShadow_661_2567"/>
<feColorMatrix in="SourceAlpha" type="matrix" values="0 0 0 0 0 0 0 0 0 0 0 0 0 0 0 0 0 0 127 0" result="hardAlpha"/>
<feMorphology radius="1" operator="erode" in="SourceAlpha" result="effect2_dropShadow_661_2567"/>
<feOffset dy="4"/>
<feGaussianBlur stdDeviation="3"/>
<feColorMatrix type="matrix" values="0 0 0 0 0 0 0 0 0 0 0 0 0 0 0 0 0 0 0.1 0"/>
<feBlend mode="normal" in2="effect1_dropShadow_661_2567" result="effect2_dropShadow_661_2567"/>
<feBlend mode="normal" in="SourceGraphic" in2="effect2_dropShadow_661_2567" result="shape"/>
</filter>
<filter id="filter1_dd_661_2567" x="0" y="201.704" width="128.499" height="68.683" filterUnits="userSpaceOnUse" color-interpolation-filters="sRGB">
<feFlood flood-opacity="0" result="BackgroundImageFix"/>
<feColorMatrix in="SourceAlpha" type="matrix" values="0 0 0 0 0 0 0 0 0 0 0 0 0 0 0 0 0 0 127 0" result="hardAlpha"/>
<feMorphology radius="1" operator="erode" in="SourceAlpha" result="effect1_dropShadow_661_2567"/>
<feOffset dy="2"/>
<feGaussianBlur stdDeviation="2"/>
<feColorMatrix type="matrix" values="0 0 0 0 0 0 0 0 0 0 0 0 0 0 0 0 0 0 0.06 0"/>
<feBlend mode="normal" in2="BackgroundImageFix" result="effect1_dropShadow_661_2567"/>
<feColorMatrix in="SourceAlpha" type="matrix" values="0 0 0 0 0 0 0 0 0 0 0 0 0 0 0 0 0 0 127 0" result="hardAlpha"/>
<feMorphology radius="1" operator="erode" in="SourceAlpha" result="effect2_dropShadow_661_2567"/>
<feOffset dy="4"/>
<feGaussianBlur stdDeviation="3"/>
<feColorMatrix type="matrix" values="0 0 0 0 0 0 0 0 0 0 0 0 0 0 0 0 0 0 0.1 0"/>
<feBlend mode="normal" in2="effect1_dropShadow_661_2567" result="effect2_dropShadow_661_2567"/>
<feBlend mode="normal" in="SourceGraphic" in2="effect2_dropShadow_661_2567" result="shape"/>
</filter>
</defs>
</svg>
