<svg xmlns="http://www.w3.org/2000/svg" width="95.518" height="43" viewBox="0 0 95.518 43">
  <g id="Grupo_2281" data-name="Grupo 2281" transform="translate(-19 -10)">
    <g id="Grupo_2002" data-name="Grupo 2002" transform="translate(20 10)">
      <path id="Trazado_6639" data-name="Trazado 6639" d="M129.382,99.051v18.307a.272.272,0,0,1-.493.158l-14.07-19.66a3.525,3.525,0,0,0-2.866-1.473h0a3.525,3.525,0,0,0-3.525,3.525v24.609a2.668,2.668,0,0,0,2.668,2.668h0a2.668,2.668,0,0,0,2.668-2.668V106.209a.272.272,0,0,1,.492-.158l14.071,19.661a3.525,3.525,0,0,0,2.866,1.473h0a3.525,3.525,0,0,0,3.525-3.525V99.051a2.668,2.668,0,0,0-2.668-2.668h0A2.668,2.668,0,0,0,129.382,99.051Z" transform="translate(-108.428 -96.383)" fill="#fff"/>
      <path id="Trazado_6640" data-name="Trazado 6640" d="M212.646,142.732c-3.862,0-5.9-2.342-6.03-5.032h15.229a1.387,1.387,0,0,0,1.387-1.39h0c0-6.291-4.208-11.67-10.977-11.67-6.638,0-10.977,5.162-10.977,11.28,0,6.421,4.556,11.54,11.324,11.54a10.643,10.643,0,0,0,8.366-3.738,2.349,2.349,0,0,0-1.549-3.835h0a2.35,2.35,0,0,0-2.026.79A6.04,6.04,0,0,1,212.646,142.732Zm-.388-13.363c3.341,0,5.467,2.212,5.64,4.642h-11.28C206.748,131.495,209,129.369,212.258,129.369Z" transform="translate(-173.623 -116.223)" fill="#fff"/>
      <path id="Trazado_3513" data-name="Trazado 3513" d="M375.932,136.135h-4.624a1.361,1.361,0,0,1-1.361-1.361V130.2a1.36,1.36,0,0,0-1.361-1.361h-3.2a1.361,1.361,0,0,0-1.361,1.361v4.574a1.361,1.361,0,0,1-1.361,1.361H358.1a1.361,1.361,0,0,0-1.361,1.361v3.2a1.361,1.361,0,0,0,1.361,1.361h4.574a1.361,1.361,0,0,1,1.361,1.361v4.624a1.361,1.361,0,0,0,1.361,1.361h3.2a1.361,1.361,0,0,0,1.361-1.361v-4.624a1.361,1.361,0,0,1,1.361-1.361h4.624a1.361,1.361,0,0,0,1.361-1.361v-3.2A1.361,1.361,0,0,0,375.932,136.135Z" transform="translate(-282.775 -119.172)" fill="#fff"/>
      <path id="Trazado_6641" data-name="Trazado 6641" d="M293.617,141.116a5.953,5.953,0,0,0-.287-1.871l0,0a5.394,5.394,0,0,0-.584-1.225l-.021-.034q-.119-.183-.255-.362l-.035-.044c-.092-.119-.19-.236-.294-.352l-.027-.029q-.157-.172-.331-.339l-.021-.021c-.116-.11-.239-.217-.367-.324l-.067-.056q-.188-.153-.393-.3l-.086-.061c-.14-.1-.285-.2-.437-.294l-.075-.046c-.155-.1-.315-.191-.482-.284l-.033-.019c-.174-.1-.358-.191-.546-.284l-.091-.045c-.186-.091-.381-.18-.581-.267l-.1-.042q-.313-.134-.648-.264l-.054-.021c-.238-.091-.483-.18-.738-.267-.706-.242-1.335-.456-1.9-.647-2.408-.814-3.635-1.24-4.089-1.911-.013-.018-.027-.036-.038-.054a2.543,2.543,0,0,1-.512-1.46,1.842,1.842,0,0,1,1.863-1.863,2.021,2.021,0,0,1,1.523.708,2.02,2.02,0,0,1,1.523-.708,1.842,1.842,0,0,1,1.863,1.863,2.222,2.222,0,0,1-.2.907.531.531,0,0,0,.465.261h4.023a.772.772,0,0,0,.761-.9c-.587-3.268-3.736-5.821-8.709-5.821-4.165,0-8.114,2.388-8.114,6.334a5.367,5.367,0,0,0,.725,2.78l0,0c.077.13.161.254.248.376.018.026.035.053.054.079.081.11.168.215.258.319.03.035.059.072.091.106.086.1.178.189.271.28.04.039.079.079.121.117.092.085.188.168.285.25.049.041.1.082.148.121q.146.115.3.225.086.062.175.122c.1.069.2.136.31.2.066.041.135.082.2.122q.134.079.272.155h-.028a16.207,16.207,0,0,0,3.1,1.254c4.421,1.426,6.161,1.779,6.161,3.514,0,1.345-1.649,2-3.471,2-2.342,0-3.947-.843-4.465-2.15a.744.744,0,0,0-.219-.3h0l0,0a.65.65,0,0,0-.41-.149h-.024l-.031,0h-3.836a.815.815,0,0,0-.629.3.837.837,0,0,0-.195.708c.767,4.057,4.534,6.068,9.68,6.068q.243,0,.482-.007C289.866,147.31,293.617,145.07,293.617,141.116Z" transform="translate(-225.326 -116.215)" fill="#fff"/>
    </g>
    <text id="VIH_No_estamos_solos" data-name="VIH No estamos solos" transform="translate(20 51)" fill="#fff" font-size="8" font-family="Montserrat-Medium, Montserrat" font-weight="500" letter-spacing="0.018em"><tspan x="0" y="0">VIH No estamos solos</tspan></text>
  </g>
</svg>
