<svg width="357" height="235" viewBox="0 0 357 235" fill="none" xmlns="http://www.w3.org/2000/svg">
<path fill-rule="evenodd" clip-rule="evenodd" d="M236.361 55.3471C214.865 31.1617 169.844 22.1609 123.577 35.5042C66.1928 52.0539 28.624 96.7086 39.6647 135.244C48.723 166.859 87.6869 184.533 133.078 180.721C154.843 198.194 191.486 203.965 228.85 193.189C281.261 178.074 315.241 136.125 304.745 99.4936C297.383 73.7971 270.091 57.5434 236.361 55.3471Z" fill="#F3F4F6"/>
<g style="mix-blend-mode:multiply" opacity="0.8">
<path fill-rule="evenodd" clip-rule="evenodd" d="M157.61 187.205C160.675 187.775 166.157 179.636 165.872 172.304C165.587 164.972 158.815 166.383 161.147 152.977C163.478 139.57 166.34 133.248 153.016 121.499C139.691 109.749 141.236 97.8243 130.532 99.1156C119.829 100.407 122.51 115.919 130.107 126.406C137.704 136.893 137.1 140.38 128.165 144.205C119.23 148.03 135.917 160.09 138.041 163.637C140.166 167.184 139.111 176.788 143.117 181.12C147.123 185.452 154.546 186.635 157.61 187.205Z" fill="url(#paint0_linear_410_1727)"/>
<path d="M153.173 168.847C151.542 166.124 145.776 158.054 138.952 155.136" stroke="url(#paint1_linear_410_1727)" stroke-width="6" stroke-linecap="round"/>
<path d="M149.489 149.445C147.858 146.722 154.332 140.218 154.968 132.803" stroke="url(#paint2_linear_410_1727)" stroke-width="6" stroke-linecap="round"/>
<path d="M160.754 202.666C160.061 201.508 158.921 195.087 157.198 187.892C151.801 165.359 147.42 136.247 137.738 120.08" stroke="url(#paint3_linear_410_1727)" stroke-width="6" stroke-linecap="round"/>
</g>
<g style="mix-blend-mode:multiply" opacity="0.8">
<path d="M206.801 185.329C206.627 175.331 214.419 144.244 225.368 127.117" stroke="url(#paint4_linear_410_1727)" stroke-width="6" stroke-linecap="round"/>
<ellipse rx="2.89289" ry="9.09169" transform="matrix(0.85642 -0.51628 0.513797 0.857912 215.573 124.116)" fill="url(#paint5_linear_410_1727)"/>
<ellipse rx="2.89985" ry="9.06987" transform="matrix(0.052165 0.998638 -0.998621 0.0525075 232.211 133.11)" fill="url(#paint6_linear_410_1727)"/>
<ellipse cx="227.059" cy="146.402" rx="2.89987" ry="9.06977" transform="rotate(90 227.059 146.402)" fill="url(#paint7_linear_410_1727)"/>
<ellipse cx="222.897" cy="159.277" rx="2.89987" ry="9.06977" transform="rotate(90 222.897 159.277)" fill="url(#paint8_linear_410_1727)"/>
<ellipse rx="2.89304" ry="9.09123" transform="matrix(0.847265 0.53117 -0.528669 0.848828 231.094 117.477)" fill="url(#paint9_linear_410_1727)"/>
<ellipse rx="2.89463" ry="9.08625" transform="matrix(0.742052 -0.670343 0.667917 0.744236 208.646 138.203)" fill="url(#paint10_linear_410_1727)"/>
<ellipse rx="2.89562" ry="9.08314" transform="matrix(0.667917 -0.744236 0.742052 0.670343 203.508 152.294)" fill="url(#paint11_linear_410_1727)"/>
</g>
<path opacity="0.472712" d="M129.067 69.1363L154.092 49.9238" stroke="#E2E8F0" stroke-width="8" stroke-linecap="round" stroke-linejoin="round"/>
<path opacity="0.472712" d="M129.314 78.7837L149.052 63.6299" stroke="#E2E8F0" stroke-width="8" stroke-linecap="round" stroke-linejoin="round"/>
<path opacity="0.472712" d="M215.605 91.151L240.63 71.9385" stroke="#E2E8F0" stroke-width="8" stroke-linecap="round" stroke-linejoin="round"/>
<path opacity="0.472712" d="M215.852 100.798L235.59 85.6445" stroke="#E2E8F0" stroke-width="8" stroke-linecap="round" stroke-linejoin="round"/>
<path fill-rule="evenodd" clip-rule="evenodd" d="M308.874 120.392L253.77 110.074C237.779 133.583 230.212 153.409 231.069 169.552C241.172 173.753 260.623 180.402 289.42 189.498L312.591 126.979C313.54 124.418 312.24 121.57 309.688 120.618C309.424 120.519 309.151 120.444 308.874 120.392Z" fill="url(#paint12_linear_410_1727)"/>
<path fill-rule="evenodd" clip-rule="evenodd" d="M253.789 123.541C254.292 125.282 254.064 126.538 253.106 127.31C251.67 128.468 250.227 130.437 248.804 130.599C247.382 130.761 245.842 131.544 245.592 133.546C245.472 134.513 240.536 139.513 238.773 146.392C238.326 148.134 238.869 150.814 240.402 154.432L244.48 152.18L250.288 142.741C256.738 140.493 260.375 139.1 261.197 138.563C262.43 137.757 266.425 134.31 265.654 133.017C264.884 131.724 267.39 123.511 268.878 121.914C270.367 120.318 271.586 116.427 271.615 114.991C271.645 113.554 272.161 109.254 268.446 109.391C265.97 109.483 261.084 114.199 253.789 123.541Z" fill="url(#paint13_linear_410_1727)"/>
<mask id="mask0_410_1727" style="mask-type:alpha" maskUnits="userSpaceOnUse" x="238" y="109" width="34" height="46">
<path fill-rule="evenodd" clip-rule="evenodd" d="M253.789 123.541C254.292 125.282 254.064 126.538 253.106 127.31C251.67 128.468 250.227 130.437 248.804 130.599C247.382 130.761 245.842 131.544 245.592 133.546C245.472 134.513 240.536 139.513 238.773 146.392C238.326 148.134 238.869 150.814 240.402 154.432L244.48 152.18L250.288 142.741C256.738 140.493 260.375 139.1 261.197 138.563C262.43 137.757 266.425 134.31 265.654 133.017C264.884 131.724 267.39 123.511 268.878 121.914C270.367 120.318 271.586 116.427 271.615 114.991C271.645 113.554 272.161 109.254 268.446 109.391C265.97 109.483 261.084 114.199 253.789 123.541Z" fill="white"/>
</mask>
<g mask="url(#mask0_410_1727)">
<g opacity="0.358761">
<path fill-rule="evenodd" clip-rule="evenodd" d="M267.684 130.93C267.684 130.93 260.637 118.384 257.346 115.235C254.055 112.087 273.05 108.913 273.05 108.913L267.684 133.299V130.93Z" fill="#B60808" style="mix-blend-mode:multiply"/>
</g>
</g>
<path fill-rule="evenodd" clip-rule="evenodd" d="M249.939 94.0301C248.238 95.1789 249.689 99.8022 247.848 102.441C246.842 103.884 244.725 104.687 243.748 105.261C240.983 106.886 243.824 108.045 244.395 109.012C244.967 109.979 244.511 112.164 244.083 113.886C243.656 115.608 242.137 119.488 243.765 120.355C245.393 121.221 255.386 125.007 258.276 123.851C261.166 122.694 262.199 116.903 262.911 116.526C263.624 116.149 264.124 116.547 264.781 116.712C266.493 117.14 268.039 116.177 268.861 114.808C269.793 113.256 271.118 113.964 270.401 111.844C269.296 108.574 262.892 95.6937 260.348 94.7677C257.803 93.8418 252.568 92.2532 249.939 94.0301Z" fill="url(#paint14_linear_410_1727)"/>
<path fill-rule="evenodd" clip-rule="evenodd" d="M258.239 97.5695C251.732 95.9415 248.705 97.3998 246.349 92.3254C244.957 89.3283 247.667 80.1342 252.231 79.9261C253.354 85.0653 258.779 85.5072 261.923 85.9343C278.803 88.227 280.569 103.711 275.516 112.832C273.889 115.768 272.384 117.878 271.041 119.46C270.189 120.464 269.074 121.674 268.698 122.248C268.573 122.44 267.484 124.858 267.295 124.811C266.727 124.669 266.955 124.64 267.234 122.137C267.513 119.634 267.669 118.96 268.175 116.923C268.325 116.322 271.155 111.7 268.982 110.027C267.533 108.912 265.575 109.593 263.109 112.071L261.611 111.505C262.6 109.298 263.226 107.668 263.487 106.616C263.879 105.039 264.747 99.1975 258.239 97.5695Z" fill="url(#paint15_linear_410_1727)"/>
<path fill-rule="evenodd" clip-rule="evenodd" d="M258.239 97.5695C251.732 95.9415 248.705 97.3998 246.349 92.3254C244.957 89.3283 247.667 80.1342 252.231 79.9261C253.354 85.0653 258.779 85.5072 261.923 85.9343C278.803 88.227 280.569 103.711 275.516 112.832C273.889 115.768 272.384 117.878 271.041 119.46C270.189 120.464 269.074 121.674 268.698 122.248C268.573 122.44 267.484 124.858 267.295 124.811C266.727 124.669 266.955 124.64 267.234 122.137C267.513 119.634 267.669 118.96 268.175 116.923C268.325 116.322 271.155 111.7 268.982 110.027C267.533 108.912 265.575 109.593 263.109 112.071L261.611 111.505C262.6 109.298 263.226 107.668 263.487 106.616C263.879 105.039 264.747 99.1975 258.239 97.5695Z" fill="url(#paint16_linear_410_1727)"/>
<path fill-rule="evenodd" clip-rule="evenodd" d="M261.613 111.581C261.116 112.691 259.242 115.252 257.55 116.177C255.858 117.101 252.295 117.158 251.564 116.104C250.833 115.049 247.513 110.273 244.52 109.525C244.37 110.129 243.96 111.157 243.29 112.609C245.606 113.576 246.952 114.484 247.326 115.336C247.887 116.613 248.189 115.757 247.628 116.325C247.067 116.892 244.139 116.456 243.917 114.241C243.073 116.005 242.165 120.765 242.485 121.853C242.805 122.94 244.646 123.439 246.463 123.556C248.28 123.673 254.753 124.664 256.402 124.326C258.051 123.988 260.145 124.183 261.525 120.175C262.904 116.168 262.597 113.571 264.397 110.158C266.198 106.745 262.11 110.47 261.613 111.581Z" fill="url(#paint17_linear_410_1727)"/>
<g filter="url(#filter0_i_410_1727)">
<path fill-rule="evenodd" clip-rule="evenodd" d="M266.77 127.789C273.609 129.352 278.204 131.957 280.555 135.604C284.082 141.074 285.85 155.605 285.85 160.318C285.85 165.031 286.412 176.593 285.85 179.748C285.287 182.902 282.705 185.245 277.36 185.245C273.797 185.245 253.601 178.596 216.774 165.298C221.617 162.895 224.116 161.235 224.27 160.318C224.501 158.943 235.74 133.861 239.295 131.306C242.849 128.751 250.228 127.542 253.186 127.542C252.753 128.746 251.791 129.718 253.151 131.306C254.511 132.894 257.18 133.171 259.824 132.069C261.587 131.334 263.902 129.908 266.77 127.789Z" fill="#917BFF"/>
<path fill-rule="evenodd" clip-rule="evenodd" d="M266.77 127.789C273.609 129.352 278.204 131.957 280.555 135.604C284.082 141.074 285.85 155.605 285.85 160.318C285.85 165.031 286.412 176.593 285.85 179.748C285.287 182.902 282.705 185.245 277.36 185.245C273.797 185.245 253.601 178.596 216.774 165.298C221.617 162.895 224.116 161.235 224.27 160.318C224.501 158.943 235.74 133.861 239.295 131.306C242.849 128.751 250.228 127.542 253.186 127.542C252.753 128.746 251.791 129.718 253.151 131.306C254.511 132.894 257.18 133.171 259.824 132.069C261.587 131.334 263.902 129.908 266.77 127.789Z" fill="url(#paint18_linear_410_1727)"/>
</g>
<mask id="mask1_410_1727" style="mask-type:alpha" maskUnits="userSpaceOnUse" x="216" y="127" width="71" height="59">
<path fill-rule="evenodd" clip-rule="evenodd" d="M266.77 127.789C273.609 129.352 278.204 131.957 280.555 135.604C284.082 141.074 285.85 155.605 285.85 160.318C285.85 165.031 286.412 176.593 285.85 179.748C285.287 182.902 282.705 185.245 277.36 185.245C273.797 185.245 253.601 178.596 216.774 165.298C221.617 162.895 224.116 161.235 224.27 160.318C224.501 158.943 235.74 133.861 239.295 131.306C242.849 128.751 250.228 127.542 253.186 127.542C252.753 128.746 251.791 129.718 253.151 131.306C254.511 132.894 257.18 133.171 259.824 132.069C261.587 131.334 263.902 129.908 266.77 127.789Z" fill="white"/>
<path fill-rule="evenodd" clip-rule="evenodd" d="M266.77 127.789C273.609 129.352 278.204 131.957 280.555 135.604C284.082 141.074 285.85 155.605 285.85 160.318C285.85 165.031 286.412 176.593 285.85 179.748C285.287 182.902 282.705 185.245 277.36 185.245C273.797 185.245 253.601 178.596 216.774 165.298C221.617 162.895 224.116 161.235 224.27 160.318C224.501 158.943 235.74 133.861 239.295 131.306C242.849 128.751 250.228 127.542 253.186 127.542C252.753 128.746 251.791 129.718 253.151 131.306C254.511 132.894 257.18 133.171 259.824 132.069C261.587 131.334 263.902 129.908 266.77 127.789Z" stroke="white"/>
</mask>
<g mask="url(#mask1_410_1727)">
<g opacity="0.585435">
<path fill-rule="evenodd" clip-rule="evenodd" d="M249.583 128.507C243.919 134.324 255.092 137.423 259.655 135.874C264.217 134.324 269.337 128.507 269.337 128.507C269.337 128.507 256.436 118.875 253.009 123.691C249.583 128.507 255.247 122.69 249.583 128.507Z" fill="url(#paint19_linear_410_1727)" style="mix-blend-mode:multiply"/>
</g>
<g opacity="0.54654">
<path fill-rule="evenodd" clip-rule="evenodd" d="M241.511 181.134C245.544 181.134 271.767 176.778 271.767 173.241C271.767 169.705 269.745 144.791 269.745 144.791" fill="url(#paint20_linear_410_1727)" style="mix-blend-mode:multiply"/>
</g>
<g opacity="0.54654">
<path fill-rule="evenodd" clip-rule="evenodd" d="M204.775 165.797C206.601 165.797 215.047 176.531 222.763 172.918C232.084 168.553 237.512 152.392 237.512 150.457C237.512 148.977 239.959 143.728 239.027 138.009C238.475 134.619 233.965 127.253 233.965 127.253" fill="url(#paint21_linear_410_1727)" style="mix-blend-mode:multiply"/>
</g>
</g>
<path fill-rule="evenodd" clip-rule="evenodd" d="M174.083 48.7586C175.075 56.3473 175.265 60.7632 174.653 62.0063C173.735 63.8711 175.513 72.6431 181.176 73.1517C186.838 73.6603 189.806 71.2397 190.029 65.3212C190.251 59.4027 190.606 57.121 191.52 54.502C192.435 51.883 175.393 41.0325 174.653 43.0385C174.16 44.3758 173.97 46.2825 174.083 48.7586Z" fill="url(#paint22_linear_410_1727)"/>
<path fill-rule="evenodd" clip-rule="evenodd" d="M197.355 31.3244C197.355 33.0118 197.579 38.2792 197.41 39.614C197.241 40.9488 197.106 42.9379 197.258 45.5076C197.41 48.0773 196.08 54.3975 194.595 56.6872C193.708 58.0543 190.194 60.6898 186.748 60.3196C182.662 59.8806 178.194 55.9221 177.716 53.9427C176.835 50.2937 177.565 47.0736 175.026 45.1345C172.487 43.1954 170.637 41.3943 170.865 38.4008C171.093 35.4073 173.701 28.2811 175.026 27.9817C176.351 27.6822 197.355 29.6372 197.355 31.3244Z" fill="url(#paint23_linear_410_1727)"/>
<path fill-rule="evenodd" clip-rule="evenodd" d="M175.543 29.1702C176.748 30.9942 187.296 39.787 197.869 34.0784C208.441 28.3698 194.378 18.0066 188 16.8243C181.623 15.642 176.131 16.2992 172.273 21.6694C168.416 27.0396 166.481 36.2435 174.027 48.7292C174.36 46.7479 174.526 45.4275 174.526 44.7681C171.523 42.0113 170.772 39.4424 172.273 37.0614C174.526 33.4897 175.271 40.4925 175.543 41.6174C176.44 41.6174 177.004 41.4606 177.236 41.147C176.618 39.3795 176.393 37.745 176.56 36.2435C176.811 33.9911 177.552 33.4897 175.543 29.1702Z" fill="url(#paint24_linear_410_1727)"/>
<path fill-rule="evenodd" clip-rule="evenodd" d="M175.543 29.1702C176.748 30.9942 187.296 39.787 197.869 34.0784C208.441 28.3698 194.378 18.0066 188 16.8243C181.623 15.642 176.131 16.2992 172.273 21.6694C168.416 27.0396 166.481 36.2435 174.027 48.7292C174.36 46.7479 174.526 45.4275 174.526 44.7681C171.523 42.0113 170.772 39.4424 172.273 37.0614C174.526 33.4897 175.271 40.4925 175.543 41.6174C176.44 41.6174 177.004 41.4606 177.236 41.147C176.618 39.3795 176.393 37.745 176.56 36.2435C176.811 33.9911 177.552 33.4897 175.543 29.1702Z" fill="url(#paint25_linear_410_1727)"/>
<path fill-rule="evenodd" clip-rule="evenodd" d="M155.415 160.837C155.415 158.085 152.237 140.06 158.786 134.645C165.335 129.23 173.435 137.13 203.268 138.327C203.76 150.432 203.76 158.954 203.268 163.893C202.777 168.832 184.757 175.834 155.415 160.837Z" fill="url(#paint26_linear_410_1727)"/>
<path fill-rule="evenodd" clip-rule="evenodd" d="M155.415 160.837C155.415 158.085 152.237 140.06 158.786 134.645C165.335 129.23 173.435 137.13 203.268 138.327C203.76 150.432 203.76 158.954 203.268 163.893C202.777 168.832 184.757 175.834 155.415 160.837Z" fill="url(#paint27_linear_410_1727)"/>
<path fill-rule="evenodd" clip-rule="evenodd" d="M150.358 137.495C151.061 140.621 153.389 143.96 154.173 144.681C154.957 145.403 157.81 146.297 158.349 146.123C158.889 145.949 160.308 144.759 160.372 143.366C160.436 141.973 159.075 141.188 159.066 139.13C159.056 137.071 155.644 134.086 155.644 132.265C155.644 130.444 149.655 134.368 150.358 137.495Z" fill="url(#paint28_linear_410_1727)"/>
<path fill-rule="evenodd" clip-rule="evenodd" d="M238.054 133.206C240.17 136.022 241.548 136.515 242.341 137.355C243.135 138.194 244.95 141.159 245.624 140.665C246.298 140.171 246.996 139.198 245.947 137.355C244.898 135.512 243.31 133.568 243.861 132.592C244.412 131.617 247.104 128.733 249.351 128.064C251.597 127.394 252.343 127.827 252.567 127.467C252.791 127.107 249.881 126.585 248.681 126.45C247.482 126.315 245.782 126.16 243.332 126.45C241.698 126.644 240.56 125.962 239.918 124.406C237.265 128.395 236.644 131.328 238.054 133.206Z" fill="url(#paint29_linear_410_1727)"/>
<path fill-rule="evenodd" clip-rule="evenodd" d="M156.659 133.284C155.159 132.435 150.136 134.46 150.136 138.555C147.469 129.446 140.066 117.117 140.066 103.643C143.46 91.8961 152.312 73.3772 154.289 70.4707C155.607 68.533 162.138 65.8207 173.881 62.334C176.507 65.2141 179.62 66.6543 183.219 66.6543C188.617 66.6543 188.901 63.3327 190.343 63.1594C191.785 62.986 199.956 66.6543 203.985 70.5569C208.015 74.4594 212.33 89.8086 222.93 101.723C233.53 113.638 237.332 121.951 242.591 126.428C240.662 128.161 238.048 129.171 238.048 133.284C236.144 131.883 225.523 124.555 216.521 116.024C207.519 107.493 203.527 100.398 202.168 99.4376C200.606 98.3331 204.138 132.504 203.985 138.555C203.833 144.606 183.096 144.951 176.611 144.951C170.126 144.951 160.097 142.699 157.523 140.479C157.099 140.113 158.211 92.0687 157.523 94.0846C155.778 99.1991 151.726 101.723 151.726 105.092C151.726 112.919 156.669 133.835 156.659 133.284Z" fill="url(#paint30_linear_410_1727)"/>
<path fill-rule="evenodd" clip-rule="evenodd" d="M156.659 133.284C155.159 132.435 150.136 134.46 150.136 138.555C147.469 129.446 140.066 117.117 140.066 103.643C143.46 91.8961 152.312 73.3772 154.289 70.4707C155.607 68.533 162.138 65.8207 173.881 62.334C176.507 65.2141 179.62 66.6543 183.219 66.6543C188.617 66.6543 188.901 63.3327 190.343 63.1594C191.785 62.986 199.956 66.6543 203.985 70.5569C208.015 74.4594 212.33 89.8086 222.93 101.723C233.53 113.638 237.332 121.951 242.591 126.428C240.662 128.161 238.048 129.171 238.048 133.284C236.144 131.883 225.523 124.555 216.521 116.024C207.519 107.493 203.527 100.398 202.168 99.4376C200.606 98.3331 204.138 132.504 203.985 138.555C203.833 144.606 183.096 144.951 176.611 144.951C170.126 144.951 160.097 142.699 157.523 140.479C157.099 140.113 158.211 92.0687 157.523 94.0846C155.778 99.1991 151.726 101.723 151.726 105.092C151.726 112.919 156.669 133.835 156.659 133.284Z" fill="#AFFFA7" fill-opacity="0.558367"/>
<mask id="mask2_410_1727" style="mask-type:alpha" maskUnits="userSpaceOnUse" x="140" y="62" width="103" height="83">
<path fill-rule="evenodd" clip-rule="evenodd" d="M156.659 133.284C155.159 132.435 150.136 134.46 150.136 138.555C147.469 129.446 140.066 117.117 140.066 103.643C143.46 91.8961 152.312 73.3772 154.289 70.4707C155.607 68.533 162.138 65.8207 173.881 62.334C176.507 65.2141 179.62 66.6543 183.219 66.6543C188.617 66.6543 188.901 63.3327 190.343 63.1594C191.785 62.986 199.956 66.6543 203.985 70.5569C208.015 74.4594 212.33 89.8086 222.93 101.723C233.53 113.638 237.332 121.951 242.591 126.428C240.662 128.161 238.048 129.171 238.048 133.284C236.144 131.883 225.523 124.555 216.521 116.024C207.519 107.493 203.527 100.398 202.168 99.4376C200.606 98.3331 204.138 132.504 203.985 138.555C203.833 144.606 183.096 144.951 176.611 144.951C170.126 144.951 160.097 142.699 157.523 140.479C157.099 140.113 158.211 92.0687 157.523 94.0846C155.778 99.1991 151.726 101.723 151.726 105.092C151.726 112.919 156.669 133.835 156.659 133.284Z" fill="white"/>
<path fill-rule="evenodd" clip-rule="evenodd" d="M156.659 133.284C155.159 132.435 150.136 134.46 150.136 138.555C147.469 129.446 140.066 117.117 140.066 103.643C143.46 91.8961 152.312 73.3772 154.289 70.4707C155.607 68.533 162.138 65.8207 173.881 62.334C176.507 65.2141 179.62 66.6543 183.219 66.6543C188.617 66.6543 188.901 63.3327 190.343 63.1594C191.785 62.986 199.956 66.6543 203.985 70.5569C208.015 74.4594 212.33 89.8086 222.93 101.723C233.53 113.638 237.332 121.951 242.591 126.428C240.662 128.161 238.048 129.171 238.048 133.284C236.144 131.883 225.523 124.555 216.521 116.024C207.519 107.493 203.527 100.398 202.168 99.4376C200.606 98.3331 204.138 132.504 203.985 138.555C203.833 144.606 183.096 144.951 176.611 144.951C170.126 144.951 160.097 142.699 157.523 140.479C157.099 140.113 158.211 92.0687 157.523 94.0846C155.778 99.1991 151.726 101.723 151.726 105.092C151.726 112.919 156.669 133.835 156.659 133.284Z" stroke="white"/>
</mask>
<g mask="url(#mask2_410_1727)">
<g opacity="0.4">
<path fill-rule="evenodd" clip-rule="evenodd" d="M155.102 98.046L164.393 85.6582C164.393 85.6582 167.834 125.831 152.472 139.746C149.765 123.65 151.272 115.237 152.472 108.203C153.26 103.584 155.102 98.046 155.102 98.046Z" fill="url(#paint31_linear_410_1727)" style="mix-blend-mode:multiply"/>
</g>
<path style="mix-blend-mode:multiply" opacity="0.713058" fill-rule="evenodd" clip-rule="evenodd" d="M158.446 142.792C161.915 132.597 177.5 99.0215 184.17 94.2339C190.841 89.4462 191.343 83.2671 191.092 75.0655C190.841 66.8639 175.261 50.5234 167.116 56.704C158.971 62.8847 137.166 74.288 134.781 93.4096C132.397 112.531 142.552 141.861 147.139 138.962C151.727 136.062 154.978 152.986 158.446 142.792Z" fill="url(#paint32_linear_410_1727)"/>
</g>
<path fill-rule="evenodd" clip-rule="evenodd" d="M174.869 56.1453C174.869 58.0093 177.694 63.2197 183.15 63.0214C188.606 62.8232 189.703 62.6725 190.323 59.8931C190.323 64.0109 190.536 65.2264 189.53 67.9418C188.523 70.6571 182.252 72.1459 178.735 69.8904C175.218 67.6349 173.385 66.2846 173.899 62.1668C174.414 58.0491 174.869 54.2813 174.869 56.1453Z" fill="url(#paint33_linear_410_1727)"/>
<path fill-rule="evenodd" clip-rule="evenodd" d="M174.869 56.1453C174.869 58.0093 177.694 63.2197 183.15 63.0214C188.606 62.8232 189.703 62.6725 190.323 59.8931C190.323 64.0109 190.536 65.2264 189.53 67.9418C188.523 70.6571 182.252 72.1459 178.735 69.8904C175.218 67.6349 173.385 66.2846 173.899 62.1668C174.414 58.0491 174.869 54.2813 174.869 56.1453Z" fill="#79F396" fill-opacity="0.601449"/>
<path fill-rule="evenodd" clip-rule="evenodd" d="M51.1338 113.298L101.165 101.169C110.418 126.2 114.617 146.786 113.76 162.929C103.656 167.131 88.5013 172.578 68.2948 179.271L47.635 119.733C46.7397 117.153 48.0987 114.333 50.6706 113.434C50.8227 113.381 50.9772 113.335 51.1338 113.298Z" fill="url(#paint34_linear_410_1727)"/>
<path fill-rule="evenodd" clip-rule="evenodd" d="M108.084 104.555C107.013 107.958 110.493 117.568 116.021 122.264C121.549 126.961 103.768 126.162 103.758 120.926C103.747 115.691 109.155 101.151 108.084 104.555Z" fill="#316EEA"/>
<path fill-rule="evenodd" clip-rule="evenodd" d="M110.504 115.22C114.685 116.95 117.699 118.798 119.546 120.762C122.317 123.709 135.793 146.631 137.382 147.988C138.971 149.345 149.906 150.373 151.552 150.915C150.71 152.137 149.072 155.912 149.914 159.233C147.315 160.545 141.607 159.374 129.93 158.061C121.244 150.771 116.734 139.274 114.877 133.786C113.019 128.297 111.562 122.109 110.504 115.22Z" fill="url(#paint35_linear_410_1727)"/>
<path fill-rule="evenodd" clip-rule="evenodd" d="M110.504 115.22C114.685 116.95 117.699 118.798 119.546 120.762C122.317 123.709 135.793 146.631 137.382 147.988C138.971 149.345 149.906 150.373 151.552 150.915C150.71 152.137 149.072 155.912 149.914 159.233C147.315 160.545 141.607 159.374 129.93 158.061C121.244 150.771 116.734 139.274 114.877 133.786C113.019 128.297 111.562 122.109 110.504 115.22Z" fill="url(#paint36_linear_410_1727)"/>
<path fill-rule="evenodd" clip-rule="evenodd" d="M116.24 119.152C119.616 124.944 124.822 136.574 126.3 141.595C127.886 146.98 121.723 161.16 121.794 164.492C121.854 167.271 119.004 166.301 93.6872 168.857C92.9048 163.958 92.9048 157.832 93.6872 150.48C94.8608 139.452 90.0784 124.614 91.4043 122.123C92.7302 119.631 95.9559 114.333 97.3718 114.333C98.7878 114.333 112.865 113.359 116.24 119.152Z" fill="url(#paint37_linear_410_1727)"/>
<path fill-rule="evenodd" clip-rule="evenodd" d="M116.24 119.152C119.616 124.944 124.822 136.574 126.3 141.595C127.886 146.98 121.723 161.16 121.794 164.492C121.854 167.271 119.004 166.301 93.6872 168.857C92.9048 163.958 92.9048 157.832 93.6872 150.48C94.8608 139.452 90.0784 124.614 91.4043 122.123C92.7302 119.631 95.9559 114.333 97.3718 114.333C98.7878 114.333 112.865 113.359 116.24 119.152Z" fill="url(#paint38_linear_410_1727)"/>
<path fill-rule="evenodd" clip-rule="evenodd" d="M11.8342 188.378C11.8342 183.564 15.2088 179.41 19.9204 178.423L160.281 149.025C165.809 147.867 171.548 148.259 176.868 150.155L251.252 176.677C279.959 186.913 276.652 228.534 246.688 234.108V234.108C244.889 234.442 243.063 234.611 241.232 234.611H58.0671C32.5334 234.611 11.8342 213.912 11.8342 188.378V188.378Z" fill="#E2E8F0"/>
<g style="mix-blend-mode:multiply" opacity="0.196931">
<path fill-rule="evenodd" clip-rule="evenodd" d="M121.45 185.416L181.804 175.629L227.726 195.815L161.245 213.508" fill="url(#paint39_linear_410_1727)"/>
</g>
<path fill-rule="evenodd" clip-rule="evenodd" d="M106.749 105.965C106.118 108.922 106.663 111.062 106.663 114.427C106.663 118.926 97.5071 117.095 97.1946 113.685C96.8821 110.275 97.2512 105.703 95.9618 102.605C94.6725 99.5075 107.38 103.008 106.749 105.965Z" fill="url(#paint40_linear_410_1727)"/>
<mask id="mask3_410_1727" style="mask-type:alpha" maskUnits="userSpaceOnUse" x="95" y="101" width="12" height="17">
<path fill-rule="evenodd" clip-rule="evenodd" d="M106.749 105.965C106.118 108.922 106.663 111.062 106.663 114.427C106.663 118.926 97.5071 117.095 97.1946 113.685C96.8821 110.275 97.2512 105.703 95.9618 102.605C94.6725 99.5075 107.38 103.008 106.749 105.965Z" fill="white"/>
</mask>
<g mask="url(#mask3_410_1727)">
<path style="mix-blend-mode:multiply" opacity="0.410547" fill-rule="evenodd" clip-rule="evenodd" d="M93.6417 119.124C93.6417 119.124 107.472 107.498 110.663 107.498C113.855 107.498 93.6417 103.601 93.6417 103.601V119.124Z" fill="#B60808"/>
</g>
<path fill-rule="evenodd" clip-rule="evenodd" d="M109.56 82.1694C110.374 84.7475 110.283 87.6066 111.862 90.0686C113.441 92.5307 115.521 94.681 116.074 95.7749C116.626 96.8689 113.858 97.8407 113.858 98.819C113.858 99.7972 115.703 106.604 114.715 107.254C114.153 108.775 103.791 110.882 101.174 109.372C98.8677 109.372 95.3127 107.342 93.1312 102.353C90.9497 97.3638 90.8491 85.2491 93.1312 82.1694C95.4133 79.0897 108.747 79.5913 109.56 82.1694Z" fill="url(#paint41_linear_410_1727)"/>
<path fill-rule="evenodd" clip-rule="evenodd" d="M125.728 180.714L129.185 152.577L176.325 151.629L172.203 179.099L125.728 180.714Z" fill="url(#paint42_linear_410_1727)"/>
<mask id="mask4_410_1727" style="mask-type:alpha" maskUnits="userSpaceOnUse" x="125" y="151" width="52" height="30">
<path fill-rule="evenodd" clip-rule="evenodd" d="M125.728 180.714L129.185 152.577L176.325 151.629L172.203 179.099L125.728 180.714Z" fill="white"/>
</mask>
<g mask="url(#mask4_410_1727)">
<g style="mix-blend-mode:multiply" opacity="0.458036">
<path fill-rule="evenodd" clip-rule="evenodd" d="M174.699 173.133L168.563 150.891H178.448L174.699 173.133Z" fill="url(#paint43_linear_410_1727)"/>
</g>
<g style="mix-blend-mode:multiply" opacity="0.4">
<path fill-rule="evenodd" clip-rule="evenodd" d="M130.967 167.734C130.967 169.509 135.226 172.085 140.234 174.34C143.138 175.648 142.738 178.683 144.001 178.683C147.444 178.683 122.997 188.652 122.997 188.652C122.997 188.652 121.671 175.171 122.997 171.653C124.442 167.818 130.967 166.76 130.967 167.734Z" fill="url(#paint44_linear_410_1727)"/>
</g>
</g>
<path fill-rule="evenodd" clip-rule="evenodd" d="M121.889 169.3C123.321 169.3 125.054 168.54 127.585 167.96C130.117 167.379 131.713 166.457 132.49 167.315C132.794 167.65 132.287 168.466 131.917 168.689C131.547 168.912 131.35 169.239 129.583 169.895C127.942 170.504 126.992 170.788 127.289 171.355C127.585 171.922 130.273 172.416 131.134 172.644C132.232 172.936 133.884 173.505 135.46 173.771C137.221 174.067 139.166 174.1 139.39 174.23C139.813 174.475 140.433 175.398 139.39 175.693C139.143 175.763 137.361 175.799 135.194 175.693C132.88 175.58 130.758 175.135 131.134 175.693C131.223 175.825 133.357 176.262 135.701 176.262C137.091 176.262 139.902 176.435 140.08 176.435C140.723 176.435 141.045 177.317 140.462 177.751C140.326 177.853 137.613 178.161 135.46 178.24C132.981 178.332 130.788 178.107 130.762 178.24C130.743 178.338 133.354 178.667 135.701 178.555C137.601 178.464 138.646 178.315 139.001 178.555C139.356 178.795 139.266 179.436 139.001 179.724C138.89 179.844 137.174 180.392 135.46 180.506C133.053 180.666 130.438 180.386 130.415 180.506C130.353 180.823 134.801 181.024 135.46 181.024C136.398 181.024 136.28 182.241 135.194 182.499C133.832 182.822 131.015 182.796 129.733 182.796C128.451 182.796 126.524 182.499 124.596 181.781C122.668 181.062 120.094 180.101 118.462 179.724C116.698 179.318 117.965 173.724 119.186 170.789C120.407 167.854 120.458 169.3 121.889 169.3Z" fill="url(#paint45_linear_410_1727)"/>
<path fill-rule="evenodd" clip-rule="evenodd" d="M79.2808 137.027C75.6343 146.383 78.5171 153.484 80.1179 161.589C81.7186 169.695 82.447 171.449 84.9981 173.098C87.5493 174.746 93.805 177.043 117.849 179.828C117.849 177.902 117.788 173.115 120.931 169.095C116.488 169.095 100.694 164.725 95.2633 163.355C90.3845 159.604 95.2633 153.589 95.2633 142.305C95.2633 131.021 82.9274 127.672 79.2808 137.027Z" fill="url(#paint46_linear_410_1727)"/>
<path fill-rule="evenodd" clip-rule="evenodd" d="M79.2808 137.027C75.6343 146.383 78.5171 153.484 80.1179 161.589C81.7186 169.695 82.447 171.449 84.9981 173.098C87.5493 174.746 93.805 177.043 117.849 179.828C117.849 177.902 117.788 173.115 120.931 169.095C116.488 169.095 100.694 164.725 95.2633 163.355C90.3845 159.604 95.2633 153.589 95.2633 142.305C95.2633 131.021 82.9274 127.672 79.2808 137.027Z" fill="url(#paint47_linear_410_1727)"/>
<path fill-rule="evenodd" clip-rule="evenodd" d="M105.646 91.8085L93.3384 94.1349V95.059L106.084 94.0856L105.646 91.8085Z" fill="#8C2D14"/>
<path fill-rule="evenodd" clip-rule="evenodd" d="M108.922 96.6426C107.502 96.7924 106.157 95.0953 105.923 92.855C105.688 90.6148 106.651 88.6744 108.072 88.5245C109.493 88.3747 110.837 90.0718 111.072 92.3121C111.307 94.5523 110.343 96.4928 108.922 96.6426Z" fill="black" fill-opacity="0.01" stroke="#8C2214" stroke-width="4"/>
<path fill-rule="evenodd" clip-rule="evenodd" d="M115.785 92.6515C114.5 92.7871 113.284 91.2516 113.071 89.2247C112.859 87.1978 113.73 85.4422 115.016 85.3066C116.301 85.171 117.518 86.7065 117.73 88.7334C117.942 90.7603 117.071 92.5159 115.785 92.6515Z" fill="black" fill-opacity="0.01" stroke="#8C2214" stroke-width="4"/>
<path d="M110.813 91.53C110.813 90.9649 112.403 89.8568 113.201 90.4145" stroke="#8C3514" stroke-width="4"/>
<path fill-rule="evenodd" clip-rule="evenodd" d="M93.9859 83.343C97.3933 85.9864 105.321 86.7616 110.718 84.2077C116.114 81.6539 117.431 71.1982 110.718 67.9812C108.164 66.7577 103.093 67.5497 103.796 71.2381C97.9227 68.9595 91.5358 70.955 89.0034 72.4749C85.0577 74.8432 81.9822 77.4236 80.3651 82.8484C78.748 88.2731 81.3881 93.6679 80.0888 96.4305C78.7894 99.193 74.9616 101.592 77.0081 110.081C79.0546 118.57 74.1371 117.212 73.0286 122.39C71.92 127.569 75.451 130.039 73.0286 133.49C70.6061 136.94 65.9622 151.507 74.6602 159.308C83.3582 167.11 99.5665 172.794 103.25 156C106.933 139.205 89.6555 135.539 94.7256 127.141C99.7957 118.743 96.437 110.957 97.4983 108.556C98.804 105.601 97.4002 101.094 94.9205 94.9845C92.6239 89.3263 95.9301 87.8156 93.9859 83.343Z" fill="url(#paint48_linear_410_1727)"/>
<path fill-rule="evenodd" clip-rule="evenodd" d="M93.9859 83.343C97.3933 85.9864 105.321 86.7616 110.718 84.2077C116.114 81.6539 117.431 71.1982 110.718 67.9812C108.164 66.7577 103.093 67.5497 103.796 71.2381C97.9227 68.9595 91.5358 70.955 89.0034 72.4749C85.0577 74.8432 81.9822 77.4236 80.3651 82.8484C78.748 88.2731 81.3881 93.6679 80.0888 96.4305C78.7894 99.193 74.9616 101.592 77.0081 110.081C79.0546 118.57 74.1371 117.212 73.0286 122.39C71.92 127.569 75.451 130.039 73.0286 133.49C70.6061 136.94 65.9622 151.507 74.6602 159.308C83.3582 167.11 99.5665 172.794 103.25 156C106.933 139.205 89.6555 135.539 94.7256 127.141C99.7957 118.743 96.437 110.957 97.4983 108.556C98.804 105.601 97.4002 101.094 94.9205 94.9845C92.6239 89.3263 95.9301 87.8156 93.9859 83.343Z" fill="url(#paint49_linear_410_1727)"/>
<path fill-rule="evenodd" clip-rule="evenodd" d="M93.9859 83.343C97.3933 85.9864 105.321 86.7616 110.718 84.2077C116.114 81.6539 117.431 71.1982 110.718 67.9812C108.164 66.7577 103.093 67.5497 103.796 71.2381C97.9227 68.9595 91.5358 70.955 89.0034 72.4749C85.0577 74.8432 81.9822 77.4236 80.3651 82.8484C78.748 88.2731 81.3881 93.6679 80.0888 96.4305C78.7894 99.193 74.9616 101.592 77.0081 110.081C79.0546 118.57 74.1371 117.212 73.0286 122.39C71.92 127.569 75.451 130.039 73.0286 133.49C70.6061 136.94 65.9622 151.507 74.6602 159.308C83.3582 167.11 99.5665 172.794 103.25 156C106.933 139.205 89.6555 135.539 94.7256 127.141C99.7957 118.743 96.437 110.957 97.4983 108.556C98.804 105.601 97.4002 101.094 94.9205 94.9845C92.6239 89.3263 95.9301 87.8156 93.9859 83.343Z" fill="url(#paint50_linear_410_1727)"/>
<path fill-rule="evenodd" clip-rule="evenodd" d="M124.245 201.808L157.05 196.153C175.158 207.506 184.032 213.219 183.672 213.292C183.16 213.396 146.936 219.751 144.489 220.409C144.718 219.823 137.968 213.621 124.245 201.808Z" fill="#D1D5DB"/>
<path fill-rule="evenodd" clip-rule="evenodd" d="M143.722 193.026L178.005 190.712L196.852 207.233L154.141 210.189L143.722 193.026Z" fill="#9CA3AF"/>
<g filter="url(#filter1_i_410_1727)">
<path fill-rule="evenodd" clip-rule="evenodd" d="M227.874 195.499L259.009 183.061C259.641 182.808 259.95 182.089 259.698 181.454C259.567 181.124 259.302 180.867 258.969 180.747L219.324 166.492L180.215 176.189L227.874 195.499Z" fill="#F92E4B"/>
</g>
<path fill-rule="evenodd" clip-rule="evenodd" d="M173.283 135.794L217.213 150.056C218.506 150.476 219.465 151.573 219.711 152.913L227.572 195.654L179.968 176.28L171.383 137.528C171.206 136.728 171.709 135.935 172.507 135.757C172.764 135.7 173.032 135.712 173.283 135.794Z" fill="url(#paint51_linear_410_1727)"/>
<path fill-rule="evenodd" clip-rule="evenodd" d="M195.32 167.295C197.584 168.403 199.971 168.4 200.956 166.374C201.941 164.348 200.165 162.055 197.9 160.947C195.636 159.839 193.496 159.842 192.511 161.868C191.526 163.894 193.056 166.187 195.32 167.295Z" fill="#E2ECFF"/>
<path fill-rule="evenodd" clip-rule="evenodd" d="M180.38 43.1418C180.372 41.5981 181.616 40.3399 183.16 40.3309L185.525 40.3172C187.106 40.308 188.386 41.6022 188.358 43.1837V43.1837C188.332 44.7349 187.056 45.9728 185.505 45.953L183.14 45.9229C181.616 45.9035 180.388 44.6664 180.38 43.1418V43.1418Z" stroke="white" stroke-width="5"/>
<path fill-rule="evenodd" clip-rule="evenodd" d="M193.431 43.1523C193.414 41.5952 194.672 40.3239 196.229 40.3246L197.896 40.3252C199.461 40.3259 200.724 41.6021 200.709 43.1662V43.1662C200.694 44.7325 199.403 45.9851 197.837 45.9527L196.17 45.9182C194.66 45.8869 193.447 44.6625 193.431 43.1523V43.1523Z" stroke="white" stroke-width="5"/>
<path fill-rule="evenodd" clip-rule="evenodd" d="M188.351 42.7922H193.282Z" fill="black" fill-opacity="0.01"/>
<path d="M188.351 42.7922H193.282" stroke="white" stroke-width="4"/>
<path fill-rule="evenodd" clip-rule="evenodd" d="M174.741 38.5828L180.749 41.5108V44.3778L175.311 40.571L174.741 38.5828Z" fill="white"/>
<path fill-rule="evenodd" clip-rule="evenodd" d="M113.962 100.639C114.204 100.513 114.128 101.067 114.233 101.392C114.338 101.717 114.41 101.768 114.445 101.98C113.441 102.499 111.693 102.601 110.523 101.907C110.289 101.768 110.084 101.654 110.278 101.462C110.472 101.27 110.714 101.391 110.975 101.468C111.887 101.739 113.336 100.962 113.962 100.639Z" fill="#8F2E1A"/>
<g style="mix-blend-mode:multiply" opacity="0.4">
<path fill-rule="evenodd" clip-rule="evenodd" d="M78.6484 211.985C86.8182 211.985 93.4412 213.424 93.4412 215.2C93.4412 216.976 86.8182 218.416 78.6484 218.416C70.4785 218.416 63.8556 216.976 63.8556 215.2C63.8556 213.424 70.4785 211.985 78.6484 211.985Z" fill="url(#paint52_linear_410_1727)"/>
</g>
<path fill-rule="evenodd" clip-rule="evenodd" d="M98.3616 196.493C99.4745 198.449 100.098 200.641 100.098 202.956C100.098 211.221 92.1504 217.921 82.3466 217.921C72.5427 217.921 64.5952 211.221 64.5952 202.956C64.5952 200.507 65.2933 198.195 66.5309 196.154C74.3947 197.403 90.0471 197.322 98.3616 196.493Z" fill="url(#paint53_linear_410_1727)"/>
<path fill-rule="evenodd" clip-rule="evenodd" d="M82.4698 193.186C91.3886 193.186 98.6186 194.902 98.6186 197.02C98.6186 199.137 91.3886 200.854 82.4698 200.854C73.551 200.854 66.3209 199.137 66.3209 197.02C66.3209 194.902 73.551 193.186 82.4698 193.186Z" fill="url(#paint54_linear_410_1727)"/>
<mask id="mask5_410_1727" style="mask-type:alpha" maskUnits="userSpaceOnUse" x="66" y="193" width="33" height="8">
<path fill-rule="evenodd" clip-rule="evenodd" d="M82.4698 193.186C91.3886 193.186 98.6186 194.902 98.6186 197.02C98.6186 199.137 91.3886 200.854 82.4698 200.854C73.551 200.854 66.3209 199.137 66.3209 197.02C66.3209 194.902 73.551 193.186 82.4698 193.186Z" fill="white"/>
</mask>
<g mask="url(#mask5_410_1727)">
</g>
<g filter="url(#filter2_i_410_1727)">
<path fill-rule="evenodd" clip-rule="evenodd" d="M81.1138 194.175C80.2319 188.052 77.8059 179.21 70.5123 169.686C66.2159 164.077 66.2019 150.415 65.5814 148.908C68.9527 150.072 75.0089 153.07 81.1138 161.524C87.5135 170.386 83.4536 188.459 81.1138 194.175Z" fill="url(#paint55_linear_410_1727)"/>
</g>
<mask id="mask6_410_1727" style="mask-type:alpha" maskUnits="userSpaceOnUse" x="65" y="148" width="20" height="47">
<path fill-rule="evenodd" clip-rule="evenodd" d="M81.1138 194.175C80.2319 188.052 77.8059 179.21 70.5123 169.686C66.2159 164.077 66.2019 150.415 65.5814 148.908C68.9527 150.072 75.0089 153.07 81.1138 161.524C87.5135 170.386 83.4536 188.459 81.1138 194.175Z" fill="white"/>
</mask>
<g mask="url(#mask6_410_1727)">
<g style="mix-blend-mode:multiply" opacity="0.5">
<mask id="path-79-inside-1_410_1727" fill="white">
<path fill-rule="evenodd" clip-rule="evenodd" d="M80.8673 194.175C81.5404 179.291 79.6933 169.897 73.886 161.029Z"/>
</mask>
<path fill-rule="evenodd" clip-rule="evenodd" d="M80.8673 194.175C81.5404 179.291 79.6933 169.897 73.886 161.029Z" fill="black" fill-opacity="0.01"/>
<path d="M83.8643 194.311C84.5527 179.086 82.6784 168.98 76.3957 159.386L71.3762 162.673C76.7081 170.815 78.528 179.496 77.8704 194.04L83.8643 194.311Z" fill="#489C71" mask="url(#path-79-inside-1_410_1727)"/>
</g>
</g>
<g filter="url(#filter3_i_410_1727)">
<path fill-rule="evenodd" clip-rule="evenodd" d="M81.1411 200.46C78.4165 196.087 73.6027 190.162 64.8463 185.358C59.6881 182.528 55.1 172.114 54.1217 171.174C57.0839 170.925 62.7099 171.17 70.2009 175.56C78.0536 180.161 81.0112 195.312 81.1411 200.46Z" fill="url(#paint56_linear_410_1727)"/>
</g>
<mask id="mask7_410_1727" style="mask-type:alpha" maskUnits="userSpaceOnUse" x="54" y="171" width="28" height="30">
<path fill-rule="evenodd" clip-rule="evenodd" d="M81.1411 200.46C78.4165 196.087 73.6027 190.162 64.8463 185.358C59.6881 182.528 55.1 172.114 54.1217 171.174C57.0839 170.925 62.7099 171.17 70.2009 175.56C78.0536 180.161 81.0112 195.312 81.1411 200.46Z" fill="white"/>
</mask>
<g mask="url(#mask7_410_1727)">
<g style="mix-blend-mode:multiply" opacity="0.5">
<mask id="path-83-inside-2_410_1727" fill="white">
<path fill-rule="evenodd" clip-rule="evenodd" d="M80.953 200.543C76.4795 188.965 71.9225 182.424 64.5197 177.618Z"/>
</mask>
<path fill-rule="evenodd" clip-rule="evenodd" d="M80.953 200.543C76.4795 188.965 71.9225 182.424 64.5197 177.618Z" fill="black" fill-opacity="0.01"/>
<path d="M83.7514 199.461C79.1547 187.565 74.2857 180.381 66.1532 175.102L62.8863 180.135C69.5593 184.467 73.8042 190.365 78.1546 201.624L83.7514 199.461Z" fill="#489C71" mask="url(#path-83-inside-2_410_1727)"/>
</g>
</g>
<g filter="url(#filter4_i_410_1727)">
<path fill-rule="evenodd" clip-rule="evenodd" d="M83.0979 201.059C85.2461 196.353 89.2746 189.83 97.3752 183.914C102.147 180.428 105.37 169.465 106.223 168.403C103.24 168.538 97.668 169.51 90.7741 174.85C83.5475 180.447 82.5613 195.916 83.0979 201.059Z" fill="url(#paint57_linear_410_1727)"/>
</g>
<mask id="mask8_410_1727" style="mask-type:alpha" maskUnits="userSpaceOnUse" x="82" y="168" width="25" height="34">
<path fill-rule="evenodd" clip-rule="evenodd" d="M83.0979 201.059C85.2461 196.353 89.2746 189.83 97.3752 183.914C102.147 180.428 105.37 169.465 106.223 168.403C103.24 168.538 97.668 169.51 90.7741 174.85C83.5475 180.447 82.5613 195.916 83.0979 201.059Z" fill="white"/>
</mask>
<g mask="url(#mask8_410_1727)">
<g style="mix-blend-mode:multiply" opacity="0.5">
<mask id="path-87-inside-3_410_1727" fill="white">
<path fill-rule="evenodd" clip-rule="evenodd" d="M82.4731 201.049C85.4314 188.942 89.1243 181.839 95.8764 176.096Z"/>
</mask>
<path fill-rule="evenodd" clip-rule="evenodd" d="M82.4731 201.049C85.4314 188.942 89.1243 181.839 95.8764 176.096Z" fill="black" fill-opacity="0.01"/>
<path d="M85.3874 201.761C88.2646 189.986 91.7307 183.561 97.82 178.382L93.9328 173.811C86.518 180.117 82.5983 187.898 79.5588 200.337L85.3874 201.761Z" fill="#489C71" mask="url(#path-87-inside-3_410_1727)"/>
</g>
</g>
<defs>
<filter id="filter0_i_410_1727" x="204.774" y="127.542" width="81.3256" height="58.7031" filterUnits="userSpaceOnUse" color-interpolation-filters="sRGB">
<feFlood flood-opacity="0" result="BackgroundImageFix"/>
<feBlend mode="normal" in="SourceGraphic" in2="BackgroundImageFix" result="shape"/>
<feColorMatrix in="SourceAlpha" type="matrix" values="0 0 0 0 0 0 0 0 0 0 0 0 0 0 0 0 0 0 127 0" result="hardAlpha"/>
<feOffset dx="-12" dy="1"/>
<feGaussianBlur stdDeviation="13.5"/>
<feComposite in2="hardAlpha" operator="arithmetic" k2="-1" k3="1"/>
<feColorMatrix type="matrix" values="0 0 0 0 0.0901961 0 0 0 0 0.254902 0 0 0 0 0.572549 0 0 0 0.204201 0"/>
<feBlend mode="normal" in2="shape" result="effect1_innerShadow_410_1727"/>
</filter>
<filter id="filter1_i_410_1727" x="163.215" y="159.491" width="96.5712" height="36.0078" filterUnits="userSpaceOnUse" color-interpolation-filters="sRGB">
<feFlood flood-opacity="0" result="BackgroundImageFix"/>
<feBlend mode="normal" in="SourceGraphic" in2="BackgroundImageFix" result="shape"/>
<feColorMatrix in="SourceAlpha" type="matrix" values="0 0 0 0 0 0 0 0 0 0 0 0 0 0 0 0 0 0 127 0" result="hardAlpha"/>
<feOffset dx="-17" dy="-7"/>
<feGaussianBlur stdDeviation="12"/>
<feComposite in2="hardAlpha" operator="arithmetic" k2="-1" k3="1"/>
<feColorMatrix type="matrix" values="0 0 0 0 0.566667 0 0 0 0 0.139306 0 0 0 0 0.139306 0 0 0 0.775419 0"/>
<feBlend mode="normal" in2="shape" result="effect1_innerShadow_410_1727"/>
</filter>
<filter id="filter2_i_410_1727" x="65.5814" y="138.908" width="18.9709" height="55.2666" filterUnits="userSpaceOnUse" color-interpolation-filters="sRGB">
<feFlood flood-opacity="0" result="BackgroundImageFix"/>
<feBlend mode="normal" in="SourceGraphic" in2="BackgroundImageFix" result="shape"/>
<feColorMatrix in="SourceAlpha" type="matrix" values="0 0 0 0 0 0 0 0 0 0 0 0 0 0 0 0 0 0 127 0" result="hardAlpha"/>
<feOffset dy="-10"/>
<feGaussianBlur stdDeviation="11"/>
<feComposite in2="hardAlpha" operator="arithmetic" k2="-1" k3="1"/>
<feColorMatrix type="matrix" values="0 0 0 0 0.221483 0 0 0 0 0.77854 0 0 0 0 0.610041 0 0 0 1 0"/>
<feBlend mode="normal" in2="shape" result="effect1_innerShadow_410_1727"/>
</filter>
<filter id="filter3_i_410_1727" x="54.1217" y="161.107" width="27.0194" height="39.3525" filterUnits="userSpaceOnUse" color-interpolation-filters="sRGB">
<feFlood flood-opacity="0" result="BackgroundImageFix"/>
<feBlend mode="normal" in="SourceGraphic" in2="BackgroundImageFix" result="shape"/>
<feColorMatrix in="SourceAlpha" type="matrix" values="0 0 0 0 0 0 0 0 0 0 0 0 0 0 0 0 0 0 127 0" result="hardAlpha"/>
<feOffset dy="-10"/>
<feGaussianBlur stdDeviation="11"/>
<feComposite in2="hardAlpha" operator="arithmetic" k2="-1" k3="1"/>
<feColorMatrix type="matrix" values="0 0 0 0 0.221483 0 0 0 0 0.77854 0 0 0 0 0.610041 0 0 0 1 0"/>
<feBlend mode="normal" in2="shape" result="effect1_innerShadow_410_1727"/>
</filter>
<filter id="filter4_i_410_1727" x="82.9749" y="158.403" width="23.248" height="42.6553" filterUnits="userSpaceOnUse" color-interpolation-filters="sRGB">
<feFlood flood-opacity="0" result="BackgroundImageFix"/>
<feBlend mode="normal" in="SourceGraphic" in2="BackgroundImageFix" result="shape"/>
<feColorMatrix in="SourceAlpha" type="matrix" values="0 0 0 0 0 0 0 0 0 0 0 0 0 0 0 0 0 0 127 0" result="hardAlpha"/>
<feOffset dy="-10"/>
<feGaussianBlur stdDeviation="11"/>
<feComposite in2="hardAlpha" operator="arithmetic" k2="-1" k3="1"/>
<feColorMatrix type="matrix" values="0 0 0 0 0.221483 0 0 0 0 0.77854 0 0 0 0 0.610041 0 0 0 1 0"/>
<feBlend mode="normal" in2="shape" result="effect1_innerShadow_410_1727"/>
</filter>
<linearGradient id="paint0_linear_410_1727" x1="149.491" y1="113.192" x2="121.429" y2="149.766" gradientUnits="userSpaceOnUse">
<stop stop-color="#CFDDF3"/>
<stop offset="1" stop-color="#A1B8E3"/>
</linearGradient>
<linearGradient id="paint1_linear_410_1727" x1="143.367" y1="152.475" x2="153.22" y2="168.819" gradientUnits="userSpaceOnUse">
<stop stop-color="#CFDDF3"/>
<stop offset="1" stop-color="#A1B8E3"/>
</linearGradient>
<linearGradient id="paint2_linear_410_1727" x1="143.619" y1="139.645" x2="149.517" y2="149.428" gradientUnits="userSpaceOnUse">
<stop stop-color="#CFDDF3"/>
<stop offset="1" stop-color="#A1B8E3"/>
</linearGradient>
<linearGradient id="paint3_linear_410_1727" x1="137.738" y1="120.08" x2="180.388" y2="190.83" gradientUnits="userSpaceOnUse">
<stop stop-color="#CFDDF3"/>
<stop offset="1" stop-color="#A1B8E3"/>
</linearGradient>
<linearGradient id="paint4_linear_410_1727" x1="205.794" y1="127.46" x2="206.808" y2="185.329" gradientUnits="userSpaceOnUse">
<stop stop-color="#CFDDF3"/>
<stop offset="1" stop-color="#A1B8E3"/>
</linearGradient>
<linearGradient id="paint5_linear_410_1727" x1="9.40027" y1="-21.6505" x2="-5.58721" y2="-18.1527" gradientUnits="userSpaceOnUse">
<stop stop-color="#CFDDF3"/>
<stop offset="1" stop-color="#A1B8E3"/>
</linearGradient>
<linearGradient id="paint6_linear_410_1727" x1="9.42286" y1="-21.5986" x2="-5.59315" y2="-18.0773" gradientUnits="userSpaceOnUse">
<stop stop-color="#CFDDF3"/>
<stop offset="1" stop-color="#A1B8E3"/>
</linearGradient>
<linearGradient id="paint7_linear_410_1727" x1="233.582" y1="115.734" x2="218.566" y2="119.255" gradientUnits="userSpaceOnUse">
<stop stop-color="#CFDDF3"/>
<stop offset="1" stop-color="#A1B8E3"/>
</linearGradient>
<linearGradient id="paint8_linear_410_1727" x1="229.42" y1="128.609" x2="214.404" y2="132.13" gradientUnits="userSpaceOnUse">
<stop stop-color="#CFDDF3"/>
<stop offset="1" stop-color="#A1B8E3"/>
</linearGradient>
<linearGradient id="paint9_linear_410_1727" x1="9.40075" y1="-21.6494" x2="-5.58734" y2="-18.1511" gradientUnits="userSpaceOnUse">
<stop stop-color="#CFDDF3"/>
<stop offset="1" stop-color="#A1B8E3"/>
</linearGradient>
<linearGradient id="paint10_linear_410_1727" x1="9.4059" y1="-21.6376" x2="-5.5887" y2="-18.1339" gradientUnits="userSpaceOnUse">
<stop stop-color="#CFDDF3"/>
<stop offset="1" stop-color="#A1B8E3"/>
</linearGradient>
<linearGradient id="paint11_linear_410_1727" x1="9.40913" y1="-21.6301" x2="-5.58955" y2="-18.1232" gradientUnits="userSpaceOnUse">
<stop stop-color="#CFDDF3"/>
<stop offset="1" stop-color="#A1B8E3"/>
</linearGradient>
<linearGradient id="paint12_linear_410_1727" x1="308.798" y1="85.5254" x2="244.985" y2="106.991" gradientUnits="userSpaceOnUse">
<stop stop-color="#91D0FF"/>
<stop offset="0.481467" stop-color="#6DB4FF"/>
<stop offset="1" stop-color="#2881EE"/>
</linearGradient>
<linearGradient id="paint13_linear_410_1727" x1="256.135" y1="146.213" x2="279.68" y2="137.588" gradientUnits="userSpaceOnUse">
<stop stop-color="#FFCCB5"/>
<stop offset="1" stop-color="#DF1E1E"/>
</linearGradient>
<linearGradient id="paint14_linear_410_1727" x1="235.7" y1="120.92" x2="269.239" y2="130.072" gradientUnits="userSpaceOnUse">
<stop stop-color="#FFCCB5"/>
<stop offset="1" stop-color="#DF1E1E"/>
</linearGradient>
<linearGradient id="paint15_linear_410_1727" x1="237.541" y1="79.307" x2="243.994" y2="101.506" gradientUnits="userSpaceOnUse">
<stop stop-color="#2D6DC0"/>
<stop offset="1" stop-color="#143B8C"/>
</linearGradient>
<linearGradient id="paint16_linear_410_1727" x1="256.258" y1="98.9836" x2="261.093" y2="121.612" gradientUnits="userSpaceOnUse">
<stop stop-color="#174293" stop-opacity="0.01"/>
<stop offset="1" stop-color="#051E4B"/>
</linearGradient>
<linearGradient id="paint17_linear_410_1727" x1="230.816" y1="116.708" x2="240.567" y2="133.046" gradientUnits="userSpaceOnUse">
<stop stop-color="#2D6DC0"/>
<stop offset="1" stop-color="#143B8C"/>
</linearGradient>
<linearGradient id="paint18_linear_410_1727" x1="235.736" y1="159.506" x2="232.131" y2="172.695" gradientUnits="userSpaceOnUse">
<stop stop-color="#2E7DE7" stop-opacity="0.01"/>
<stop offset="1" stop-color="#00357E" stop-opacity="0.5"/>
</linearGradient>
<linearGradient id="paint19_linear_410_1727" x1="269.337" y1="136.27" x2="269.337" y2="122.086" gradientUnits="userSpaceOnUse">
<stop stop-color="#70B8F9" stop-opacity="0.275872"/>
<stop offset="1" stop-color="#3D82F0"/>
</linearGradient>
<linearGradient id="paint20_linear_410_1727" x1="254.052" y1="172.682" x2="268.843" y2="180.273" gradientUnits="userSpaceOnUse">
<stop stop-color="#3D82F0" stop-opacity="0.01"/>
<stop offset="1" stop-color="#3D82F0"/>
</linearGradient>
<linearGradient id="paint21_linear_410_1727" x1="219.06" y1="162.869" x2="236.658" y2="170.925" gradientUnits="userSpaceOnUse">
<stop stop-color="#3D82F0" stop-opacity="0.01"/>
<stop offset="1" stop-color="#3D82F0"/>
</linearGradient>
<linearGradient id="paint22_linear_410_1727" x1="186.79" y1="60.5984" x2="176.749" y2="53.3679" gradientUnits="userSpaceOnUse">
<stop stop-color="#DEA085"/>
<stop offset="1" stop-color="#A43232"/>
</linearGradient>
<linearGradient id="paint23_linear_410_1727" x1="195.509" y1="21.1519" x2="167.606" y2="25.2159" gradientUnits="userSpaceOnUse">
<stop stop-color="#FFCCB5"/>
<stop offset="1" stop-color="#DF1E1E"/>
</linearGradient>
<linearGradient id="paint24_linear_410_1727" x1="193.603" y1="2.89929" x2="166.034" y2="29.2835" gradientUnits="userSpaceOnUse">
<stop stop-color="#164898"/>
<stop offset="1" stop-color="#223762"/>
</linearGradient>
<linearGradient id="paint25_linear_410_1727" x1="178.792" y1="29.5812" x2="168.252" y2="45.7951" gradientUnits="userSpaceOnUse">
<stop stop-color="#233582" stop-opacity="0.01"/>
<stop offset="1"/>
</linearGradient>
<linearGradient id="paint26_linear_410_1727" x1="216.551" y1="160.181" x2="203.159" y2="131.339" gradientUnits="userSpaceOnUse">
<stop stop-color="#363471"/>
<stop offset="1" stop-color="#1E1F48"/>
</linearGradient>
<linearGradient id="paint27_linear_410_1727" x1="205.288" y1="138.979" x2="194.845" y2="138.979" gradientUnits="userSpaceOnUse">
<stop stop-color="#FF7575" stop-opacity="0.5"/>
<stop offset="1" stop-opacity="0.01"/>
</linearGradient>
<linearGradient id="paint28_linear_410_1727" x1="159.735" y1="127.147" x2="148.204" y2="128.558" gradientUnits="userSpaceOnUse">
<stop stop-color="#FFCCB5"/>
<stop offset="1" stop-color="#DF1E1E"/>
</linearGradient>
<linearGradient id="paint29_linear_410_1727" x1="251.683" y1="120.787" x2="234.639" y2="123.738" gradientUnits="userSpaceOnUse">
<stop stop-color="#FFCCB5"/>
<stop offset="1" stop-color="#DF1E1E"/>
</linearGradient>
<linearGradient id="paint30_linear_410_1727" x1="201.262" y1="58.0832" x2="165.181" y2="111.682" gradientUnits="userSpaceOnUse">
<stop stop-color="#2FE0D6"/>
<stop offset="1" stop-color="#39A383"/>
</linearGradient>
<linearGradient id="paint31_linear_410_1727" x1="158.062" y1="170.759" x2="184.653" y2="163.772" gradientUnits="userSpaceOnUse">
<stop stop-color="#51C897" stop-opacity="0.01"/>
<stop offset="1" stop-color="#45B4B4"/>
</linearGradient>
<linearGradient id="paint32_linear_410_1727" x1="191.59" y1="53.7916" x2="149.937" y2="59.6589" gradientUnits="userSpaceOnUse">
<stop stop-color="#EAF0F7" stop-opacity="0.115546"/>
<stop offset="1" stop-color="#D1DDED"/>
</linearGradient>
<linearGradient id="paint33_linear_410_1727" x1="175.952" y1="65.6134" x2="180.571" y2="65.6134" gradientUnits="userSpaceOnUse">
<stop stop-color="#297E72"/>
<stop offset="1" stop-color="#4AB2AB"/>
</linearGradient>
<linearGradient id="paint34_linear_410_1727" x1="39.7826" y1="137.966" x2="81.4278" y2="149.679" gradientUnits="userSpaceOnUse">
<stop stop-color="#91D0FF"/>
<stop offset="0.481467" stop-color="#6DB4FF"/>
<stop offset="1" stop-color="#2881EE"/>
</linearGradient>
<linearGradient id="paint35_linear_410_1727" x1="137.291" y1="125.965" x2="115.341" y2="132.828" gradientUnits="userSpaceOnUse">
<stop stop-color="#363471"/>
<stop offset="1" stop-color="#1E1F48"/>
</linearGradient>
<linearGradient id="paint36_linear_410_1727" x1="132.238" y1="126.994" x2="121.505" y2="143.815" gradientUnits="userSpaceOnUse">
<stop stop-color="#FF7575" stop-opacity="0.5"/>
<stop offset="1" stop-opacity="0.01"/>
</linearGradient>
<linearGradient id="paint37_linear_410_1727" x1="114.744" y1="126.627" x2="93.6924" y2="131.632" gradientUnits="userSpaceOnUse">
<stop stop-color="#363471"/>
<stop offset="1" stop-color="#1E1F48"/>
</linearGradient>
<linearGradient id="paint38_linear_410_1727" x1="126.561" y1="120.957" x2="100.09" y2="130.178" gradientUnits="userSpaceOnUse">
<stop stop-color="#FF7575" stop-opacity="0.5"/>
<stop offset="1" stop-opacity="0.01"/>
</linearGradient>
<linearGradient id="paint39_linear_410_1727" x1="142.554" y1="174.343" x2="141.628" y2="197.431" gradientUnits="userSpaceOnUse">
<stop stop-color="#0041B2"/>
<stop offset="1" stop-color="#2D64D7" stop-opacity="0.01"/>
</linearGradient>
<linearGradient id="paint40_linear_410_1727" x1="107.741" y1="101.862" x2="97.7972" y2="101.862" gradientUnits="userSpaceOnUse">
<stop stop-color="#FFCCB5"/>
<stop offset="1" stop-color="#DF1E1E"/>
</linearGradient>
<linearGradient id="paint41_linear_410_1727" x1="112.745" y1="72.8232" x2="85.2239" y2="80.1804" gradientUnits="userSpaceOnUse">
<stop stop-color="#FFCCB5"/>
<stop offset="1" stop-color="#DF1E1E"/>
</linearGradient>
<linearGradient id="paint42_linear_410_1727" x1="140.934" y1="190.711" x2="158.178" y2="162.666" gradientUnits="userSpaceOnUse">
<stop stop-color="#98C7FF"/>
<stop offset="1" stop-color="white"/>
</linearGradient>
<linearGradient id="paint43_linear_410_1727" x1="174.673" y1="149.002" x2="166.951" y2="150.042" gradientUnits="userSpaceOnUse">
<stop stop-color="#319EFF"/>
<stop offset="1" stop-color="#3A9EFF" stop-opacity="0.01"/>
</linearGradient>
<linearGradient id="paint44_linear_410_1727" x1="137.068" y1="187.587" x2="147.848" y2="180.108" gradientUnits="userSpaceOnUse">
<stop stop-color="#4794D8"/>
<stop offset="1" stop-color="#3AA0FF" stop-opacity="0.01"/>
</linearGradient>
<linearGradient id="paint45_linear_410_1727" x1="126.348" y1="158.006" x2="110.335" y2="177.072" gradientUnits="userSpaceOnUse">
<stop stop-color="#FFCCB5"/>
<stop offset="1" stop-color="#DF1E1E"/>
</linearGradient>
<linearGradient id="paint46_linear_410_1727" x1="105.166" y1="140.136" x2="80.7563" y2="147.55" gradientUnits="userSpaceOnUse">
<stop stop-color="#363471"/>
<stop offset="1" stop-color="#1E1F48"/>
</linearGradient>
<linearGradient id="paint47_linear_410_1727" x1="98.3816" y1="153.654" x2="88.6045" y2="170.48" gradientUnits="userSpaceOnUse">
<stop stop-color="#FF7575" stop-opacity="0.5"/>
<stop offset="1" stop-opacity="0.01"/>
</linearGradient>
<linearGradient id="paint48_linear_410_1727" x1="99.1956" y1="26.7864" x2="42.2337" y2="47.8171" gradientUnits="userSpaceOnUse">
<stop stop-color="#9CC2FF"/>
<stop offset="1" stop-color="#6494F6"/>
</linearGradient>
<linearGradient id="paint49_linear_410_1727" x1="81.045" y1="111.541" x2="48.8892" y2="130.625" gradientUnits="userSpaceOnUse">
<stop stop-color="#8AA0FF" stop-opacity="0.01"/>
<stop offset="1" stop-color="#3662BB"/>
</linearGradient>
<linearGradient id="paint50_linear_410_1727" x1="109.592" y1="78.0711" x2="67.9729" y2="81.5031" gradientUnits="userSpaceOnUse">
<stop stop-color="#FFEBBE"/>
<stop offset="1" stop-color="#D9B978"/>
</linearGradient>
<linearGradient id="paint51_linear_410_1727" x1="207.005" y1="134.375" x2="171.928" y2="154.535" gradientUnits="userSpaceOnUse">
<stop stop-color="#F92E4B"/>
<stop offset="0.481467" stop-color="#FD4671"/>
<stop offset="1" stop-color="#E02944"/>
</linearGradient>
<linearGradient id="paint52_linear_410_1727" x1="93.9343" y1="211.737" x2="63.609" y2="211.737" gradientUnits="userSpaceOnUse">
<stop stop-color="#D9E5F6" stop-opacity="0.712636"/>
<stop offset="1" stop-color="#B2C6EA"/>
</linearGradient>
<linearGradient id="paint53_linear_410_1727" x1="106.147" y1="209.528" x2="83.7436" y2="194.482" gradientUnits="userSpaceOnUse">
<stop stop-color="#112546"/>
<stop offset="0.627469" stop-color="#224A8C"/>
<stop offset="1" stop-color="#326DCD"/>
</linearGradient>
<linearGradient id="paint54_linear_410_1727" x1="67.3087" y1="191.415" x2="66.5159" y2="204.085" gradientUnits="userSpaceOnUse">
<stop stop-color="#032B67"/>
<stop offset="1" stop-color="#26529B"/>
</linearGradient>
<linearGradient id="paint55_linear_410_1727" x1="62.363" y1="161.188" x2="88.9521" y2="188.937" gradientUnits="userSpaceOnUse">
<stop stop-color="#B1FFBE"/>
<stop offset="0.444207" stop-color="#5CDB8E"/>
<stop offset="1" stop-color="#149654"/>
</linearGradient>
<linearGradient id="paint56_linear_410_1727" x1="61.9776" y1="169.643" x2="65.8123" y2="199.18" gradientUnits="userSpaceOnUse">
<stop stop-color="#B1FFBE"/>
<stop offset="0.444207" stop-color="#5CDB8E"/>
<stop offset="1" stop-color="#149654"/>
</linearGradient>
<linearGradient id="paint57_linear_410_1727" x1="78.867" y1="177.047" x2="96.3986" y2="204.472" gradientUnits="userSpaceOnUse">
<stop stop-color="#B1FFBE"/>
<stop offset="0.444207" stop-color="#5CDB8E"/>
<stop offset="1" stop-color="#149654"/>
</linearGradient>
</defs>
</svg>
