<svg width="249" height="274" viewBox="0 0 249 274" fill="none" xmlns="http://www.w3.org/2000/svg">
<path fill-rule="evenodd" clip-rule="evenodd" d="M112.48 102.325L215.076 130.516V229.16L112.48 184.961V102.325Z" fill="#8E99A3"/>
<path fill-rule="evenodd" clip-rule="evenodd" d="M112.598 102.421L28.8032 125.837V229.49L112.598 184.625V102.421Z" fill="#A0AAB5"/>
<path d="M166.566 222.094C143.411 215.317 102.747 215.922 87.476 176.31C73.4801 140.006 125.109 105.066 139.554 120.363C149.789 131.203 136.67 146.835 118.464 145.079C97.9725 143.103 85.8601 124.777 89.9005 105.066C97.9153 65.9665 159.536 40.0974 162.133 38.2954" stroke="url(#paint0_linear_48_9880)" stroke-width="3" stroke-dasharray="6 7"/>
<ellipse opacity="0.4" cx="159.168" cy="16.3522" rx="9.98462" ry="13.1406" transform="rotate(-45 159.168 16.3522)" fill="#CED8E5"/>
<ellipse opacity="0.4" cx="184.584" cy="40.8216" rx="9.98462" ry="13.1406" transform="rotate(135 184.584 40.8216)" fill="#CED8E5"/>
<path d="M163.68 27.1425C163.68 22.669 167.306 19.0425 171.78 19.0425H180.926V28.1612C180.926 32.6347 177.299 36.2612 172.826 36.2612H163.68V27.1425Z" fill="#A8B7C5"/>
<mask id="mask0_48_9880" style="mask-type:alpha" maskUnits="userSpaceOnUse" x="163" y="19" width="18" height="18">
<path d="M163.68 27.1425C163.68 22.669 167.306 19.0425 171.78 19.0425H180.926V28.1612C180.926 32.6347 177.299 36.2612 172.826 36.2612H163.68V27.1425Z" fill="white"/>
</mask>
<g mask="url(#mask0_48_9880)">
<rect x="160.66" y="23.8315" width="2.72308" height="19.9375" transform="rotate(-45 160.66 23.8315)" fill="#DDE5F2"/>
<path fill-rule="evenodd" clip-rule="evenodd" d="M166.105 19.3L168.031 17.3745L182.129 31.4725L180.203 33.398L166.105 19.3Z" fill="#DDE5F2"/>
</g>
<path d="M190.184 14.7286L196.808 13.152" stroke="#8696C5" stroke-width="0.9"/>
<path d="M187.461 12.0098L190.01 5.45264" stroke="#8696C5" stroke-width="0.9"/>
<ellipse cx="183.648" cy="17.23" rx="7.26154" ry="7.25" fill="#8B9AA8"/>
<path fill-rule="evenodd" clip-rule="evenodd" d="M28.8008 126.023L131.396 158.58V273.545L28.8008 229.346V126.023Z" fill="#DAE2EC"/>
<path fill-rule="evenodd" clip-rule="evenodd" d="M215.592 130.389L129.942 158.58V273.545L215.592 229.346V130.389Z" fill="#C5D0D9"/>
<path fill-rule="evenodd" clip-rule="evenodd" d="M215.349 130.322L248.459 174.633L160.591 209.26L130.244 158.363L215.349 130.322Z" fill="#DAE2EC"/>
<path fill-rule="evenodd" clip-rule="evenodd" d="M28.6786 125.784L0 170.522L101.076 209.259L130.607 158.301L28.6786 125.784Z" fill="#C5D0D9"/>
<defs>
<linearGradient id="paint0_linear_48_9880" x1="103.559" y1="16.3698" x2="31.1347" y2="51.4718" gradientUnits="userSpaceOnUse">
<stop stop-color="#95ABC2"/>
<stop offset="1" stop-color="white"/>
</linearGradient>
</defs>
</svg>
