<svg width="209" height="223" viewBox="0 0 209 223" fill="none" xmlns="http://www.w3.org/2000/svg">
<path fill-rule="evenodd" clip-rule="evenodd" d="M35.1262 222.207C36.8077 222.207 82.0395 211.044 82.0395 211.044L126.97 207.091L183.084 206.326L162.874 97.5811L149.547 68.0121L35.1262 205.763C35.1262 205.763 30.8535 222.207 35.1262 222.207Z" fill="url(#paint0_linear_657_2761)"/>
<mask id="path-2-outside-1_657_2761" maskUnits="userSpaceOnUse" x="7.15231" y="53.976" width="171.306" height="169.643" fill="black">
<rect fill="white" x="7.15231" y="53.976" width="171.306" height="169.643"/>
<path fill-rule="evenodd" clip-rule="evenodd" d="M15.4099 97.6154C15.3356 97.1462 15.5709 96.6823 15.9933 96.4651L59.0062 74.3473C59.1451 74.2759 59.29 74.2372 59.4335 74.2273C59.5731 74.1923 59.7229 74.1844 59.877 74.2094L107.363 81.9113L150.145 59.9124C150.811 59.5699 151.617 59.9787 151.734 60.7185L170.58 179.703C170.654 180.172 170.419 180.636 169.996 180.853L126.983 202.971C126.844 203.042 126.699 203.081 126.556 203.091C126.416 203.126 126.267 203.134 126.112 203.109L78.6265 195.407L35.8447 217.406C35.1786 217.749 34.3724 217.34 34.2552 216.6L15.4099 97.6154Z"/>
</mask>
<path fill-rule="evenodd" clip-rule="evenodd" d="M15.4099 97.6154C15.3356 97.1462 15.5709 96.6823 15.9933 96.4651L59.0062 74.3473C59.1451 74.2759 59.29 74.2372 59.4335 74.2273C59.5731 74.1923 59.7229 74.1844 59.877 74.2094L107.363 81.9113L150.145 59.9124C150.811 59.5699 151.617 59.9787 151.734 60.7185L170.58 179.703C170.654 180.172 170.419 180.636 169.996 180.853L126.983 202.971C126.844 203.042 126.699 203.081 126.556 203.091C126.416 203.126 126.267 203.134 126.112 203.109L78.6265 195.407L35.8447 217.406C35.1786 217.749 34.3724 217.34 34.2552 216.6L15.4099 97.6154Z" fill="#E0E2EE"/>
<path d="M15.9933 96.4651L13.9812 92.5521L13.9812 92.5521L15.9933 96.4651ZM15.4099 97.6154L11.0641 98.3037L15.4099 97.6154ZM59.0062 74.3473L56.9941 70.4343L56.9941 70.4343L59.0062 74.3473ZM59.4335 74.2273L59.7366 78.6168L60.1245 78.59L60.5017 78.4956L59.4335 74.2273ZM59.877 74.2094L60.5814 69.8662L60.5814 69.8662L59.877 74.2094ZM107.363 81.9113L106.659 86.2546L108.088 86.4864L109.375 85.8243L107.363 81.9113ZM150.145 59.9124L148.133 55.9994L148.133 55.9994L150.145 59.9124ZM169.996 180.853L167.984 176.94L167.984 176.94L169.996 180.853ZM126.983 202.971L128.995 206.884L128.995 206.884L126.983 202.971ZM126.556 203.091L126.253 198.702L125.865 198.728L125.488 198.823L126.556 203.091ZM126.112 203.109L125.408 207.452L125.408 207.452L126.112 203.109ZM78.6265 195.407L79.3309 191.064L77.9019 190.832L76.6144 191.494L78.6265 195.407ZM35.8447 217.406L33.8326 213.493L33.8325 213.493L35.8447 217.406ZM13.9812 92.5521C11.8689 93.6383 10.6925 95.9577 11.0641 98.3037L19.7557 96.9271C19.9787 98.3347 19.2728 99.7263 18.0054 100.378L13.9812 92.5521ZM56.9941 70.4343L13.9812 92.5521L18.0054 100.378L61.0183 78.2603L56.9941 70.4343ZM59.1304 69.8377C58.3982 69.8883 57.6709 70.0863 56.9941 70.4343L61.0183 78.2603C60.6192 78.4655 60.1818 78.5861 59.7366 78.6168L59.1304 69.8377ZM60.5814 69.8662C59.8302 69.7443 59.0773 69.7807 58.3653 69.9589L60.5017 78.4956C60.0688 78.604 59.6156 78.6245 59.1725 78.5526L60.5814 69.8662ZM108.067 77.5681L60.5814 69.8662L59.1725 78.5526L106.659 86.2546L108.067 77.5681ZM148.133 55.9994L105.351 77.9983L109.375 85.8243L152.157 63.8254L148.133 55.9994ZM156.08 60.0302C155.494 56.3313 151.463 54.2868 148.133 55.9994L152.157 63.8254C150.159 64.8529 147.74 63.6262 147.388 61.4069L156.08 60.0302ZM174.925 179.015L156.08 60.0302L147.388 61.4069L166.234 180.391L174.925 179.015ZM172.008 184.766C174.121 183.68 175.297 181.361 174.925 179.015L166.234 180.391C166.011 178.984 166.717 177.592 167.984 176.94L172.008 184.766ZM128.995 206.884L172.008 184.766L167.984 176.94L124.971 199.058L128.995 206.884ZM126.859 207.481C127.591 207.43 128.318 207.232 128.995 206.884L124.971 199.058C125.37 198.853 125.808 198.732 126.253 198.702L126.859 207.481ZM125.408 207.452C126.159 207.574 126.912 207.538 127.624 207.359L125.488 198.823C125.921 198.714 126.374 198.694 126.817 198.766L125.408 207.452ZM77.922 199.75L125.408 207.452L126.817 198.766L79.3309 191.064L77.922 199.75ZM37.8568 221.319L80.6386 199.32L76.6144 191.494L33.8326 213.493L37.8568 221.319ZM29.9094 217.288C30.4952 220.987 34.5262 223.032 37.8568 221.319L33.8325 213.493C35.8309 212.465 38.2495 213.692 38.601 215.911L29.9094 217.288ZM11.0641 98.3037L29.9094 217.288L38.601 215.911L19.7557 96.9271L11.0641 98.3037Z" fill="url(#paint1_linear_657_2761)" mask="url(#path-2-outside-1_657_2761)"/>
<path fill-rule="evenodd" clip-rule="evenodd" d="M15.4099 97.6154C15.3356 97.1462 15.5709 96.6823 15.9934 96.4651L59.0062 74.3473C59.6723 74.0048 60.4785 74.4137 60.5957 75.1535L79.441 194.138C79.5153 194.607 79.28 195.071 78.8576 195.288L35.8447 217.406C35.1786 217.749 34.3724 217.34 34.2552 216.6L15.4099 97.6154Z" fill="#E0E2EE"/>
<path fill-rule="evenodd" clip-rule="evenodd" d="M26.7211 169.854C26.6453 169.384 26.8806 168.919 27.304 168.701L70.3187 146.583C70.9837 146.241 71.7888 146.648 71.9077 147.386L79.4386 194.136C79.5143 194.606 79.279 195.072 78.8556 195.289L35.841 217.408C35.1759 217.75 34.3709 217.343 34.2519 216.605L26.7211 169.854Z" fill="#F1F2F7"/>
<path fill-rule="evenodd" clip-rule="evenodd" d="M106.549 83.1805C106.474 82.7113 106.71 82.2474 107.132 82.0301L150.145 59.9124C150.811 59.5699 151.617 59.9788 151.734 60.7186L170.58 179.703C170.654 180.172 170.419 180.636 169.996 180.853L126.983 202.971C126.317 203.314 125.511 202.905 125.394 202.165L106.549 83.1805Z" fill="#E0E2EE"/>
<path fill-rule="evenodd" clip-rule="evenodd" d="M118.127 156.688L135.179 165.074L164.929 150.632C165.599 150.307 166.392 150.727 166.498 151.464L170.592 179.712C170.659 180.177 170.424 180.634 170.006 180.848L126.981 202.972C126.316 203.314 125.51 202.906 125.392 202.167L118.127 156.688Z" fill="#F1F2F7"/>
<path fill-rule="evenodd" clip-rule="evenodd" d="M108.53 82.8667C108.455 82.3975 108.088 82.029 107.619 81.953L59.877 74.2094C59.1377 74.0895 58.4973 74.7275 58.6145 75.4673L77.4597 194.452C77.5341 194.921 77.9012 195.289 78.3701 195.365L126.113 203.109C126.852 203.229 127.492 202.591 127.375 201.851L108.53 82.8667Z" fill="#BEC0D6"/>
<path fill-rule="evenodd" clip-rule="evenodd" d="M105.878 154.095C105.476 153.982 105.172 153.652 105.094 153.241L100.279 127.88L67.7606 122.605C67.0226 122.486 66.3828 123.121 66.4975 123.86L77.4617 194.449C77.5348 194.919 77.9024 195.29 78.3725 195.366L126.117 203.11C126.855 203.229 127.495 202.594 127.38 201.855L120.603 158.224L105.878 154.095Z" fill="#D8DBEA"/>
<path d="M23.8837 168.877L68.274 147.874L63.56 120.904L74.6997 122.947L101.135 126.026L105.581 154.402L118.662 156.641L134.799 164.982L168.3 149.175" stroke="white" stroke-width="6.6" stroke-linejoin="round"/>
<path d="M63.5814 129.007L46.1259 125.103L42.0806 102.358L52.8207 96.1578L50.2408 77.6908" stroke="white" stroke-width="3.3" stroke-linejoin="round"/>
<path d="M45.4957 161.303L60.7958 172.934L73.55 167.129L122.477 175.86L126.849 205.88" stroke="white" stroke-width="3.3" stroke-linejoin="round"/>
<path d="M102.723 125.855L98.8376 96.496L110.395 99.0878L125.436 119.701L150.008 108.352L158.141 86.0876" stroke="white" stroke-width="3.3" stroke-linejoin="round"/>
<path fill-rule="evenodd" clip-rule="evenodd" d="M173.917 169.73L88.8019 126.55L101.427 121.783L109.714 126.55L148.578 70.0098H157.596L173.917 169.73Z" fill="url(#paint2_linear_657_2761)"/>
<path d="M37.6294 29.7358L23.767 20.5236C22.3137 19.5579 20.3678 19.9527 19.4207 21.4056C18.4736 22.8584 18.8839 24.819 20.3372 25.7848L34.1996 34.997C35.6529 35.9627 37.5988 35.5679 38.5459 34.115C39.493 32.6622 39.0827 30.7015 37.6294 29.7358Z" fill="url(#paint3_linear_657_2761)"/>
<path d="M30.2827 41.4173L13.8718 38.6399C12.1513 38.3488 10.5342 39.5009 10.2599 41.2134C9.98561 42.9259 11.1579 44.5501 12.8784 44.8413L29.2893 47.6186C31.0097 47.9098 32.6268 46.7576 32.9011 45.0452C33.1754 43.3327 32.0031 41.7085 30.2827 41.4173Z" fill="url(#paint4_linear_657_2761)"/>
<path d="M49.9474 22.5567L42.5483 7.6475C41.7726 6.08449 39.89 5.45349 38.3433 6.23812C36.7967 7.02275 36.1717 8.92589 36.9474 10.4889L44.3465 25.3981C45.1222 26.9611 47.0049 27.5921 48.5515 26.8075C50.0982 26.0228 50.7231 24.1197 49.9474 22.5567Z" fill="url(#paint5_linear_657_2761)"/>
<path d="M171.056 36.1614L186.531 30.0327C188.153 29.3902 189.974 30.181 190.599 31.799C191.223 33.417 190.414 35.2495 188.792 35.892L173.317 42.0207C171.695 42.6632 169.873 41.8724 169.249 40.2544C168.625 38.6364 169.434 36.8039 171.056 36.1614Z" fill="url(#paint6_linear_657_2761)"/>
<path d="M175.813 49.1151L192.443 49.8105C194.186 49.8834 195.529 51.3466 195.441 53.0787C195.353 54.8107 193.869 56.1558 192.125 56.0829L175.496 55.3875C173.752 55.3146 172.41 53.8514 172.498 52.1193C172.586 50.3872 174.07 49.0422 175.813 49.1151Z" fill="url(#paint7_linear_657_2761)"/>
<path d="M160.5 26.5781L170.837 13.5331C171.921 12.1655 173.893 11.9397 175.243 13.0288C176.593 14.1178 176.808 16.1093 175.725 17.4769L165.387 30.5219C164.304 31.8895 162.331 32.1153 160.981 31.0262C159.632 29.9372 159.416 27.9457 160.5 26.5781Z" fill="url(#paint8_linear_657_2761)"/>
<path fill-rule="evenodd" clip-rule="evenodd" d="M90.1602 37.5761C89.6068 37.6166 89.0516 37.6708 88.4949 37.7392C69.8506 40.0284 56.6225 57.2462 58.9493 76.1961C59.3214 79.2266 60.0687 82.1178 61.1381 84.8274L61.1341 84.8392C66.2039 98.0086 75.5862 116.205 91.6804 129.043C96.4561 127.796 100.957 127.061 101.144 127.031L96.5944 89.9784C96.055 90.0998 95.5046 90.1956 94.9442 90.2644C85.7749 91.3903 77.4261 84.8469 76.2968 75.6493C75.1675 66.4517 81.6852 58.0829 90.8546 56.957C91.4149 56.8882 91.9722 56.8481 92.5249 56.8354L90.1602 37.5761Z" fill="url(#paint9_linear_657_2761)"/>
<path fill-rule="evenodd" clip-rule="evenodd" d="M82.3541 38.6942C81.8007 38.735 81.2456 38.7894 80.6889 38.8578C62.0445 41.147 48.7918 58.1636 51.0881 76.8654C51.6185 81.1851 52.9321 85.2169 54.8685 88.8352C65.1252 109.865 91.7896 129.266 91.7896 129.266C91.7896 129.266 92.3296 128.638 93.2568 127.489L88.678 90.1982C88.1386 90.3196 87.5882 90.4155 87.0278 90.4843C77.8585 91.6101 69.5098 85.0667 68.3804 75.8691C67.2511 66.6715 73.7688 58.3027 82.9382 57.1769C83.4985 57.1081 84.0558 57.0679 84.6086 57.0552L82.3541 38.6942Z" fill="#F92E4B"/>
<path fill-rule="evenodd" clip-rule="evenodd" d="M111.606 38.4913C112.16 38.5129 112.715 38.548 113.273 38.5968C131.951 40.2309 145.773 56.6337 144.145 75.2335C143.756 79.6862 142.516 83.8612 140.599 87.6138C135.132 100.184 125.046 112.509 111.325 127.991C108.715 127.008 104.275 125.379 104.275 125.379C104.275 125.379 104.189 125.294 104.027 125.127L107.139 89.5541C107.681 89.6565 108.234 89.7331 108.795 89.7822C117.981 90.5858 126.082 83.7479 126.891 74.5092C127.699 65.2705 120.908 57.1296 111.722 56.3259C111.161 56.2768 110.603 56.2562 110.051 56.263L111.606 38.4913Z" fill="url(#paint10_linear_657_2761)"/>
<path fill-rule="evenodd" clip-rule="evenodd" d="M118.9 38.9394C119.454 38.9608 120.009 38.9957 120.567 39.0445C139.244 40.6786 153.053 57.2318 151.41 76.0171C151.03 80.3561 149.859 84.4347 148.053 88.1216C138.549 109.516 112.622 129.857 112.622 129.857C112.622 129.857 112.061 129.248 111.097 128.131L114.374 90.6736C114.916 90.776 115.469 90.8526 116.03 90.9017C125.216 91.7053 133.317 84.8673 134.126 75.6287C134.934 66.39 128.143 58.2491 118.957 57.4454C118.396 57.3963 117.838 57.3757 117.287 57.3825L118.9 38.9394Z" fill="#F92E4B"/>
<defs>
<linearGradient id="paint0_linear_657_2761" x1="214.266" y1="201.69" x2="196.371" y2="159.67" gradientUnits="userSpaceOnUse">
<stop stop-color="#C8D4DE" stop-opacity="0.01"/>
<stop offset="1" stop-color="#DEEAF4"/>
</linearGradient>
<linearGradient id="paint1_linear_657_2761" x1="-51.9785" y1="146.818" x2="74.5401" y2="253.527" gradientUnits="userSpaceOnUse">
<stop stop-color="#EFF6FF"/>
<stop offset="1" stop-color="white"/>
</linearGradient>
<linearGradient id="paint2_linear_657_2761" x1="139.219" y1="147.612" x2="95.6494" y2="111.059" gradientUnits="userSpaceOnUse">
<stop stop-color="#E5E7EB" stop-opacity="0.01"/>
<stop offset="1" stop-color="#808080"/>
</linearGradient>
<linearGradient id="paint3_linear_657_2761" x1="17.7759" y1="21.9032" x2="28.0114" y2="40.3685" gradientUnits="userSpaceOnUse">
<stop stop-color="#E8F1F5"/>
<stop offset="1" stop-color="#E5EAF0"/>
</linearGradient>
<linearGradient id="paint4_linear_657_2761" x1="8.95972" y1="42.337" x2="25.8208" y2="55.0428" gradientUnits="userSpaceOnUse">
<stop stop-color="#E8F1F5"/>
<stop offset="1" stop-color="#E5EAF0"/>
</linearGradient>
<linearGradient id="paint5_linear_657_2761" x1="36.67" y1="5.84668" x2="36.3016" y2="26.9559" gradientUnits="userSpaceOnUse">
<stop stop-color="#E8F1F5"/>
<stop offset="1" stop-color="#E5EAF0"/>
</linearGradient>
<linearGradient id="paint6_linear_657_2761" x1="192.104" y1="32.6277" x2="178.253" y2="48.5615" gradientUnits="userSpaceOnUse">
<stop stop-color="#E8F1F5"/>
<stop offset="1" stop-color="#E5EAF0"/>
</linearGradient>
<linearGradient id="paint7_linear_657_2761" x1="196.479" y1="54.4481" x2="177.345" y2="63.3705" gradientUnits="userSpaceOnUse">
<stop stop-color="#E8F1F5"/>
<stop offset="1" stop-color="#E5EAF0"/>
</linearGradient>
<linearGradient id="paint8_linear_657_2761" x1="176.961" y1="12.9938" x2="172.933" y2="33.7183" gradientUnits="userSpaceOnUse">
<stop stop-color="#E8F1F5"/>
<stop offset="1" stop-color="#E5EAF0"/>
</linearGradient>
<linearGradient id="paint9_linear_657_2761" x1="62.2911" y1="52.0403" x2="117.021" y2="96.8101" gradientUnits="userSpaceOnUse">
<stop stop-color="#FF5E84"/>
<stop offset="1" stop-color="#E46B80"/>
</linearGradient>
<linearGradient id="paint10_linear_657_2761" x1="143.374" y1="63.6215" x2="90.6454" y2="94.9291" gradientUnits="userSpaceOnUse">
<stop stop-color="#FFCFD5"/>
<stop offset="1" stop-color="#FFA2AB"/>
</linearGradient>
</defs>
</svg>
