<svg width="264" height="231" viewBox="0 0 264 231" fill="none" xmlns="http://www.w3.org/2000/svg">
<path fill-rule="evenodd" clip-rule="evenodd" d="M238.532 126.608C238.532 183.929 192.063 230.398 134.742 230.398C77.4211 230.398 30.9531 183.929 30.9531 126.608C30.9531 69.2874 77.4211 22.8184 134.742 22.8184C192.063 22.8184 238.532 69.2874 238.532 126.608Z" stroke="#D1D5DB" stroke-dasharray="5.02 5.02"/>
<path fill-rule="evenodd" clip-rule="evenodd" d="M211.817 126.608C211.817 169.175 177.309 203.683 134.742 203.683C92.174 203.683 57.668 169.175 57.668 126.608C57.668 84.0412 92.174 49.5332 134.742 49.5332C177.309 49.5332 211.817 84.0412 211.817 126.608Z" stroke="#D1D5DB" stroke-dasharray="5.05 5.05"/>
<path d="M11.345 140.582L9.41797 140.523" stroke="#D1D5DB" stroke-linecap="round"/>
<path d="M9.96208 136.929L8.58008 138.22" stroke="#D1D5DB" stroke-linecap="round"/>
<path d="M6.36103 135.261L6.33203 137.145" stroke="#D1D5DB" stroke-linecap="round"/>
<path d="M2.64844 136.554L3.99044 137.928" stroke="#D1D5DB" stroke-linecap="round"/>
<path d="M1 140.053L2.926 140.112" stroke="#D1D5DB" stroke-linecap="round"/>
<path d="M2.38281 143.706L3.76581 142.415" stroke="#D1D5DB" stroke-linecap="round"/>
<path d="M5.98438 145.375L6.01337 143.491" stroke="#D1D5DB" stroke-linecap="round"/>
<path d="M9.69747 144.081L8.35547 142.707" stroke="#D1D5DB" stroke-linecap="round"/>
<path d="M262.648 113.723L261.801 114.64" stroke="#D1D5DB" stroke-linecap="round"/>
<path d="M258.672 114.52L259.311 115.109" stroke="#D1D5DB" stroke-linecap="round"/>
<path d="M258.027 118.583L258.874 117.666" stroke="#D1D5DB" stroke-linecap="round"/>
<path d="M262.001 117.786L261.363 117.197" stroke="#D1D5DB" stroke-linecap="round"/>
<path d="M185.07 5.94685L183.021 5.89185" stroke="#D1D5DB" stroke-linecap="round"/>
<path d="M179.769 1L179.738 2.751" stroke="#D1D5DB" stroke-linecap="round"/>
<path d="M174.066 5.4541L176.115 5.5081" stroke="#D1D5DB" stroke-linecap="round"/>
<path d="M179.367 10.4004L179.398 8.64941" stroke="#D1D5DB" stroke-linecap="round"/>
<path fill-rule="evenodd" clip-rule="evenodd" d="M33.3361 195.006C31.8621 195.447 29.4071 197.613 28.5671 200.181C28.4261 197.795 26.9111 194.796 25.2441 194.364C27.2781 193.645 29.4811 191.002 30.0671 188.775C29.9611 191.109 32.0801 194.498 33.3361 195.006" fill="#D1D5DB"/>
<path fill-rule="evenodd" clip-rule="evenodd" d="M67.8587 15.3254C66.7217 15.5264 64.7067 16.9264 63.8587 18.7664C63.9597 16.9774 63.0907 14.6124 61.8867 14.1464C63.4637 13.7864 65.3337 12.0084 65.9627 10.4004C65.6817 12.1304 66.9667 14.8384 67.8587 15.3254" fill="#D1D5DB"/>
<path fill-rule="evenodd" clip-rule="evenodd" d="M218.559 28.317C217.04 28.284 215.836 27.027 215.87 25.509C215.903 23.991 217.16 22.787 218.677 22.82C220.196 22.853 221.4 24.11 221.367 25.628C221.333 27.146 220.077 28.35 218.559 28.317" fill="#D1D5DB"/>
<path fill-rule="evenodd" clip-rule="evenodd" d="M218.566 208.469C217.245 208.441 216.197 207.346 216.225 206.025C216.253 204.703 217.348 203.655 218.67 203.683C219.992 203.712 221.04 204.806 221.011 206.128C220.982 207.449 219.888 208.498 218.566 208.469" fill="#D1D5DB"/>
<path fill-rule="evenodd" clip-rule="evenodd" d="M19.8224 64.8034C19.0044 64.7854 18.3554 64.1084 18.3734 63.2894C18.3904 62.4714 19.0684 61.8234 19.8864 61.8404C20.7044 61.8584 21.3534 62.5354 21.3364 63.3534C21.3184 64.1724 20.6404 64.8214 19.8224 64.8034Z" stroke="#D1D5DB" stroke-linecap="round"/>
<path fill-rule="evenodd" clip-rule="evenodd" d="M179.4 59.0672C179.4 64.3322 175.131 68.6002 169.867 68.6002C164.601 68.6002 160.334 64.3322 160.334 59.0672C160.334 53.8022 164.601 49.5332 169.867 49.5332C175.131 49.5332 179.4 53.8022 179.4 59.0672" fill="white"/>
<path fill-rule="evenodd" clip-rule="evenodd" d="M73.8983 185.055L59.6963 97.3887C59.4853 96.0907 60.0823 94.7947 61.2043 94.1107L98.7153 71.2137C99.4533 70.7637 100.339 70.6267 101.177 70.8337L147.448 82.2777C148.315 82.4917 149.232 82.3377 149.982 81.8527L180.936 61.8237C182.756 60.6457 185.198 61.5567 185.8 63.6397L211.844 153.562C212.225 154.879 211.735 156.293 210.622 157.092L182.124 177.515C181.351 178.068 180.376 178.254 179.455 178.024L125.25 164.473C124.492 164.284 123.69 164.375 122.995 164.73L78.5633 187.419C76.6093 188.416 74.2503 187.221 73.8983 185.055" fill="#F1F2F7"/>
<path fill-rule="evenodd" clip-rule="evenodd" d="M169.986 66.4842C165.478 66.4842 161.824 62.8292 161.824 58.3212C161.824 53.8132 165.478 50.1582 169.986 50.1582C174.495 50.1582 178.149 53.8132 178.149 58.3212C178.149 62.8292 174.495 66.4842 169.986 66.4842M169.985 41.0879C160.732 40.8259 153.018 48.1149 152.756 57.3679C152.749 57.6309 152.748 57.8949 152.753 58.1579C152.753 72.4519 168.715 85.6759 169.387 86.2199C169.726 86.5109 170.226 86.5109 170.566 86.2199C171.273 85.5859 187.218 71.0369 187.218 58.1579C187.392 48.9019 180.031 41.2579 170.775 41.0849C170.512 41.0799 170.249 41.0809 169.985 41.0879" fill="url(#paint0_linear_6608_11410)"/>
<path d="M105.699 145.275L133.327 152.483C136.234 153.241 138.521 149.982 136.813 147.511C127.276 133.719 109.426 105.134 126.221 106.334C148.323 107.913 144.113 127.873 148.849 130.523C153.586 133.172 182.002 127.254 183.054 116.795C184.107 106.334 180.424 101.072 173.056 97.9147C165.689 94.7567 169.387 86.2207 169.387 86.2207" stroke="#112546" stroke-width="2" stroke-dasharray="7"/>
<path fill-rule="evenodd" clip-rule="evenodd" d="M70.3662 109.03L68.4752 101.677C68.0572 100.053 68.7772 98.3498 70.2342 97.5168L93.2802 84.3478C93.4622 84.2438 93.6512 84.1558 93.8472 84.0838L101.486 81.2888C102.147 81.0468 102.864 80.9968 103.553 81.1458L120.315 84.7728C121.658 85.0628 122.731 86.0688 123.108 87.3888C123.827 89.9048 121.796 92.3568 119.191 92.1198L111.817 91.4498C109.458 91.2348 107.501 93.2488 107.783 95.6008L108.462 101.26C108.668 102.976 107.666 104.608 106.043 105.201L90.5492 110.86C89.4572 111.258 88.2432 111.124 87.2642 110.498L83.0152 107.78C81.2802 106.669 78.9732 107.179 77.8672 108.917L77.1132 110.102C75.3642 112.85 71.1782 112.185 70.3662 109.03" fill="#D1D5DB"/>
<path fill-rule="evenodd" clip-rule="evenodd" d="M172.225 142.307L177.515 164.98C178.123 167.586 181.202 168.719 183.354 167.128L200.967 154.109C202.199 153.2 202.747 151.629 202.35 150.15L198.218 134.75C197.672 132.714 195.547 131.537 193.533 132.154L174.761 137.901C172.888 138.474 171.78 140.4 172.225 142.307" fill="#D1D5DB"/>
<path fill-rule="evenodd" clip-rule="evenodd" d="M150.492 149.816L162.573 150.59C164.155 150.692 165.5 151.784 165.923 153.313L168.271 161.795C169.027 164.524 166.581 167.064 163.825 166.411L151.867 163.579C150.671 163.296 149.691 162.44 149.25 161.293L146.779 154.868C145.805 152.334 147.783 149.643 150.492 149.816" fill="#D1D5DB"/>
<path fill-rule="evenodd" clip-rule="evenodd" d="M94.5802 144.295C89.6992 144.295 85.7422 140.338 85.7422 135.458C85.7422 130.577 89.6992 126.62 94.5802 126.62C99.4612 126.62 103.417 130.577 103.417 135.458C103.417 140.338 99.4612 144.295 94.5802 144.295M94.58 116.801C84.561 116.517 76.211 124.408 75.927 134.426C75.919 134.711 75.918 134.996 75.923 135.281C75.923 150.756 93.205 165.073 93.932 165.662C94.299 165.977 94.841 165.977 95.208 165.662C95.975 164.975 113.236 149.225 113.236 135.281C113.425 125.261 105.455 116.985 95.434 116.797C95.149 116.792 94.864 116.793 94.58 116.801" fill="#F92E4B"/>
<defs>
<linearGradient id="paint0_linear_6608_11410" x1="152.75" y1="41.0811" x2="152.75" y2="86.4382" gradientUnits="userSpaceOnUse">
<stop stop-color="#FAD961"/>
<stop offset="1" stop-color="#F76B1C"/>
</linearGradient>
</defs>
</svg>
